<?xml version="1.0" encoding="UTF-8" standalone="no"?>
<!DOCTYPE svg PUBLIC "-//W3C//DTD SVG 1.1//EN" "http://www.w3.org/Graphics/SVG/1.1/DTD/svg11.dtd">
<svg width="100%" height="100%" viewBox="0 0 6386 6386" version="1.1" xmlns="http://www.w3.org/2000/svg" xmlns:xlink="http://www.w3.org/1999/xlink" xml:space="preserve" xmlns:serif="http://www.serif.com/" style="fill-rule:evenodd;clip-rule:evenodd;stroke-linecap:square;stroke-linejoin:bevel;stroke-miterlimit:10;">
    <g transform="matrix(1.63503,-1.97215e-31,-3.9443e-31,2.41291,-1345.47,-1950.66)">
        <path d="M4728.28,914.281C4728.28,855.858 4658.28,808.427 4572.07,808.427L979.118,808.427C892.901,808.427 822.903,855.858 822.903,914.281L822.903,3348.92C822.903,3407.34 892.901,3454.77 979.118,3454.77L4572.07,3454.77C4658.28,3454.77 4728.28,3407.34 4728.28,3348.92L4728.28,914.281Z" style="fill:rgb(146,115,183);"/>
    </g>
    <g transform="matrix(1.59974,-1.97215e-31,0,2.36084,-1247.53,-1839.67)">
        <path d="M4728.28,887.817C4728.28,844 4675.78,808.427 4611.12,808.427L940.065,808.427C875.402,808.427 822.903,844 822.903,887.817L822.903,3375.38C822.903,3419.2 875.402,3454.77 940.065,3454.77L4611.12,3454.77C4675.78,3454.77 4728.28,3419.2 4728.28,3375.38L4728.28,887.817Z" style="fill:rgb(161,134,191);"/>
    </g>
    <g id="path168" transform="matrix(-13.8933,-1.06383e-14,-1.06383e-14,13.8933,7183.5,-805.107)">
        <path d="M374.79,321.72L374.93,321.36L375.08,321.07L375.15,320.78L375.29,320.5L375.44,320.14L375.58,319.85L375.79,319.56L375.94,319.28L376.08,318.99L376.23,318.7L376.44,318.41L376.58,318.13L376.8,317.84L376.94,317.62L377.16,317.34L377.37,317.05L377.59,316.76L377.73,316.55L377.95,316.26L378.16,315.97L378.38,315.76L378.67,315.54L378.88,315.25L379.1,315.04L379.31,314.82L379.53,314.54L379.82,314.32L380.03,314.11L380.32,313.89L380.53,313.67L380.82,313.46L381.11,313.24L381.32,313.03L381.61,312.88L381.9,312.67L382.19,312.45L382.4,312.31L382.69,312.09L382.98,311.95L383.26,311.74L383.55,311.59L383.84,311.45L384.13,311.3L384.48,311.16L384.77,311.02L385.06,310.87L385.35,310.73L385.63,310.59L386.78,310.08L387.86,309.51L388.94,308.93L389.94,308.29L390.95,307.57L391.88,306.85L392.81,306.06L393.68,305.2L394.54,304.34L395.33,303.41L396.05,302.47L396.76,301.47L397.41,300.46L397.98,299.38L398.56,298.31L399.06,297.23L399.49,296.08L399.85,294.93L400.14,293.78L400.43,292.56L400.64,291.34L400.79,290.19L400.93,287.75L400.79,285.31L400.64,284.16L400.43,282.94L400.14,281.72L399.85,280.57L399.49,279.42L399.06,278.27L398.56,277.19L397.98,276.12L397.41,275.04L396.76,274.03L396.05,273.03L395.33,272.09L394.54,271.16L393.68,270.3L392.81,269.44L391.88,268.65L390.95,267.93L389.94,267.21L388.94,266.57L387.86,265.99L386.78,265.42L385.63,264.91L385.35,264.77L385.06,264.63L384.77,264.48L384.48,264.34L384.13,264.2L383.84,264.05L383.55,263.91L383.26,263.76L382.98,263.55L382.69,263.41L382.4,263.19L382.19,263.05L381.9,262.83L381.61,262.62L381.32,262.47L381.11,262.26L380.82,262.04L380.53,261.83L380.32,261.61L380.03,261.39L379.82,261.18L379.53,260.96L379.31,260.68L379.1,260.46L378.88,260.25L378.67,259.96L378.38,259.74L378.16,259.53L377.95,259.24L377.73,258.95L377.59,258.74L377.37,258.45L377.16,258.16L376.94,257.88L376.8,257.66L376.58,257.37L376.44,257.09L376.23,256.8L376.08,256.51L375.94,256.22L375.79,255.94L375.58,255.65L375.44,255.36L375.29,255L375.15,254.72L375.08,254.43L374.93,254.14L374.79,253.78L374.57,253.28L374.36,252.71L374.14,252.13L373.93,251.56L373.64,251.05L373.43,250.48L373.21,249.9L372.92,249.33L372.71,248.83L372.42,248.25L372.2,247.75L371.92,247.18L371.7,246.67L371.41,246.1L371.13,245.6L370.84,245.02L370.62,244.52L370.34,243.94L370.05,243.44L369.76,242.87L369.48,242.36L368.9,241.36L368.54,240.78L368.25,240.28L367.97,239.78L367.68,239.28L367.32,238.7L367.03,238.2L366.67,237.7L366.39,237.19L366.03,236.69L365.74,236.19L365.38,235.69L365.09,235.18L364.74,234.68L364.02,233.68L363.66,233.24L363.37,232.74L362.65,231.74L362.29,231.31L361.94,230.8L361.5,230.3L361.15,229.87L360.79,229.37L360.43,228.94L360.21,228.65L360,228.36L359.78,228.15L359.64,227.86L359.42,227.57L359.28,227.28L359.06,227L358.92,226.71L358.7,226.42L358.56,226.13L358.42,225.85L358.27,225.56L358.13,225.27L357.99,224.99L357.84,224.7L357.7,224.34L357.55,224.05L357.41,223.77L357.34,223.41L357.2,223.12L357.05,222.83L356.98,222.47L356.91,222.19L356.76,221.83L356.69,221.54L356.62,221.18L356.55,220.89L356.48,220.53L356.41,220.25L356.33,219.89L356.26,219.6L356.26,219.24L356.19,218.88L356.19,218.59L356.12,218.24L356.12,217.59L356.05,217.23L356.05,215.58L356.12,215.29L356.12,214.57L356.19,214.29L356.19,213.93L356.33,212.71L356.41,211.49L356.41,209.12L356.26,207.89L356.12,206.67L355.9,205.52L355.62,204.3L355.26,203.15L354.83,202.01L354.39,200.86L353.89,199.78L353.32,198.7L352.74,197.7L352.02,196.62L351.31,195.69L350.59,194.75L349.73,193.82L348.94,192.96L348,192.17L347.07,191.38L346.14,190.66L345.13,189.94L344.05,189.3L343.05,188.72L341.9,188.22L340.82,187.72L339.67,187.28L338.52,186.93L337.3,186.64L336.15,186.42L334.93,186.21L333.71,186.06L332.56,185.99L331.34,185.99L330.12,186.06L328.9,186.14L327.68,186.35L326.53,186.57L325.31,186.85L323.01,187.57L321.94,188.07L320.79,188.58L319.71,189.08L318.7,189.73L317.7,190.37L316.69,191.09L316.41,191.31L316.12,191.52L315.9,191.66L315.62,191.88L315.33,192.1L314.75,192.38L314.47,192.6L314.18,192.74L313.89,192.89L313.61,193.03L313.32,193.17L312.96,193.32L312.38,193.6L312.1,193.75L311.74,193.89L311.45,193.96L311.16,194.11L310.8,194.18L310.52,194.32L310.16,194.39L309.87,194.47L309.58,194.61L309.22,194.68L308.94,194.75L308.58,194.82L308.22,194.9L307.93,194.9L307.57,194.97L307.29,195.04L306.93,195.04L306.57,195.11L306.28,195.11L305.92,195.18L303.62,195.18L303.26,195.11L302.62,195.11L302.26,195.04L301.97,195.04L301.61,194.97L301.04,194.9L300.46,194.75L299.82,194.68L299.24,194.61L298.67,194.54L298.02,194.47L297.45,194.39L296.87,194.32L296.23,194.32L295.65,194.25L295.08,194.18L294.43,194.11L293.86,194.11L293.28,194.03L292.64,194.03L292.06,193.96L291.49,193.96L290.84,193.89L288.47,193.89L287.82,193.82L286.68,193.82L286.03,193.89L283.66,193.89L283.01,193.96L282.44,193.96L281.86,194.03L281.22,194.03L280.64,194.11L280.07,194.11L279.42,194.18L278.85,194.25L278.27,194.32L277.63,194.32L277.05,194.39L276.48,194.47L275.83,194.54L275.26,194.61L274.68,194.68L274.04,194.75L273.46,194.9L272.89,194.97L272.53,195.04L272.24,195.04L271.88,195.11L271.24,195.11L270.88,195.18L268.58,195.18L268.22,195.11L267.93,195.11L267.57,195.04L267.21,195.04L266.93,194.97L266.57,194.9L266.28,194.9L265.92,194.82L265.56,194.75L265.28,194.68L264.92,194.61L264.63,194.47L264.34,194.39L263.98,194.32L263.7,194.18L263.34,194.11L263.05,193.96L262.76,193.89L262.4,193.75L262.12,193.6L261.54,193.32L261.18,193.17L260.89,193.03L260.61,192.89L260.32,192.74L260.03,192.6L259.75,192.38L259.17,192.1L258.88,191.88L258.6,191.66L258.38,191.52L258.09,191.31L257.81,191.09L256.8,190.37L255.8,189.73L254.79,189.08L253.71,188.58L252.56,188.07L251.49,187.57L249.19,186.85L247.97,186.57L246.82,186.35L245.6,186.14L244.38,186.06L243.16,185.99L241.94,185.99L240.79,186.06L239.57,186.21L238.35,186.42L237.2,186.64L235.98,186.93L234.83,187.28L233.68,187.72L232.6,188.22L231.45,188.72L230.45,189.3L229.37,189.94L228.36,190.66L227.43,191.38L226.5,192.17L225.56,192.96L224.77,193.82L223.91,194.75L223.19,195.69L222.48,196.62L221.76,197.7L221.18,198.7L220.61,199.78L220.11,200.86L219.67,202.01L219.24,203.15L218.88,204.3L218.6,205.52L218.38,206.67L218.24,207.89L218.09,209.12L218.09,211.49L218.17,212.71L218.31,213.93L218.31,214.29L218.38,214.57L218.38,215.29L218.45,215.58L218.45,217.23L218.38,217.59L218.38,218.24L218.31,218.59L218.31,218.88L218.24,219.24L218.24,219.6L218.17,219.89L218.09,220.25L218.02,220.53L217.95,220.89L217.88,221.18L217.81,221.54L217.74,221.83L217.59,222.19L217.52,222.47L217.45,222.83L217.3,223.12L217.16,223.41L217.09,223.77L216.95,224.05L216.8,224.34L216.66,224.7L216.51,224.99L216.37,225.27L216.23,225.56L216.08,225.85L215.94,226.13L215.8,226.42L215.58,226.71L215.44,227L215.22,227.28L215.08,227.57L214.86,227.86L214.72,228.15L214.5,228.36L214.29,228.65L214.07,228.94L213.71,229.37L213.35,229.87L213,230.3L212.57,230.8L212.21,231.31L211.85,231.74L211.13,232.74L210.84,233.24L210.48,233.68L209.76,234.68L209.41,235.18L209.12,235.69L208.76,236.19L208.47,236.69L208.11,237.19L207.83,237.7L207.47,238.2L207.18,238.7L206.82,239.28L206.53,239.78L206.25,240.28L205.96,240.78L205.6,241.36L205.02,242.36L204.74,242.87L204.45,243.44L204.16,243.94L203.88,244.52L203.66,245.02L203.37,245.6L203.09,246.1L202.8,246.67L202.58,247.18L202.3,247.75L202.08,248.25L201.79,248.83L201.58,249.33L201.29,249.9L201.08,250.48L200.86,251.05L200.57,251.56L200.36,252.13L200.14,252.71L199.93,253.28L199.71,253.78L199.57,254.14L199.42,254.43L199.35,254.72L199.21,255L199.06,255.36L198.92,255.65L198.71,255.94L198.56,256.22L198.42,256.51L198.27,256.8L198.06,257.09L197.92,257.37L197.7,257.66L197.56,257.88L197.34,258.16L197.13,258.45L196.91,258.74L196.77,258.95L196.55,259.24L196.34,259.53L196.12,259.74L195.83,259.96L195.62,260.25L195.4,260.46L195.19,260.68L194.97,260.96L194.68,261.18L194.47,261.39L194.18,261.61L193.97,261.83L193.68,262.04L193.39,262.26L193.18,262.47L192.89,262.62L192.6,262.83L192.31,263.05L192.1,263.19L191.81,263.41L191.52,263.55L191.24,263.76L190.95,263.91L190.66,264.05L190.37,264.2L190.02,264.34L189.73,264.48L189.44,264.63L189.15,264.77L188.87,264.91L187.72,265.42L186.64,265.99L185.56,266.57L184.56,267.21L183.55,267.93L182.62,268.65L181.69,269.44L180.82,270.3L179.96,271.16L179.17,272.09L178.45,273.03L177.74,274.03L177.09,275.04L176.52,276.12L175.94,277.19L175.44,278.27L175.01,279.42L174.65,280.57L174.36,281.72L174.07,282.94L173.86,284.16L173.71,285.31L173.57,287.75L173.71,290.19L173.86,291.34L174.07,292.56L174.36,293.78L174.65,294.93L175.01,296.08L175.44,297.23L175.94,298.31L176.52,299.38L177.09,300.46L177.74,301.47L178.45,302.47L179.17,303.41L179.96,304.34L180.82,305.2L181.69,306.06L182.62,306.85L183.55,307.57L184.56,308.29L185.56,308.93L186.64,309.51L187.72,310.08L188.87,310.59L189.15,310.73L189.44,310.87L189.73,311.02L190.02,311.16L190.37,311.3L190.66,311.45L190.95,311.59L191.24,311.74L191.52,311.95L191.81,312.09L192.1,312.31L192.31,312.45L192.6,312.67L192.89,312.88L193.18,313.03L193.39,313.24L193.68,313.46L193.97,313.67L194.18,313.89L194.47,314.11L194.68,314.32L194.97,314.54L195.19,314.82L195.4,315.04L195.62,315.25L195.83,315.54L196.12,315.76L196.34,315.97L196.55,316.26L196.77,316.55L196.91,316.76L197.13,317.05L197.34,317.34L197.56,317.62L197.7,317.84L197.92,318.13L198.06,318.41L198.27,318.7L198.42,318.99L198.56,319.28L198.71,319.56L198.92,319.85L199.06,320.14L199.21,320.5L199.35,320.78L199.42,321.07L199.57,321.36L199.71,321.72L199.93,322.22L200.14,322.79L200.36,323.37L200.57,323.94L200.86,324.45L201.08,325.02L201.29,325.6L201.58,326.17L201.79,326.67L202.08,327.25L202.3,327.75L202.58,328.32L202.8,328.83L203.09,329.4L203.37,329.9L203.66,330.48L203.88,330.98L204.16,331.56L204.45,332.06L204.74,332.63L205.02,333.14L205.6,334.14L205.96,334.72L206.25,335.22L206.53,335.72L206.82,336.22L207.18,336.8L207.47,337.3L207.83,337.8L208.11,338.31L208.47,338.81L208.76,339.31L209.12,339.81L209.41,340.32L209.76,340.82L210.48,341.82L210.84,342.26L211.13,342.76L211.85,343.76L212.21,344.19L212.57,344.7L213,345.2L213.35,345.63L213.71,346.13L214.07,346.56L214.29,346.85L214.5,347.14L214.72,347.35L214.86,347.64L215.08,347.93L215.22,348.22L215.44,348.5L215.58,348.79L215.8,349.08L215.94,349.37L216.08,349.65L216.23,349.94L216.37,350.23L216.51,350.51L216.66,350.8L216.8,351.16L216.95,351.45L217.09,351.73L217.16,352.09L217.3,352.38L217.45,352.67L217.52,353.03L217.59,353.31L217.74,353.67L217.81,353.96L217.88,354.32L217.95,354.61L218.02,354.97L218.09,355.25L218.17,355.61L218.24,355.9L218.24,356.26L218.31,356.62L218.31,356.91L218.38,357.26L218.38,357.91L218.45,358.27L218.45,359.92L218.38,360.21L218.38,360.93L218.31,361.21L218.31,361.57L218.17,362.79L218.09,364.01L218.09,366.38L218.24,367.61L218.38,368.83L218.6,369.98L218.88,371.2L219.24,372.35L219.67,373.49L220.11,374.64L220.61,375.72L221.18,376.8L221.76,377.8L222.48,378.88L223.19,379.81L223.91,380.75L224.77,381.68L225.56,382.54L226.5,383.33L227.43,384.12L228.36,384.84L229.37,385.56L230.45,386.2L231.45,386.78L232.6,387.28L233.68,387.78L234.83,388.22L235.98,388.57L237.2,388.86L238.35,389.08L239.57,389.29L240.79,389.44L241.94,389.51L243.16,389.51L244.38,389.44L245.6,389.36L246.82,389.15L247.97,388.93L249.19,388.65L251.49,387.93L252.56,387.43L253.71,386.92L254.79,386.42L255.8,385.77L256.8,385.13L257.81,384.41L258.09,384.19L258.38,383.98L258.6,383.84L258.88,383.62L259.17,383.4L259.75,383.12L260.03,382.9L260.32,382.76L260.61,382.61L260.89,382.47L261.18,382.33L261.54,382.18L262.12,381.9L262.4,381.75L262.76,381.61L263.05,381.54L263.34,381.39L263.7,381.32L263.98,381.18L264.34,381.11L264.63,381.03L264.92,380.89L265.28,380.82L265.56,380.75L265.92,380.68L266.28,380.6L266.57,380.6L266.93,380.53L267.21,380.46L267.57,380.46L267.93,380.39L268.22,380.39L268.58,380.32L270.88,380.32L271.24,380.39L271.88,380.39L272.24,380.46L272.53,380.46L272.89,380.53L273.46,380.6L274.04,380.75L274.68,380.82L275.26,380.89L275.83,380.96L276.48,381.03L277.05,381.11L277.63,381.18L278.27,381.18L278.85,381.25L279.42,381.32L280.07,381.39L280.64,381.39L281.22,381.47L281.86,381.47L282.44,381.54L283.01,381.54L283.66,381.61L286.03,381.61L286.68,381.68L287.82,381.68L288.47,381.61L290.84,381.61L291.49,381.54L292.06,381.54L292.64,381.47L293.28,381.47L293.86,381.39L294.43,381.39L295.08,381.32L295.65,381.25L296.23,381.18L296.87,381.18L297.45,381.11L298.02,381.03L298.67,380.96L299.24,380.89L299.82,380.82L300.46,380.75L301.04,380.6L301.61,380.53L301.97,380.46L302.26,380.46L302.62,380.39L303.26,380.39L303.62,380.32L305.92,380.32L306.28,380.39L306.57,380.39L306.93,380.46L307.29,380.46L307.57,380.53L307.93,380.6L308.22,380.6L308.58,380.68L308.94,380.75L309.22,380.82L309.58,380.89L309.87,381.03L310.16,381.11L310.52,381.18L310.8,381.32L311.16,381.39L311.45,381.54L311.74,381.61L312.1,381.75L312.38,381.9L312.96,382.18L313.32,382.33L313.61,382.47L313.89,382.61L314.18,382.76L314.47,382.9L314.75,383.12L315.33,383.4L315.62,383.62L315.9,383.84L316.12,383.98L316.41,384.19L316.69,384.41L317.7,385.13L318.7,385.77L319.71,386.42L320.79,386.92L321.94,387.43L323.01,387.93L325.31,388.65L326.53,388.93L327.68,389.15L328.9,389.36L330.12,389.44L331.34,389.51L332.56,389.51L333.71,389.44L334.93,389.29L336.15,389.08L337.3,388.86L338.52,388.57L339.67,388.22L340.82,387.78L341.9,387.28L343.05,386.78L344.05,386.2L345.13,385.56L346.14,384.84L347.07,384.12L348,383.33L348.94,382.54L349.73,381.68L350.59,380.75L351.31,379.81L352.02,378.88L352.74,377.8L353.32,376.8L353.89,375.72L354.39,374.64L354.83,373.49L355.26,372.35L355.62,371.2L355.9,369.98L356.12,368.83L356.26,367.61L356.41,366.38L356.41,364.01L356.33,362.79L356.19,361.57L356.19,361.21L356.12,360.93L356.12,360.21L356.05,359.92L356.05,358.27L356.12,357.91L356.12,357.26L356.19,356.91L356.19,356.62L356.26,356.26L356.26,355.9L356.33,355.61L356.41,355.25L356.48,354.97L356.55,354.61L356.62,354.32L356.69,353.96L356.76,353.67L356.91,353.31L356.98,353.03L357.05,352.67L357.2,352.38L357.34,352.09L357.41,351.73L357.55,351.45L357.7,351.16L357.84,350.8L357.99,350.51L358.13,350.23L358.27,349.94L358.42,349.65L358.56,349.37L358.7,349.08L358.92,348.79L359.06,348.5L359.28,348.22L359.42,347.93L359.64,347.64L359.78,347.35L360,347.14L360.21,346.85L360.43,346.56L360.79,346.13L361.15,345.63L361.5,345.2L361.94,344.7L362.29,344.19L362.65,343.76L363.37,342.76L363.66,342.26L364.02,341.82L364.74,340.82L365.09,340.32L365.38,339.81L365.74,339.31L366.03,338.81L366.39,338.31L366.67,337.8L367.03,337.3L367.32,336.8L367.68,336.22L367.97,335.72L368.25,335.22L368.54,334.72L368.9,334.14L369.48,333.14L369.76,332.63L370.05,332.06L370.34,331.56L370.62,330.98L370.84,330.48L371.13,329.9L371.41,329.4L371.7,328.83L371.92,328.32L372.2,327.75L372.42,327.25L372.71,326.67L372.92,326.17L373.21,325.6L373.43,325.02L373.64,324.45L373.93,323.94L374.14,323.37L374.36,322.79L374.57,322.22L374.79,321.72Z" style="fill:rgb(54,54,54);fill-rule:nonzero;stroke:black;stroke-width:0.07px;"/>
    </g>
    <g id="path28" transform="matrix(-13.8933,-1.06383e-14,-1.06383e-14,13.8933,7183.5,-805.107)">
        <path d="M266.42,217.8L266.57,217.37L266.78,216.87L266.93,216.37L267.14,215.87L267.36,215.43L267.57,214.93L267.79,214.5L268,214.07L268.29,213.57L268.51,213.14L268.79,212.71L269.08,212.28L269.37,211.84L269.73,211.49L270.02,211.05L270.37,210.7L270.66,210.26L271.02,209.91L271.74,209.19L272.17,208.83L272.53,208.47L272.96,208.18L273.32,207.82L273.75,207.54L275.04,206.67L275.47,206.39L275.9,206.17L276.41,205.96L276.84,205.67L277.34,205.45L277.77,205.31L278.27,205.09L278.7,204.88L279.21,204.73L280.21,204.45L280.72,204.3L281.22,204.23L281.72,204.09L282.22,204.02L282.73,203.94L283.73,203.8L284.95,203.8L285.1,203.73L289.4,203.73L289.55,203.8L290.77,203.8L291.77,203.94L292.28,204.02L292.78,204.09L293.28,204.23L293.78,204.3L294.29,204.45L295.29,204.73L295.8,204.88L296.23,205.09L296.73,205.31L297.16,205.45L297.66,205.67L298.09,205.96L298.6,206.17L299.03,206.39L299.46,206.67L300.75,207.54L301.18,207.82L301.54,208.18L301.97,208.47L302.33,208.83L302.76,209.19L303.48,209.91L303.84,210.26L304.13,210.7L304.49,211.05L304.77,211.49L305.13,211.84L305.42,212.28L305.71,212.71L305.99,213.14L306.21,213.57L306.5,214.07L306.71,214.5L306.93,214.93L307.14,215.43L307.36,215.87L307.57,216.37L307.72,216.87L307.93,217.37L308.08,217.8L308.29,218.59L308.87,220.03L309.15,220.75L309.44,221.47L309.8,222.11L310.16,222.83L310.59,223.48L311.02,224.12L311.88,225.42L312.38,226.06L312.82,226.64L313.39,227.21L313.89,227.79L314.47,228.36L314.97,228.86L315.54,229.44L316.19,229.94L316.76,230.37L317.41,230.87L318.06,231.31L318.7,231.74L319.35,232.1L320.07,232.45L320.71,232.81L321.43,233.17L322.87,233.75L323.59,234.03L324.38,234.32L325.1,234.54L325.81,234.68L326.6,234.9L327.39,235.04L328.11,235.18L328.9,235.26L330.48,235.4L332.78,235.4L334.36,235.26L335.08,235.18L336.66,234.9L337.38,234.75L337.88,234.68L338.38,234.54L338.88,234.47L339.39,234.39L339.96,234.32L340.46,234.32L340.97,234.25L342.98,234.25L343.55,234.32L344.05,234.32L344.56,234.39L345.06,234.47L345.56,234.61L346.06,234.68L346.57,234.82L347.07,234.9L347.57,235.04L348.08,235.18L348.51,235.4L349.01,235.54L349.51,235.76L349.94,235.97L350.45,236.19L350.88,236.4L351.38,236.62L351.81,236.91L352.24,237.12L353.1,237.7L353.53,237.98L353.96,238.34L354.32,238.63L354.75,238.99L355.11,239.28L355.47,239.64L355.9,239.99L356.26,240.35L356.55,240.71L356.91,241.14L357.27,241.5L357.55,241.93L357.91,242.36L358.2,242.8L358.49,243.15L358.78,243.66L358.78,243.73L358.99,243.94L358.99,244.09L359.13,244.23L359.21,244.3L359.21,244.45L359.35,244.59L359.35,244.66L359.42,244.73L359.49,244.88L359.57,244.95L359.57,245.02L359.64,245.09L359.71,245.24L359.78,245.31L359.78,245.38L359.85,245.45L359.92,245.6L359.92,245.67L360,245.74L360.07,245.81L360.14,245.96L360.14,246.03L360.28,246.17L360.28,246.31L360.5,246.53L360.5,246.67L360.57,246.75L360.64,246.82L360.64,246.89L360.71,247.03L360.79,247.1L360.79,247.18L360.86,247.25L360.93,247.39L360.93,247.46L361,247.53L361.07,247.61L361.15,247.75L361.15,247.82L361.22,247.89L361.43,248.32L361.65,248.83L361.86,249.26L362.08,249.76L362.29,250.26L362.44,250.69L362.65,251.2L362.8,251.7L362.94,252.2L363.01,252.71L363.16,253.21L363.23,253.71L363.37,254.21L363.44,254.72L363.44,255.22L363.51,255.72L363.51,256.22L363.59,256.8L363.59,257.8L363.51,258.31L363.51,258.81L363.44,259.31L363.44,259.81L363.3,260.39L363.16,261.39L363.01,261.9L362.94,262.4L362.8,262.83L362.65,263.33L362.44,263.84L362.29,264.34L362.08,264.77L361.86,265.27L361.65,265.78L361.43,266.21L361.22,266.64L360.93,267.14L360.71,267.57L360.43,268L359.85,268.86L359.57,269.22L359.21,269.65L358.92,270.08L358.2,270.8L357.7,271.38L357.2,271.95L356.69,272.6L356.19,273.24L355.76,273.82L355.33,274.46L354.97,275.18L354.54,275.83L354.18,276.55L353.82,277.19L353.53,277.91L353.25,278.63L352.96,279.35L352.74,280.14L352.46,280.86L352.24,281.57L352.1,282.36L351.95,283.08L351.67,284.66L351.59,285.45L351.52,286.17L351.52,289.33L351.59,290.05L351.67,290.84L351.95,292.42L352.1,293.14L352.24,293.93L352.46,294.64L352.74,295.36L352.96,296.15L353.25,296.87L353.53,297.59L353.82,298.31L354.18,298.95L354.54,299.67L354.97,300.32L355.33,301.04L355.76,301.68L356.19,302.26L356.69,302.9L357.2,303.55L357.7,304.12L358.2,304.7L358.92,305.42L359.21,305.85L359.57,306.28L359.85,306.64L360.43,307.5L360.71,307.93L360.93,308.36L361.22,308.86L361.43,309.29L361.65,309.72L361.86,310.23L362.08,310.73L362.29,311.16L362.44,311.66L362.65,312.17L362.8,312.67L362.94,313.1L363.01,313.6L363.16,314.11L363.3,315.11L363.44,315.69L363.44,316.19L363.51,316.69L363.51,317.19L363.59,317.7L363.59,318.7L363.51,319.28L363.51,319.78L363.44,320.28L363.44,320.78L363.37,321.29L363.23,321.79L363.16,322.29L363.01,322.79L362.94,323.3L362.8,323.8L362.65,324.3L362.44,324.81L362.29,325.24L362.08,325.74L361.86,326.24L361.65,326.67L361.43,327.18L361.22,327.61L361.15,327.68L361.15,327.75L361.07,327.89L361,327.96L360.93,328.04L360.93,328.11L360.86,328.25L360.79,328.32L360.79,328.4L360.71,328.47L360.64,328.61L360.64,328.68L360.57,328.75L360.5,328.83L360.5,328.97L360.28,329.19L360.28,329.33L360.14,329.47L360.14,329.54L360.07,329.69L360,329.76L359.92,329.83L359.92,329.9L359.85,330.05L359.78,330.12L359.78,330.19L359.71,330.26L359.64,330.41L359.57,330.48L359.57,330.55L359.49,330.62L359.42,330.77L359.35,330.84L359.35,330.91L359.21,331.05L359.21,331.2L359.13,331.27L358.99,331.41L358.99,331.56L358.78,331.77L358.78,331.84L358.49,332.35L358.2,332.7L357.91,333.14L357.55,333.57L357.27,334L356.91,334.36L356.55,334.79L356.26,335.15L355.9,335.51L355.47,335.86L355.11,336.22L354.75,336.51L354.32,336.87L353.96,337.16L353.53,337.52L353.1,337.8L352.24,338.38L351.81,338.59L351.38,338.88L350.88,339.1L350.45,339.31L349.94,339.53L349.51,339.74L349.01,339.96L348.51,340.1L348.08,340.32L347.57,340.46L347.07,340.6L346.57,340.68L346.06,340.82L345.56,340.89L345.06,341.03L344.56,341.11L344.05,341.18L343.55,341.18L342.98,341.25L340.97,341.25L340.46,341.18L339.96,341.18L339.39,341.11L338.88,341.03L338.38,340.96L337.88,340.82L337.38,340.75L336.66,340.6L335.08,340.32L334.36,340.24L332.78,340.1L330.48,340.1L328.9,340.24L328.11,340.32L327.39,340.46L326.6,340.6L325.81,340.82L325.1,340.96L324.38,341.18L323.59,341.47L322.87,341.75L321.43,342.33L320.71,342.69L320.07,343.05L319.35,343.4L318.7,343.76L318.06,344.19L317.41,344.63L316.76,345.13L316.19,345.56L315.54,346.06L314.97,346.64L314.47,347.14L313.89,347.71L313.39,348.29L312.82,348.86L312.38,349.44L311.88,350.08L311.02,351.38L310.59,352.02L310.16,352.67L309.8,353.39L309.44,354.03L309.15,354.75L308.87,355.47L308.29,356.91L308.08,357.7L307.93,358.13L307.72,358.63L307.57,359.13L307.36,359.63L307.14,360.07L306.93,360.57L306.71,361L306.5,361.43L306.21,361.93L305.99,362.36L305.71,362.79L305.42,363.22L305.13,363.66L304.77,364.01L304.49,364.45L304.13,364.8L303.84,365.24L303.48,365.59L302.76,366.31L302.33,366.67L301.97,367.03L301.54,367.32L301.18,367.68L300.75,367.96L299.46,368.83L299.03,369.11L298.6,369.33L298.09,369.54L297.66,369.83L297.16,370.05L296.73,370.19L296.23,370.41L295.8,370.62L295.29,370.77L294.29,371.05L293.78,371.2L293.28,371.27L292.78,371.41L292.28,371.48L291.77,371.56L290.77,371.7L289.55,371.7L289.4,371.77L285.1,371.77L284.95,371.7L283.73,371.7L282.73,371.56L282.22,371.48L281.72,371.41L281.22,371.27L280.72,371.2L280.21,371.05L279.21,370.77L278.7,370.62L278.27,370.41L277.77,370.19L277.34,370.05L276.84,369.83L276.41,369.54L275.9,369.33L275.47,369.11L275.04,368.83L273.75,367.96L273.32,367.68L272.96,367.32L272.53,367.03L272.17,366.67L271.74,366.31L271.02,365.59L270.66,365.24L270.37,364.8L270.02,364.45L269.73,364.01L269.37,363.66L269.08,363.22L268.79,362.79L268.51,362.36L268.29,361.93L268,361.43L267.79,361L267.57,360.57L267.36,360.07L267.14,359.63L266.93,359.13L266.78,358.63L266.57,358.13L266.42,357.7L266.21,356.91L265.63,355.47L265.35,354.75L265.06,354.03L264.7,353.39L264.34,352.67L263.91,352.02L263.48,351.38L262.62,350.08L262.12,349.44L261.68,348.86L261.11,348.29L260.61,347.71L260.03,347.14L259.53,346.64L258.96,346.06L258.31,345.56L257.74,345.13L257.09,344.63L256.44,344.19L255.8,343.76L255.15,343.4L254.43,343.05L253.79,342.69L253.07,342.33L251.63,341.75L250.91,341.47L250.12,341.18L249.4,340.96L248.69,340.82L247.9,340.6L247.11,340.46L246.39,340.32L245.6,340.24L244.02,340.1L241.72,340.1L240.14,340.24L239.42,340.32L237.84,340.6L237.12,340.75L236.62,340.82L236.12,340.96L235.62,341.03L235.11,341.11L234.54,341.18L234.04,341.18L233.53,341.25L231.52,341.25L230.95,341.18L230.45,341.18L229.94,341.11L229.44,341.03L228.94,340.89L228.44,340.82L227.93,340.68L227.43,340.6L226.93,340.46L226.42,340.32L225.99,340.1L225.49,339.96L224.99,339.74L224.56,339.53L224.06,339.31L223.62,339.1L223.12,338.88L222.69,338.59L222.26,338.38L221.4,337.8L220.97,337.52L220.54,337.16L220.18,336.87L219.75,336.51L219.39,336.22L219.03,335.86L218.6,335.51L218.24,335.15L217.95,334.79L217.59,334.36L217.23,334L216.95,333.57L216.59,333.14L216.3,332.7L216.01,332.35L215.72,331.84L215.72,331.77L215.51,331.56L215.51,331.41L215.37,331.27L215.29,331.2L215.29,331.05L215.15,330.91L215.15,330.84L215.08,330.77L215.01,330.62L214.93,330.55L214.93,330.48L214.86,330.41L214.79,330.26L214.72,330.19L214.72,330.12L214.65,330.05L214.58,329.9L214.58,329.83L214.5,329.76L214.43,329.69L214.36,329.54L214.36,329.47L214.22,329.33L214.22,329.19L214,328.97L214,328.83L213.93,328.75L213.86,328.68L213.86,328.61L213.79,328.47L213.71,328.4L213.71,328.32L213.64,328.25L213.57,328.11L213.57,328.04L213.5,327.96L213.43,327.89L213.35,327.75L213.35,327.68L213.28,327.61L213.07,327.18L212.85,326.67L212.64,326.24L212.42,325.74L212.21,325.24L212.06,324.81L211.85,324.3L211.7,323.8L211.56,323.3L211.49,322.79L211.34,322.29L211.27,321.79L211.13,321.29L211.06,320.78L211.06,320.28L210.99,319.78L210.99,319.28L210.91,318.7L210.91,317.7L210.99,317.19L210.99,316.69L211.06,316.19L211.06,315.69L211.2,315.11L211.34,314.11L211.49,313.6L211.56,313.1L211.7,312.67L211.85,312.17L212.06,311.66L212.21,311.16L212.42,310.73L212.64,310.23L212.85,309.72L213.07,309.29L213.28,308.86L213.57,308.36L213.79,307.93L214.07,307.5L214.65,306.64L214.93,306.28L215.29,305.85L215.58,305.42L216.3,304.7L216.8,304.12L217.3,303.55L217.81,302.9L218.31,302.26L218.74,301.68L219.17,301.04L219.53,300.32L219.96,299.67L220.32,298.95L220.68,298.31L220.97,297.59L221.25,296.87L221.54,296.15L221.76,295.36L222.04,294.64L222.26,293.93L222.4,293.14L222.55,292.42L222.83,290.84L222.91,290.05L222.98,289.33L222.98,286.17L222.91,285.45L222.83,284.66L222.55,283.08L222.4,282.36L222.26,281.57L222.04,280.86L221.76,280.14L221.54,279.35L221.25,278.63L220.97,277.91L220.68,277.19L220.32,276.55L219.96,275.83L219.53,275.18L219.17,274.46L218.74,273.82L218.31,273.24L217.81,272.6L217.3,271.95L216.8,271.38L216.3,270.8L215.58,270.08L215.29,269.65L214.93,269.22L214.65,268.86L214.07,268L213.79,267.57L213.57,267.14L213.28,266.64L213.07,266.21L212.85,265.78L212.64,265.27L212.42,264.77L212.21,264.34L212.06,263.84L211.85,263.33L211.7,262.83L211.56,262.4L211.49,261.9L211.34,261.39L211.2,260.39L211.06,259.81L211.06,259.31L210.99,258.81L210.99,258.31L210.91,257.8L210.91,256.8L210.99,256.22L210.99,255.72L211.06,255.22L211.06,254.72L211.13,254.21L211.27,253.71L211.34,253.21L211.49,252.71L211.56,252.2L211.7,251.7L211.85,251.2L212.06,250.69L212.21,250.26L212.42,249.76L212.64,249.26L212.85,248.83L213.07,248.32L213.28,247.89L213.35,247.82L213.35,247.75L213.43,247.61L213.5,247.53L213.57,247.46L213.57,247.39L213.64,247.25L213.71,247.18L213.71,247.1L213.79,247.03L213.86,246.89L213.86,246.82L213.93,246.75L214,246.67L214,246.53L214.22,246.31L214.22,246.17L214.36,246.03L214.36,245.96L214.43,245.81L214.5,245.74L214.58,245.67L214.58,245.6L214.65,245.45L214.72,245.38L214.72,245.31L214.79,245.24L214.86,245.09L214.93,245.02L214.93,244.95L215.01,244.88L215.08,244.73L215.15,244.66L215.15,244.59L215.29,244.45L215.29,244.3L215.37,244.23L215.51,244.09L215.51,243.94L215.72,243.73L215.72,243.66L216.01,243.15L216.3,242.8L216.59,242.36L216.95,241.93L217.23,241.5L217.59,241.14L217.95,240.71L218.24,240.35L218.6,239.99L219.03,239.64L219.39,239.28L219.75,238.99L220.18,238.63L220.54,238.34L220.97,237.98L221.4,237.7L222.26,237.12L222.69,236.91L223.12,236.62L223.62,236.4L224.06,236.19L224.56,235.97L224.99,235.76L225.49,235.54L225.99,235.4L226.42,235.18L226.93,235.04L227.43,234.9L227.93,234.82L228.44,234.68L228.94,234.61L229.44,234.47L229.94,234.39L230.45,234.32L230.95,234.32L231.52,234.25L233.53,234.25L234.04,234.32L234.54,234.32L235.11,234.39L235.62,234.47L236.12,234.54L236.62,234.68L237.12,234.75L237.84,234.9L239.42,235.18L240.14,235.26L241.72,235.4L244.02,235.4L245.6,235.26L246.39,235.18L247.11,235.04L247.9,234.9L248.69,234.68L249.4,234.54L250.12,234.32L250.91,234.03L251.63,233.75L253.07,233.17L253.79,232.81L254.43,232.45L255.15,232.1L255.8,231.74L256.44,231.31L257.09,230.87L257.74,230.37L258.31,229.94L258.96,229.44L259.53,228.86L260.03,228.36L260.61,227.79L261.11,227.21L261.68,226.64L262.12,226.06L262.62,225.42L263.48,224.12L263.91,223.48L264.34,222.83L264.7,222.11L265.06,221.47L265.35,220.75L265.63,220.03L266.21,218.59L266.42,217.8Z" style="fill:rgb(161,134,191);fill-rule:nonzero;stroke:black;stroke-width:0.07px;"/>
    </g>
    <g transform="matrix(0.949696,0,0,0.949696,4297.13,4869.56)">
        <g transform="matrix(13.8137,0,0,13.8137,1629.67,584.515)">
            <path d="M0,-37.978L-45.357,-11.792C-45.877,-11.492 -46.197,-10.937 -46.197,-10.337C-46.197,-9.737 -45.877,-9.182 -45.357,-8.882L-29.829,0.075C-29.573,0.223 -29.284,0.3 -28.989,0.3L-28.554,0.3C-28.259,0.3 -27.97,0.222 -27.714,0.075L1.451,-16.767C1.704,-16.913 1.914,-17.123 2.062,-17.375L2.29,-17.766C2.44,-18.022 2.519,-18.315 2.519,-18.612L2.519,-36.524C2.519,-37.123 2.199,-37.678 1.68,-37.978C1.16,-38.278 0.52,-38.278 0,-37.978" style="fill:rgb(53,53,53);"/>
        </g>
        <g transform="matrix(13.8137,0,0,13.8137,1916.25,1142.09)">
            <path d="M0,-45.325C0.52,-45.025 0.84,-44.471 0.84,-43.871L0.84,-43.87C0.84,-43.27 0.52,-42.715 0,-42.415L-27.936,-26.283C-28.455,-25.983 -28.775,-25.428 -28.775,-24.828L-28.775,7.428C-28.775,8.721 -30.174,9.528 -31.294,8.882L-46.806,-0.073C-47.065,-0.223 -47.279,-0.438 -47.427,-0.698L-47.646,-1.083C-47.79,-1.336 -47.865,-1.622 -47.865,-1.913C-47.865,-1.913 -47.912,-29.775 -47.865,-35.549C-47.862,-35.899 -47.756,-36.256 -47.585,-36.562C-47.408,-36.877 -47.14,-37.239 -46.806,-37.445C-44.874,-38.632 -35.994,-43.686 -35.994,-43.686L-17.643,-54.282C-17.388,-54.43 -17.098,-54.507 -16.803,-54.507L-16.357,-54.507C-16.062,-54.507 -15.773,-54.43 -15.518,-54.282L0,-45.325" style="fill:rgb(53,53,53);"/>
        </g>
        <g transform="matrix(13.8137,0,0,13.8137,1205.68,1024.64)">
            <path d="M0,-28.236C-0.148,-28.494 -0.361,-28.709 -0.619,-28.857L-13.577,-36.332L-13.577,-36.338C-13.577,-36.338 -27.317,-44.394 -30.336,-46.005C-30.734,-46.217 -31.291,-46.217 -31.689,-46.005C-34.708,-44.394 -48.452,-36.338 -48.452,-36.338L-48.452,-36.323L-61.233,-28.942C-61.491,-28.793 -61.704,-28.579 -61.852,-28.32L-62.072,-27.934C-62.217,-27.68 -62.294,-27.393 -62.294,-27.101L-62.294,-9.182C-62.294,-8.582 -61.973,-8.027 -61.453,-7.727C-60.934,-7.427 -60.294,-7.427 -59.774,-7.727L-31.854,-23.846C-31.334,-24.146 -30.694,-24.146 -30.174,-23.846L-19.508,-17.688C-18.989,-17.388 -18.668,-16.834 -18.668,-16.234L-18.668,16.012C-18.668,16.613 -18.347,17.168 -17.826,17.468L-17.823,17.47C-17.304,17.769 -16.665,17.768 -16.146,17.469L-0.619,8.513C-0.361,8.364 -0.148,8.149 0,7.891L0.22,7.505C0.365,7.251 0.442,6.964 0.442,6.672L0.442,-27.017C0.442,-27.31 0.365,-27.597 0.22,-27.851L0,-28.236Z" style="fill:rgb(53,53,53);"/>
        </g>
    </g>
    <g transform="matrix(1,0,0,1,-1051.27,-1063.33)">
        <circle cx="3626.28" cy="3185.43" r="248.975" style="fill:rgb(182,182,182);"/>
    </g>
    <g transform="matrix(1,0,0,1,184.025,-1063.33)">
        <circle cx="3626.28" cy="3185.43" r="248.975" style="fill:rgb(182,182,182);"/>
    </g>
    <g transform="matrix(1,0,0,1,-1051.27,1077.87)">
        <circle cx="3626.28" cy="3185.43" r="248.975" style="fill:rgb(182,182,182);"/>
    </g>
    <g transform="matrix(1,0,0,1,184.025,1077.87)">
        <circle cx="3626.28" cy="3185.43" r="248.975" style="fill:rgb(182,182,182);"/>
    </g>
    <g transform="matrix(1,0,0,1,802.525,7.26792)">
        <circle cx="3626.28" cy="3185.43" r="248.975" style="fill:rgb(182,182,182);"/>
    </g>
    <g transform="matrix(1,0,0,1,-1669.77,7.26792)">
        <circle cx="3626.28" cy="3185.43" r="248.975" style="fill:rgb(182,182,182);"/>
    </g>
</svg>
