<?xml version="1.0" encoding="UTF-8" standalone="no"?>
<!DOCTYPE svg PUBLIC "-//W3C//DTD SVG 1.1//EN" "http://www.w3.org/Graphics/SVG/1.1/DTD/svg11.dtd">
<svg width="100%" height="100%" viewBox="0 0 1750 1750" version="1.1" xmlns="http://www.w3.org/2000/svg" xmlns:xlink="http://www.w3.org/1999/xlink" xml:space="preserve" xmlns:serif="http://www.serif.com/" style="fill-rule:evenodd;clip-rule:evenodd;stroke-linejoin:round;stroke-miterlimit:2;">
    <g transform="matrix(1,0,0,1,-125,-125)">
        <path d="M1791.83,627.237C1789.3,621.875 1784.62,617.838 1778.94,616.132C1773.26,614.416 1767.13,615.199 1762.06,618.28C1739.19,632.163 1712.84,639.5 1685.86,639.5C1634.08,639.5 1587.05,613.092 1560.06,568.859C1556.62,563.218 1550.72,559.535 1544.13,558.925C1537.61,558.343 1531.08,560.856 1526.65,565.768C1498.75,596.799 1458.82,614.593 1417.1,614.593C1335.88,614.593 1269.8,548.515 1269.8,467.29C1269.8,451.637 1272.22,436.294 1277,421.689C1278.86,415.966 1278.18,409.716 1275.11,404.535C1272.05,399.357 1266.9,395.748 1260.98,394.635C1191.56,381.579 1141.17,320.726 1141.17,249.943C1141.17,221.401 1149.34,193.737 1164.79,169.944C1168.61,164.051 1169.23,156.626 1166.42,150.185C1163.6,143.744 1157.74,139.145 1150.82,137.947C1101.32,129.354 1050.58,125 1000,125C766.268,125 546.534,216.015 381.269,381.283C216.012,546.544 125,766.278 125,1000C125,1233.72 216.012,1453.45 381.269,1618.72C546.534,1783.98 766.268,1875 1000,1875C1233.72,1875 1453.45,1783.98 1618.72,1618.72C1783.98,1453.45 1875,1233.72 1875,1000C1875,869.654 1847.02,744.241 1791.83,627.237Z" style="fill:rgb(222,170,112);"/>
        <path d="M1109.05,1471.64C1109.05,1517.79 1071.63,1555.21 1025.48,1555.21C979.319,1555.21 941.901,1517.79 941.901,1471.64C941.901,1470.9 941.937,1470.17 941.957,1469.43C941.937,1468.7 941.901,1467.97 941.901,1467.23C941.901,1423.51 977.344,1388.06 1021.07,1388.06C1021.81,1388.06 1022.54,1388.1 1023.27,1388.12C1024.01,1388.1 1024.74,1388.06 1025.48,1388.06C1071.63,1388.06 1109.05,1425.48 1109.05,1471.64Z" style="fill:rgb(78,21,4);fill-opacity:0.17;"/>
        <path d="M582.729,1334.08C582.729,1380.24 545.311,1417.66 499.154,1417.66C452.997,1417.66 415.579,1380.24 415.579,1334.08C415.579,1333.34 415.635,1332.61 415.635,1331.88C415.634,1331.14 415.579,1330.41 415.579,1329.67C415.579,1285.95 451.023,1250.51 494.745,1250.51C495.484,1250.51 496.215,1250.54 496.949,1250.56C497.685,1250.54 498.415,1250.51 499.154,1250.51C545.311,1250.51 582.729,1287.92 582.729,1334.08Z" style="fill:rgb(78,21,4);fill-opacity:0.17;"/>
        <path d="M1453.39,1238.1C1453.39,1271.73 1426.12,1299 1392.49,1299C1358.86,1299 1331.6,1271.73 1331.6,1238.1C1331.6,1237.48 1331.67,1236.88 1331.69,1236.26C1331.67,1235.64 1331.6,1235.04 1331.6,1234.41C1331.6,1209.21 1348.34,1187.94 1371.31,1181.07C1377.92,1178.61 1385.03,1177.21 1392.49,1177.21C1426.12,1177.21 1453.39,1204.47 1453.39,1238.1Z" style="fill:rgb(78,21,4);fill-opacity:0.17;"/>
        <path d="M941.901,1104.27C941.901,1137.9 914.637,1165.16 881.004,1165.16C847.373,1165.16 820.107,1137.9 820.107,1104.27C820.107,1103.64 820.182,1103.04 820.201,1102.42C820.18,1101.8 820.107,1101.2 820.107,1100.58C820.107,1075.38 836.855,1054.11 859.821,1047.23C866.427,1044.78 873.544,1043.37 881.004,1043.37C914.637,1043.37 941.901,1070.64 941.901,1104.27Z" style="fill:rgb(78,21,4);fill-opacity:0.17;"/>
        <path d="M397.843,934.418C397.843,933.795 397.918,933.19 397.937,932.573C397.916,931.955 397.843,931.35 397.843,930.727C397.843,905.525 414.592,884.256 437.558,877.384C444.164,874.928 451.28,873.521 458.74,873.521C492.372,873.521 519.636,900.785 519.636,934.418C519.636,968.05 492.372,995.314 458.74,995.314C425.108,995.314 397.843,968.05 397.843,934.418Z" style="fill:rgb(78,21,4);fill-opacity:0.17;"/>
        <path d="M1713.9,932.321C1713.9,967 1685.79,995.113 1651.11,995.113C1616.43,995.113 1588.32,967 1588.32,932.321C1588.32,931.766 1588.34,931.217 1588.36,930.664C1588.34,930.112 1588.32,929.564 1588.32,929.008C1588.32,896.159 1614.95,869.529 1647.79,869.529C1648.35,869.529 1648.9,869.571 1649.45,869.571C1650,869.571 1650.55,869.529 1651.11,869.529C1685.79,869.529 1713.9,897.642 1713.9,932.321Z" style="fill:rgb(78,21,4);fill-opacity:0.17;"/>
        <path d="M1330.7,829.553C1330.7,875.71 1293.28,913.127 1247.13,913.127C1200.97,913.127 1163.55,875.71 1163.55,829.553C1163.55,828.813 1163.59,828.083 1163.61,827.347C1163.59,826.613 1163.55,825.882 1163.55,825.142C1163.55,781.421 1198.99,745.977 1242.72,745.977C1243.46,745.977 1244.19,746.032 1244.92,746.033C1245.66,746.033 1246.39,745.977 1247.13,745.977C1293.28,745.977 1330.7,783.395 1330.7,829.553Z" style="fill:rgb(78,21,4);fill-opacity:0.17;"/>
        <path d="M796.352,674.064C796.352,720.222 758.934,757.639 712.777,757.639C666.619,757.639 629.201,720.222 629.201,674.064C629.201,673.325 629.239,672.594 629.258,671.86C629.237,671.125 629.201,670.394 629.201,669.654C629.201,625.933 664.645,590.49 708.366,590.49C709.107,590.49 709.837,590.545 710.572,590.545C711.306,590.545 712.037,590.49 712.777,590.49C758.934,590.49 796.352,627.907 796.352,674.064Z" style="fill:rgb(78,21,4);fill-opacity:0.17;"/>
        <path d="M878.756,437.445C878.756,436.822 878.831,436.218 878.849,435.599C878.829,434.982 878.756,434.377 878.756,433.754C878.756,408.553 895.503,387.285 918.469,380.411C925.075,377.955 932.19,376.547 939.653,376.547C973.284,376.547 1000.55,403.812 1000.55,437.445C1000.55,471.077 973.284,498.342 939.653,498.342C906.019,498.342 878.756,471.077 878.756,437.445Z" style="fill:rgb(78,21,4);fill-opacity:0.17;"/>
    </g>
</svg>
