<?xml version="1.0" encoding="UTF-8" standalone="no"?><!DOCTYPE svg PUBLIC "-//W3C//DTD SVG 1.1//EN" "http://www.w3.org/Graphics/SVG/1.1/DTD/svg11.dtd"><svg width="100%" height="100%" viewBox="0 0 1583 473" version="1.1" xmlns="http://www.w3.org/2000/svg" xmlns:xlink="http://www.w3.org/1999/xlink" xml:space="preserve" xmlns:serif="http://www.serif.com/" style="fill-rule:evenodd;clip-rule:evenodd;stroke-linejoin:round;stroke-miterlimit:2;"><g transform="matrix(1,0,0,1,-903.869,-300.104)"><g transform="matrix(1.02474,0,0,1.03375,-65.3067,-130.295)"><g transform="matrix(0.8586,0,0,0.8586,1238.61,30.526)"><g transform="matrix(60,0,0,60,977.562,752.189)"><path d="M0.524,-0L0.572,-0L0.295,-0.687L0.014,-0L0.062,-0L0.151,-0.219L0.435,-0.219L0.524,-0ZM0.167,-0.259L0.294,-0.575L0.419,-0.259L0.167,-0.259Z" style="fill:rgb(202,69,42);fill-rule:nonzero;"/></g><g transform="matrix(60,0,0,60,1012.72,752.189)"><path d="M0.09,-0L0.273,-0C0.394,-0 0.48,-0.07 0.48,-0.187C0.48,-0.273 0.429,-0.34 0.342,-0.354C0.386,-0.381 0.42,-0.428 0.42,-0.5C0.42,-0.6 0.352,-0.667 0.236,-0.667L0.09,-0.667L0.09,-0ZM0.134,-0.627L0.219,-0.627C0.254,-0.627 0.297,-0.625 0.33,-0.599C0.352,-0.581 0.375,-0.548 0.375,-0.495C0.375,-0.449 0.358,-0.415 0.331,-0.393C0.302,-0.369 0.274,-0.365 0.24,-0.365L0.134,-0.365L0.134,-0.627ZM0.134,-0.325L0.238,-0.325C0.312,-0.325 0.345,-0.314 0.363,-0.306C0.413,-0.283 0.434,-0.242 0.434,-0.182C0.434,-0.151 0.427,-0.112 0.391,-0.08C0.346,-0.04 0.291,-0.04 0.246,-0.04L0.134,-0.04L0.134,-0.325Z" style="fill:rgb(202,69,42);fill-rule:nonzero;"/></g><g transform="matrix(60,0,0,60,1044.76,752.189)"><path d="M0.42,-0L0.202,-0.315C0.217,-0.315 0.249,-0.316 0.284,-0.328C0.367,-0.356 0.396,-0.424 0.396,-0.49C0.396,-0.542 0.379,-0.597 0.327,-0.633C0.283,-0.663 0.237,-0.667 0.186,-0.667L0.09,-0.667L0.09,-0L0.134,-0L0.134,-0.315L0.154,-0.315L0.37,-0L0.42,-0ZM0.134,-0.627L0.189,-0.627C0.215,-0.627 0.263,-0.623 0.291,-0.607C0.317,-0.593 0.35,-0.558 0.35,-0.491C0.35,-0.405 0.293,-0.355 0.198,-0.355L0.134,-0.355L0.134,-0.627Z" style="fill:rgb(202,69,42);fill-rule:nonzero;"/></g><g transform="matrix(60,0,0,60,1072.84,752.189)"><path d="M0.41,-0.667L0.09,-0.667L0.09,-0L0.41,-0L0.41,-0.04L0.134,-0.04L0.134,-0.345L0.404,-0.345L0.404,-0.385L0.134,-0.385L0.134,-0.627L0.41,-0.627L0.41,-0.667Z" style="fill:rgb(202,69,42);fill-rule:nonzero;"/></g><g transform="matrix(60,0,0,60,1100.68,752.189)"><path d="M0.624,-0.589C0.604,-0.608 0.527,-0.676 0.4,-0.676C0.208,-0.676 0.054,-0.524 0.054,-0.332C0.054,-0.146 0.202,0.011 0.402,0.011C0.474,0.011 0.556,-0.012 0.624,-0.072L0.624,-0.13C0.556,-0.056 0.467,-0.029 0.4,-0.029C0.265,-0.029 0.1,-0.132 0.1,-0.33C0.1,-0.499 0.228,-0.636 0.399,-0.636C0.485,-0.636 0.567,-0.598 0.624,-0.531L0.624,-0.589Z" style="fill:rgb(202,69,42);fill-rule:nonzero;"/></g><g transform="matrix(60,0,0,60,1141.36,752.189)"><path d="M0.134,-0.667L0.09,-0.667L0.09,-0L0.134,-0L0.134,-0.344L0.538,-0.344L0.538,-0L0.582,-0L0.582,-0.667L0.538,-0.667L0.538,-0.384L0.134,-0.384L0.134,-0.667Z" style="fill:rgb(202,69,42);fill-rule:nonzero;"/></g><g transform="matrix(60,0,0,60,1181.68,752.189)"><path d="M0.134,-0L0.134,-0.569L0.694,0.017L0.694,-0.667L0.65,-0.667L0.65,-0.088L0.09,-0.674L0.09,-0L0.134,-0Z" style="fill:rgb(202,69,42);fill-rule:nonzero;"/></g><g transform="matrix(60,0,0,60,1228.72,752.189)"><path d="M0.09,-0.667L0.09,-0.25C0.09,-0.177 0.094,-0.129 0.128,-0.079C0.178,-0.006 0.257,0.011 0.317,0.011C0.377,0.011 0.456,-0.006 0.506,-0.079C0.54,-0.129 0.544,-0.177 0.544,-0.25L0.544,-0.667L0.5,-0.667L0.5,-0.25C0.5,-0.187 0.497,-0.146 0.472,-0.106C0.433,-0.043 0.36,-0.029 0.317,-0.029C0.274,-0.029 0.201,-0.043 0.162,-0.106C0.137,-0.146 0.134,-0.187 0.134,-0.25L0.134,-0.667L0.09,-0.667Z" style="fill:rgb(202,69,42);fill-rule:nonzero;"/></g><g transform="matrix(60,0,0,60,1266.76,752.189)"><path d="M0.134,-0L0.134,-0.569L0.694,0.017L0.694,-0.667L0.65,-0.667L0.65,-0.088L0.09,-0.674L0.09,-0L0.134,-0Z" style="fill:rgb(202,69,42);fill-rule:nonzero;"/></g><g transform="matrix(60,0,0,60,1313.8,752.189)"><path d="M0.438,-0.28L0.674,-0.28C0.672,-0.237 0.656,-0.182 0.63,-0.142C0.594,-0.087 0.512,-0.029 0.398,-0.029C0.226,-0.029 0.1,-0.163 0.1,-0.33C0.1,-0.5 0.23,-0.636 0.401,-0.636C0.484,-0.636 0.55,-0.601 0.592,-0.566C0.61,-0.551 0.637,-0.524 0.656,-0.492L0.691,-0.52C0.664,-0.558 0.639,-0.582 0.611,-0.604C0.559,-0.644 0.496,-0.676 0.402,-0.676C0.208,-0.676 0.054,-0.53 0.054,-0.332C0.054,-0.133 0.203,0.011 0.399,0.011C0.501,0.011 0.591,-0.026 0.65,-0.101C0.705,-0.171 0.718,-0.259 0.718,-0.32L0.438,-0.32L0.438,-0.28Z" style="fill:rgb(202,69,42);fill-rule:nonzero;"/></g></g><g transform="matrix(2.10632,0,0,2.10632,-775.765,-315.644)"><g transform="matrix(60,0,0,60,1022.24,485.171)"><path d="M0.014,-0.667L0.258,0.027L0.496,-0.667L0.448,-0.667L0.258,-0.099L0.062,-0.667L0.014,-0.667Z" style="fill:rgb(202,69,42);fill-rule:nonzero;"/></g><g transform="matrix(60,0,0,60,1052.84,485.171)"><path d="M0.41,-0.667L0.09,-0.667L0.09,-0L0.41,-0L0.41,-0.04L0.134,-0.04L0.134,-0.345L0.404,-0.345L0.404,-0.385L0.134,-0.385L0.134,-0.627L0.41,-0.627L0.41,-0.667Z" style="fill:rgb(202,69,42);fill-rule:nonzero;"/></g><g transform="matrix(60,0,0,60,1080.68,485.171)"><path d="M0.42,-0L0.202,-0.315C0.217,-0.315 0.249,-0.316 0.284,-0.328C0.367,-0.356 0.396,-0.424 0.396,-0.49C0.396,-0.542 0.379,-0.597 0.327,-0.633C0.283,-0.663 0.237,-0.667 0.186,-0.667L0.09,-0.667L0.09,-0L0.134,-0L0.134,-0.315L0.154,-0.315L0.37,-0L0.42,-0ZM0.134,-0.627L0.189,-0.627C0.215,-0.627 0.263,-0.623 0.291,-0.607C0.317,-0.593 0.35,-0.558 0.35,-0.491C0.35,-0.405 0.293,-0.355 0.198,-0.355L0.134,-0.355L0.134,-0.627Z" style="fill:rgb(202,69,42);fill-rule:nonzero;"/></g><g transform="matrix(60,0,0,60,1108.76,485.171)"><path d="M0.09,-0.667L0.09,-0L0.32,-0L0.32,-0.04L0.134,-0.04L0.134,-0.667L0.09,-0.667Z" style="fill:rgb(202,69,42);fill-rule:nonzero;"/></g><g transform="matrix(60,0,0,60,1128.8,485.171)"><path d="M0.41,-0.667L0.09,-0.667L0.09,-0L0.41,-0L0.41,-0.04L0.134,-0.04L0.134,-0.345L0.404,-0.345L0.404,-0.385L0.134,-0.385L0.134,-0.627L0.41,-0.627L0.41,-0.667Z" style="fill:rgb(202,69,42);fill-rule:nonzero;"/></g><g transform="matrix(60,0,0,60,1156.64,485.171)"><path d="M0.404,-0.627L0.404,-0.667L0.014,-0.667L0.014,-0.627L0.187,-0.627L0.187,-0L0.231,-0L0.231,-0.627L0.404,-0.627Z" style="fill:rgb(202,69,42);fill-rule:nonzero;"/></g><g transform="matrix(60,0,0,60,1181.72,485.171)"><path d="M0.517,-0.667L0.076,-0.667L0.076,-0.627L0.443,-0.627L0.037,-0L0.506,-0L0.506,-0.04L0.111,-0.04L0.517,-0.667Z" style="fill:rgb(202,69,42);fill-rule:nonzero;"/></g><g transform="matrix(60,0,0,60,1214.96,485.171)"><path d="M0.09,-0.667L0.09,-0.25C0.09,-0.177 0.094,-0.129 0.128,-0.079C0.178,-0.006 0.257,0.011 0.317,0.011C0.377,0.011 0.456,-0.006 0.506,-0.079C0.54,-0.129 0.544,-0.177 0.544,-0.25L0.544,-0.667L0.5,-0.667L0.5,-0.25C0.5,-0.187 0.497,-0.146 0.472,-0.106C0.433,-0.043 0.36,-0.029 0.317,-0.029C0.274,-0.029 0.201,-0.043 0.162,-0.106C0.137,-0.146 0.134,-0.187 0.134,-0.25L0.134,-0.667L0.09,-0.667Z" style="fill:rgb(202,69,42);fill-rule:nonzero;"/></g><g transform="matrix(60,0,0,60,1253,485.171)"><path d="M0.134,-0L0.134,-0.569L0.694,0.017L0.694,-0.667L0.65,-0.667L0.65,-0.088L0.09,-0.674L0.09,-0L0.134,-0Z" style="fill:rgb(202,69,42);fill-rule:nonzero;"/></g><g transform="matrix(60,0,0,60,1300.04,485.171)"><path d="M0.438,-0.28L0.674,-0.28C0.672,-0.237 0.656,-0.182 0.63,-0.142C0.594,-0.087 0.512,-0.029 0.398,-0.029C0.226,-0.029 0.1,-0.163 0.1,-0.33C0.1,-0.5 0.23,-0.636 0.401,-0.636C0.484,-0.636 0.55,-0.601 0.592,-0.566C0.61,-0.551 0.637,-0.524 0.656,-0.492L0.691,-0.52C0.664,-0.558 0.639,-0.582 0.611,-0.604C0.559,-0.644 0.496,-0.676 0.402,-0.676C0.208,-0.676 0.054,-0.53 0.054,-0.332C0.054,-0.133 0.203,0.011 0.399,0.011C0.501,0.011 0.591,-0.026 0.65,-0.101C0.705,-0.171 0.718,-0.259 0.718,-0.32L0.438,-0.32L0.438,-0.28Z" style="fill:rgb(202,69,42);fill-rule:nonzero;"/></g></g><g transform="matrix(1.9669,0,0,1.9669,-1345.15,-303.363)"><g transform="matrix(60,0,0,60,1331.93,462.684)"><path d="M0.426,-0.581C0.392,-0.644 0.331,-0.676 0.264,-0.676C0.145,-0.676 0.093,-0.587 0.093,-0.51C0.093,-0.484 0.099,-0.459 0.114,-0.434C0.137,-0.396 0.17,-0.378 0.236,-0.346C0.291,-0.319 0.33,-0.299 0.349,-0.288C0.4,-0.257 0.414,-0.219 0.414,-0.183C0.414,-0.095 0.343,-0.029 0.253,-0.029C0.207,-0.029 0.158,-0.048 0.128,-0.086C0.118,-0.098 0.101,-0.124 0.092,-0.15L0.054,-0.132C0.06,-0.115 0.071,-0.089 0.097,-0.059C0.122,-0.03 0.166,0.011 0.252,0.011C0.366,0.011 0.46,-0.072 0.46,-0.184C0.46,-0.258 0.418,-0.293 0.389,-0.313C0.355,-0.337 0.322,-0.351 0.256,-0.383C0.189,-0.416 0.139,-0.44 0.139,-0.512C0.139,-0.579 0.184,-0.636 0.263,-0.636C0.281,-0.636 0.353,-0.634 0.394,-0.554L0.426,-0.581Z" style="fill:rgb(202,69,42);fill-rule:nonzero;"/></g><g transform="matrix(60,0,0,60,1362.77,462.684)"><rect x="0.09" y="-0.667" width="0.044" height="0.667" style="fill:rgb(202,69,42);fill-rule:nonzero;"/></g><g transform="matrix(60,0,0,60,1376.21,462.684)"><path d="M0.624,-0.589C0.604,-0.608 0.527,-0.676 0.4,-0.676C0.208,-0.676 0.054,-0.524 0.054,-0.332C0.054,-0.146 0.202,0.011 0.402,0.011C0.474,0.011 0.556,-0.012 0.624,-0.072L0.624,-0.13C0.556,-0.056 0.467,-0.029 0.4,-0.029C0.265,-0.029 0.1,-0.132 0.1,-0.33C0.1,-0.499 0.228,-0.636 0.399,-0.636C0.485,-0.636 0.567,-0.598 0.624,-0.531L0.624,-0.589Z" style="fill:rgb(202,69,42);fill-rule:nonzero;"/></g><g transform="matrix(60,0,0,60,1416.89,462.684)"><path d="M0.134,-0.667L0.09,-0.667L0.09,-0L0.134,-0L0.134,-0.344L0.538,-0.344L0.538,-0L0.582,-0L0.582,-0.667L0.538,-0.667L0.538,-0.384L0.134,-0.384L0.134,-0.667Z" style="fill:rgb(202,69,42);fill-rule:nonzero;"/></g><g transform="matrix(60,0,0,60,1457.21,462.684)"><path d="M0.41,-0.667L0.09,-0.667L0.09,-0L0.41,-0L0.41,-0.04L0.134,-0.04L0.134,-0.345L0.404,-0.345L0.404,-0.385L0.134,-0.385L0.134,-0.627L0.41,-0.627L0.41,-0.667Z" style="fill:rgb(202,69,42);fill-rule:nonzero;"/></g><g transform="matrix(60,0,0,60,1485.05,462.684)"><path d="M0.42,-0L0.202,-0.315C0.217,-0.315 0.249,-0.316 0.284,-0.328C0.367,-0.356 0.396,-0.424 0.396,-0.49C0.396,-0.542 0.379,-0.597 0.327,-0.633C0.283,-0.663 0.237,-0.667 0.186,-0.667L0.09,-0.667L0.09,-0L0.134,-0L0.134,-0.315L0.154,-0.315L0.37,-0L0.42,-0ZM0.134,-0.627L0.189,-0.627C0.215,-0.627 0.263,-0.623 0.291,-0.607C0.317,-0.593 0.35,-0.558 0.35,-0.491C0.35,-0.405 0.293,-0.355 0.198,-0.355L0.134,-0.355L0.134,-0.627Z" style="fill:rgb(202,69,42);fill-rule:nonzero;"/></g><g transform="matrix(60,0,0,60,1513.13,462.684)"><path d="M0.134,-0.667L0.09,-0.667L0.09,-0L0.134,-0L0.134,-0.344L0.538,-0.344L0.538,-0L0.582,-0L0.582,-0.667L0.538,-0.667L0.538,-0.384L0.134,-0.384L0.134,-0.667Z" style="fill:rgb(202,69,42);fill-rule:nonzero;"/></g><g transform="matrix(60,0,0,60,1553.45,462.684)"><path d="M0.41,-0.667L0.09,-0.667L0.09,-0L0.41,-0L0.41,-0.04L0.134,-0.04L0.134,-0.345L0.404,-0.345L0.404,-0.385L0.134,-0.385L0.134,-0.627L0.41,-0.627L0.41,-0.667Z" style="fill:rgb(202,69,42);fill-rule:nonzero;"/></g><g transform="matrix(60,0,0,60,1581.29,462.684)"><rect x="0.09" y="-0.667" width="0.044" height="0.667" style="fill:rgb(202,69,42);fill-rule:nonzero;"/></g><g transform="matrix(60,0,0,60,1594.73,462.684)"><path d="M0.404,-0.627L0.404,-0.667L0.014,-0.667L0.014,-0.627L0.187,-0.627L0.187,-0L0.231,-0L0.231,-0.627L0.404,-0.627Z" style="fill:rgb(202,69,42);fill-rule:nonzero;"/></g></g><g transform="matrix(1.43245,0,0,1.43245,199.607,-154.526)"><g transform="matrix(60,0,0,60,1296.32,543.6)"><path d="M0.438,-0.28L0.674,-0.28C0.672,-0.237 0.656,-0.182 0.63,-0.142C0.594,-0.087 0.512,-0.029 0.398,-0.029C0.226,-0.029 0.1,-0.163 0.1,-0.33C0.1,-0.5 0.23,-0.636 0.401,-0.636C0.484,-0.636 0.55,-0.601 0.592,-0.566C0.61,-0.551 0.637,-0.524 0.656,-0.492L0.691,-0.52C0.664,-0.558 0.639,-0.582 0.611,-0.604C0.559,-0.644 0.496,-0.676 0.402,-0.676C0.208,-0.676 0.054,-0.53 0.054,-0.332C0.054,-0.133 0.203,0.011 0.399,0.011C0.501,0.011 0.591,-0.026 0.65,-0.101C0.705,-0.171 0.718,-0.259 0.718,-0.32L0.438,-0.32L0.438,-0.28Z" style="fill:rgb(202,69,42);fill-rule:nonzero;"/></g><g transform="matrix(60,0,0,60,1342.64,543.6)"><path d="M0.42,-0L0.202,-0.315C0.217,-0.315 0.249,-0.316 0.284,-0.328C0.367,-0.356 0.396,-0.424 0.396,-0.49C0.396,-0.542 0.379,-0.597 0.327,-0.633C0.283,-0.663 0.237,-0.667 0.186,-0.667L0.09,-0.667L0.09,-0L0.134,-0L0.134,-0.315L0.154,-0.315L0.37,-0L0.42,-0ZM0.134,-0.627L0.189,-0.627C0.215,-0.627 0.263,-0.623 0.291,-0.607C0.317,-0.593 0.35,-0.558 0.35,-0.491C0.35,-0.405 0.293,-0.355 0.198,-0.355L0.134,-0.355L0.134,-0.627Z" style="fill:rgb(202,69,42);fill-rule:nonzero;"/></g><g transform="matrix(60,0,0,60,1368.86,543.6)"><path d="M0.524,-0L0.572,-0L0.295,-0.687L0.014,-0L0.062,-0L0.151,-0.219L0.435,-0.219L0.524,-0ZM0.167,-0.259L0.294,-0.575L0.419,-0.259L0.167,-0.259Z" style="fill:rgb(202,69,42);fill-rule:nonzero;"/></g><g transform="matrix(60,0,0,60,1402.82,543.6)"><path d="M0.09,-0.667L0.09,-0.25C0.09,-0.177 0.094,-0.129 0.128,-0.079C0.178,-0.006 0.257,0.011 0.317,0.011C0.377,0.011 0.456,-0.006 0.506,-0.079C0.54,-0.129 0.544,-0.177 0.544,-0.25L0.544,-0.667L0.5,-0.667L0.5,-0.25C0.5,-0.187 0.497,-0.146 0.472,-0.106C0.433,-0.043 0.36,-0.029 0.317,-0.029C0.274,-0.029 0.201,-0.043 0.162,-0.106C0.137,-0.146 0.134,-0.187 0.134,-0.25L0.134,-0.667L0.09,-0.667Z" style="fill:rgb(202,69,42);fill-rule:nonzero;"/></g><g transform="matrix(60,0,0,60,1438.34,543.6)"><path d="M0.517,-0.667L0.076,-0.667L0.076,-0.627L0.443,-0.627L0.037,-0L0.506,-0L0.506,-0.04L0.111,-0.04L0.517,-0.667Z" style="fill:rgb(202,69,42);fill-rule:nonzero;"/></g><g transform="matrix(60,0,0,60,1469.06,543.6)"><path d="M0.4,-0.676C0.205,-0.676 0.054,-0.524 0.054,-0.332C0.054,-0.14 0.204,0.011 0.4,0.011C0.595,0.011 0.746,-0.14 0.746,-0.332C0.746,-0.524 0.595,-0.676 0.4,-0.676ZM0.4,-0.029C0.228,-0.029 0.1,-0.162 0.1,-0.332C0.1,-0.503 0.228,-0.636 0.4,-0.636C0.572,-0.636 0.7,-0.503 0.7,-0.332C0.7,-0.162 0.572,-0.029 0.4,-0.029Z" style="fill:rgb(202,69,42);fill-rule:nonzero;"/></g><g transform="matrix(60,0,0,60,1517.06,543.6)"><path d="M0.134,-0L0.134,-0.569L0.694,0.017L0.694,-0.667L0.65,-0.667L0.65,-0.088L0.09,-0.674L0.09,-0L0.134,-0Z" style="fill:rgb(202,69,42);fill-rule:nonzero;"/></g><g transform="matrix(60,0,0,60,1564.1,543.6)"><path d="M0.41,-0.667L0.09,-0.667L0.09,-0L0.41,-0L0.41,-0.04L0.134,-0.04L0.134,-0.345L0.404,-0.345L0.404,-0.385L0.134,-0.385L0.134,-0.627L0.41,-0.627L0.41,-0.667Z" style="fill:rgb(202,69,42);fill-rule:nonzero;"/></g></g><g transform="matrix(1,0,0,1,1.90503,-32.0828)"><g transform="matrix(60,0,0,60,1850.04,639.406)"><path d="M0.517,-0.667L0.076,-0.667L0.076,-0.627L0.443,-0.627L0.037,-0L0.506,-0L0.506,-0.04L0.111,-0.04L0.517,-0.667Z" style="fill:rgb(202,69,42);fill-rule:nonzero;"/></g><g transform="matrix(60,0,0,60,1883.28,639.406)"><path d="M0.09,-0.667L0.09,-0.25C0.09,-0.177 0.094,-0.129 0.128,-0.079C0.178,-0.006 0.257,0.011 0.317,0.011C0.377,0.011 0.456,-0.006 0.506,-0.079C0.54,-0.129 0.544,-0.177 0.544,-0.25L0.544,-0.667L0.5,-0.667L0.5,-0.25C0.5,-0.187 0.497,-0.146 0.472,-0.106C0.433,-0.043 0.36,-0.029 0.317,-0.029C0.274,-0.029 0.201,-0.043 0.162,-0.106C0.137,-0.146 0.134,-0.187 0.134,-0.25L0.134,-0.667L0.09,-0.667Z" style="fill:rgb(202,69,42);fill-rule:nonzero;"/></g><g transform="matrix(60,0,0,60,1921.32,639.406)"><path d="M0.404,-0.627L0.404,-0.667L0.014,-0.667L0.014,-0.627L0.187,-0.627L0.187,-0L0.231,-0L0.231,-0.627L0.404,-0.627Z" style="fill:rgb(202,69,42);fill-rule:nonzero;"/></g><g transform="matrix(60,0,0,60,1946.4,639.406)"><path d="M0.42,-0L0.202,-0.315C0.217,-0.315 0.249,-0.316 0.284,-0.328C0.367,-0.356 0.396,-0.424 0.396,-0.49C0.396,-0.542 0.379,-0.597 0.327,-0.633C0.283,-0.663 0.237,-0.667 0.186,-0.667L0.09,-0.667L0.09,-0L0.134,-0L0.134,-0.315L0.154,-0.315L0.37,-0L0.42,-0ZM0.134,-0.627L0.189,-0.627C0.215,-0.627 0.263,-0.623 0.291,-0.607C0.317,-0.593 0.35,-0.558 0.35,-0.491C0.35,-0.405 0.293,-0.355 0.198,-0.355L0.134,-0.355L0.134,-0.627Z" style="fill:rgb(202,69,42);fill-rule:nonzero;"/></g><g transform="matrix(60,0,0,60,1974.48,639.406)"><rect x="0.09" y="-0.667" width="0.044" height="0.667" style="fill:rgb(202,69,42);fill-rule:nonzero;"/></g><g transform="matrix(60,0,0,60,1987.92,639.406)"><path d="M0.404,-0.627L0.404,-0.667L0.014,-0.667L0.014,-0.627L0.187,-0.627L0.187,-0L0.231,-0L0.231,-0.627L0.404,-0.627Z" style="fill:rgb(202,69,42);fill-rule:nonzero;"/></g><g transform="matrix(60,0,0,60,2014.86,639.406)"><path d="M0.404,-0.627L0.404,-0.667L0.014,-0.667L0.014,-0.627L0.187,-0.627L0.187,-0L0.231,-0L0.231,-0.627L0.404,-0.627Z" style="fill:rgb(202,69,42);fill-rule:nonzero;"/></g></g><g transform="matrix(1.83921,0,0,1.83921,-1490.58,-750.107)"><g transform="matrix(60,0,0,60,1411.39,684.277)"><path d="M0.438,-0.28L0.674,-0.28C0.672,-0.237 0.656,-0.182 0.63,-0.142C0.594,-0.087 0.512,-0.029 0.398,-0.029C0.226,-0.029 0.1,-0.163 0.1,-0.33C0.1,-0.5 0.23,-0.636 0.401,-0.636C0.484,-0.636 0.55,-0.601 0.592,-0.566C0.61,-0.551 0.637,-0.524 0.656,-0.492L0.691,-0.52C0.664,-0.558 0.639,-0.582 0.611,-0.604C0.559,-0.644 0.496,-0.676 0.402,-0.676C0.208,-0.676 0.054,-0.53 0.054,-0.332C0.054,-0.133 0.203,0.011 0.399,0.011C0.501,0.011 0.591,-0.026 0.65,-0.101C0.705,-0.171 0.718,-0.259 0.718,-0.32L0.438,-0.32L0.438,-0.28Z" style="fill:rgb(202,69,42);fill-rule:nonzero;"/></g><g transform="matrix(60,0,0,60,1457.71,684.277)"><path d="M0.41,-0.667L0.09,-0.667L0.09,-0L0.41,-0L0.41,-0.04L0.134,-0.04L0.134,-0.345L0.404,-0.345L0.404,-0.385L0.134,-0.385L0.134,-0.627L0.41,-0.627L0.41,-0.667Z" style="fill:rgb(202,69,42);fill-rule:nonzero;"/></g><g transform="matrix(60,0,0,60,1485.55,684.277)"><path d="M0.014,-0.667L0.239,0.025L0.487,-0.581L0.713,0.025L0.97,-0.667L0.922,-0.667L0.713,-0.101L0.487,-0.703L0.246,-0.101L0.062,-0.667L0.014,-0.667Z" style="fill:rgb(202,69,42);fill-rule:nonzero;"/></g><g transform="matrix(60,0,0,60,1544.59,684.277)"><rect x="0.09" y="-0.667" width="0.044" height="0.667" style="fill:rgb(202,69,42);fill-rule:nonzero;"/></g><g transform="matrix(60,0,0,60,1558.03,684.277)"><path d="M0.426,-0.581C0.392,-0.644 0.331,-0.676 0.264,-0.676C0.145,-0.676 0.093,-0.587 0.093,-0.51C0.093,-0.484 0.099,-0.459 0.114,-0.434C0.137,-0.396 0.17,-0.378 0.236,-0.346C0.291,-0.319 0.33,-0.299 0.349,-0.288C0.4,-0.257 0.414,-0.219 0.414,-0.183C0.414,-0.095 0.343,-0.029 0.253,-0.029C0.207,-0.029 0.158,-0.048 0.128,-0.086C0.118,-0.098 0.101,-0.124 0.092,-0.15L0.054,-0.132C0.06,-0.115 0.071,-0.089 0.097,-0.059C0.122,-0.03 0.166,0.011 0.252,0.011C0.366,0.011 0.46,-0.072 0.46,-0.184C0.46,-0.258 0.418,-0.293 0.389,-0.313C0.355,-0.337 0.322,-0.351 0.256,-0.383C0.189,-0.416 0.139,-0.44 0.139,-0.512C0.139,-0.579 0.184,-0.636 0.263,-0.636C0.281,-0.636 0.353,-0.634 0.394,-0.554L0.426,-0.581Z" style="fill:rgb(202,69,42);fill-rule:nonzero;"/></g><g transform="matrix(60,0,0,60,1587.01,684.277)"><path d="M0.426,-0.581C0.392,-0.644 0.331,-0.676 0.264,-0.676C0.145,-0.676 0.093,-0.587 0.093,-0.51C0.093,-0.484 0.099,-0.459 0.114,-0.434C0.137,-0.396 0.17,-0.378 0.236,-0.346C0.291,-0.319 0.33,-0.299 0.349,-0.288C0.4,-0.257 0.414,-0.219 0.414,-0.183C0.414,-0.095 0.343,-0.029 0.253,-0.029C0.207,-0.029 0.158,-0.048 0.128,-0.086C0.118,-0.098 0.101,-0.124 0.092,-0.15L0.054,-0.132C0.06,-0.115 0.071,-0.089 0.097,-0.059C0.122,-0.03 0.166,0.011 0.252,0.011C0.366,0.011 0.46,-0.072 0.46,-0.184C0.46,-0.258 0.418,-0.293 0.389,-0.313C0.355,-0.337 0.322,-0.351 0.256,-0.383C0.189,-0.416 0.139,-0.44 0.139,-0.512C0.139,-0.579 0.184,-0.636 0.263,-0.636C0.281,-0.636 0.353,-0.634 0.394,-0.554L0.426,-0.581Z" style="fill:rgb(202,69,42);fill-rule:nonzero;"/></g><g transform="matrix(60,0,0,60,1617.85,684.277)"><path d="M0.41,-0.667L0.09,-0.667L0.09,-0L0.41,-0L0.41,-0.04L0.134,-0.04L0.134,-0.345L0.404,-0.345L0.404,-0.385L0.134,-0.385L0.134,-0.627L0.41,-0.627L0.41,-0.667Z" style="fill:rgb(202,69,42);fill-rule:nonzero;"/></g><g transform="matrix(60,0,0,60,1645.69,684.277)"><path d="M0.134,-0L0.134,-0.569L0.694,0.017L0.694,-0.667L0.65,-0.667L0.65,-0.088L0.09,-0.674L0.09,-0L0.134,-0Z" style="fill:rgb(202,69,42);fill-rule:nonzero;"/></g></g><g transform="matrix(1.40488,0,0,1.40488,-811.604,-314.402)"><g transform="matrix(60,0,0,60,1554,787.359)"><path d="M0.22,-0.317C0.335,-0.317 0.414,-0.382 0.414,-0.493C0.414,-0.607 0.328,-0.667 0.219,-0.667L0.09,-0.667L0.09,-0L0.134,-0L0.134,-0.317L0.22,-0.317ZM0.134,-0.627L0.215,-0.627C0.312,-0.627 0.368,-0.575 0.368,-0.492C0.368,-0.408 0.309,-0.357 0.222,-0.357L0.134,-0.357L0.134,-0.627Z" style="fill:rgb(202,69,42);fill-rule:nonzero;"/></g><g transform="matrix(60,0,0,60,1580.76,787.359)"><path d="M0.42,-0L0.202,-0.315C0.217,-0.315 0.249,-0.316 0.284,-0.328C0.367,-0.356 0.396,-0.424 0.396,-0.49C0.396,-0.542 0.379,-0.597 0.327,-0.633C0.283,-0.663 0.237,-0.667 0.186,-0.667L0.09,-0.667L0.09,-0L0.134,-0L0.134,-0.315L0.154,-0.315L0.37,-0L0.42,-0ZM0.134,-0.627L0.189,-0.627C0.215,-0.627 0.263,-0.623 0.291,-0.607C0.317,-0.593 0.35,-0.558 0.35,-0.491C0.35,-0.405 0.293,-0.355 0.198,-0.355L0.134,-0.355L0.134,-0.627Z" style="fill:rgb(202,69,42);fill-rule:nonzero;"/></g><g transform="matrix(60,0,0,60,1608.18,787.359)"><path d="M0.4,-0.676C0.205,-0.676 0.054,-0.524 0.054,-0.332C0.054,-0.14 0.204,0.011 0.4,0.011C0.595,0.011 0.746,-0.14 0.746,-0.332C0.746,-0.524 0.595,-0.676 0.4,-0.676ZM0.4,-0.029C0.228,-0.029 0.1,-0.162 0.1,-0.332C0.1,-0.503 0.228,-0.636 0.4,-0.636C0.572,-0.636 0.7,-0.503 0.7,-0.332C0.7,-0.162 0.572,-0.029 0.4,-0.029Z" style="fill:rgb(202,69,42);fill-rule:nonzero;"/></g><g transform="matrix(60,0,0,60,1654.32,787.359)"><path d="M0.404,-0.627L0.404,-0.667L0.014,-0.667L0.014,-0.627L0.187,-0.627L0.187,-0L0.231,-0L0.231,-0.627L0.404,-0.627Z" style="fill:rgb(202,69,42);fill-rule:nonzero;"/></g><g transform="matrix(60,0,0,60,1677.54,787.359)"><path d="M0.4,-0.676C0.205,-0.676 0.054,-0.524 0.054,-0.332C0.054,-0.14 0.204,0.011 0.4,0.011C0.595,0.011 0.746,-0.14 0.746,-0.332C0.746,-0.524 0.595,-0.676 0.4,-0.676ZM0.4,-0.029C0.228,-0.029 0.1,-0.162 0.1,-0.332C0.1,-0.503 0.228,-0.636 0.4,-0.636C0.572,-0.636 0.7,-0.503 0.7,-0.332C0.7,-0.162 0.572,-0.029 0.4,-0.029Z" style="fill:rgb(202,69,42);fill-rule:nonzero;"/></g><g transform="matrix(60,0,0,60,1725.54,787.359)"><path d="M0.134,-0.667L0.09,-0.667L0.09,-0L0.134,-0L0.134,-0.301L0.152,-0.318L0.466,-0L0.526,-0L0.184,-0.348L0.507,-0.667L0.449,-0.667L0.134,-0.353L0.134,-0.667Z" style="fill:rgb(202,69,42);fill-rule:nonzero;"/></g><g transform="matrix(60,0,0,60,1756.08,787.359)"><path d="M0.4,-0.676C0.205,-0.676 0.054,-0.524 0.054,-0.332C0.054,-0.14 0.204,0.011 0.4,0.011C0.595,0.011 0.746,-0.14 0.746,-0.332C0.746,-0.524 0.595,-0.676 0.4,-0.676ZM0.4,-0.029C0.228,-0.029 0.1,-0.162 0.1,-0.332C0.1,-0.503 0.228,-0.636 0.4,-0.636C0.572,-0.636 0.7,-0.503 0.7,-0.332C0.7,-0.162 0.572,-0.029 0.4,-0.029Z" style="fill:rgb(202,69,42);fill-rule:nonzero;"/></g><g transform="matrix(60,0,0,60,1804.08,787.359)"><path d="M0.09,-0.667L0.09,-0L0.32,-0L0.32,-0.04L0.134,-0.04L0.134,-0.667L0.09,-0.667Z" style="fill:rgb(202,69,42);fill-rule:nonzero;"/></g><g transform="matrix(60,0,0,60,1824.12,787.359)"><path d="M0.09,-0.667L0.09,-0L0.32,-0L0.32,-0.04L0.134,-0.04L0.134,-0.667L0.09,-0.667Z" style="fill:rgb(202,69,42);fill-rule:nonzero;"/></g><g transform="matrix(60,0,0,60,1844.16,787.359)"><rect x="0.09" y="-0.667" width="0.044" height="0.667" style="fill:rgb(202,69,42);fill-rule:nonzero;"/></g><g transform="matrix(60,0,0,60,1857.6,787.359)"><path d="M0.41,-0.667L0.09,-0.667L0.09,-0L0.41,-0L0.41,-0.04L0.134,-0.04L0.134,-0.345L0.404,-0.345L0.404,-0.385L0.134,-0.385L0.134,-0.627L0.41,-0.627L0.41,-0.667Z" style="fill:rgb(202,69,42);fill-rule:nonzero;"/></g><g transform="matrix(60,0,0,60,1885.44,787.359)"><path d="M0.42,-0L0.202,-0.315C0.217,-0.315 0.249,-0.316 0.284,-0.328C0.367,-0.356 0.396,-0.424 0.396,-0.49C0.396,-0.542 0.379,-0.597 0.327,-0.633C0.283,-0.663 0.237,-0.667 0.186,-0.667L0.09,-0.667L0.09,-0L0.134,-0L0.134,-0.315L0.154,-0.315L0.37,-0L0.42,-0ZM0.134,-0.627L0.189,-0.627C0.215,-0.627 0.263,-0.623 0.291,-0.607C0.317,-0.593 0.35,-0.558 0.35,-0.491C0.35,-0.405 0.293,-0.355 0.198,-0.355L0.134,-0.355L0.134,-0.627Z" style="fill:rgb(202,69,42);fill-rule:nonzero;"/></g><g transform="matrix(60,0,0,60,1913.52,787.359)"><path d="M0.09,-0.667L0.09,-0.25C0.09,-0.177 0.094,-0.129 0.128,-0.079C0.178,-0.006 0.257,0.011 0.317,0.011C0.377,0.011 0.456,-0.006 0.506,-0.079C0.54,-0.129 0.544,-0.177 0.544,-0.25L0.544,-0.667L0.5,-0.667L0.5,-0.25C0.5,-0.187 0.497,-0.146 0.472,-0.106C0.433,-0.043 0.36,-0.029 0.317,-0.029C0.274,-0.029 0.201,-0.043 0.162,-0.106C0.137,-0.146 0.134,-0.187 0.134,-0.25L0.134,-0.667L0.09,-0.667Z" style="fill:rgb(202,69,42);fill-rule:nonzero;"/></g><g transform="matrix(60,0,0,60,1951.56,787.359)"><path d="M0.134,-0L0.134,-0.569L0.694,0.017L0.694,-0.667L0.65,-0.667L0.65,-0.088L0.09,-0.674L0.09,-0L0.134,-0Z" style="fill:rgb(202,69,42);fill-rule:nonzero;"/></g><g transform="matrix(60,0,0,60,1998.6,787.359)"><path d="M0.438,-0.28L0.674,-0.28C0.672,-0.237 0.656,-0.182 0.63,-0.142C0.594,-0.087 0.512,-0.029 0.398,-0.029C0.226,-0.029 0.1,-0.163 0.1,-0.33C0.1,-0.5 0.23,-0.636 0.401,-0.636C0.484,-0.636 0.55,-0.601 0.592,-0.566C0.61,-0.551 0.637,-0.524 0.656,-0.492L0.691,-0.52C0.664,-0.558 0.639,-0.582 0.611,-0.604C0.559,-0.644 0.496,-0.676 0.402,-0.676C0.208,-0.676 0.054,-0.53 0.054,-0.332C0.054,-0.133 0.203,0.011 0.399,0.011C0.501,0.011 0.591,-0.026 0.65,-0.101C0.705,-0.171 0.718,-0.259 0.718,-0.32L0.438,-0.32L0.438,-0.28Z" style="fill:rgb(202,69,42);fill-rule:nonzero;"/></g></g><g transform="matrix(1.72055,0,0,1.72055,-1702.21,-865.31)"><g transform="matrix(60,0,0,60,1538.2,904.993)"><path d="M0.524,-0L0.572,-0L0.295,-0.687L0.014,-0L0.062,-0L0.151,-0.219L0.435,-0.219L0.524,-0ZM0.167,-0.259L0.294,-0.575L0.419,-0.259L0.167,-0.259Z" style="fill:rgb(202,69,42);fill-rule:nonzero;"/></g><g transform="matrix(60,0,0,60,1572.16,904.993)"><path d="M0.09,-0.667L0.09,-0.25C0.09,-0.177 0.094,-0.129 0.128,-0.079C0.178,-0.006 0.257,0.011 0.317,0.011C0.377,0.011 0.456,-0.006 0.506,-0.079C0.54,-0.129 0.544,-0.177 0.544,-0.25L0.544,-0.667L0.5,-0.667L0.5,-0.25C0.5,-0.187 0.497,-0.146 0.472,-0.106C0.433,-0.043 0.36,-0.029 0.317,-0.029C0.274,-0.029 0.201,-0.043 0.162,-0.106C0.137,-0.146 0.134,-0.187 0.134,-0.25L0.134,-0.667L0.09,-0.667Z" style="fill:rgb(202,69,42);fill-rule:nonzero;"/></g><g transform="matrix(60,0,0,60,1610.2,904.993)"><path d="M0.36,-0.667L0.09,-0.667L0.09,-0L0.134,-0L0.134,-0.345L0.354,-0.345L0.354,-0.385L0.134,-0.385L0.134,-0.627L0.36,-0.627L0.36,-0.667Z" style="fill:rgb(202,69,42);fill-rule:nonzero;"/></g><g transform="matrix(60,0,0,60,1631.44,904.993)"><path d="M0.426,-0.581C0.392,-0.644 0.331,-0.676 0.264,-0.676C0.145,-0.676 0.093,-0.587 0.093,-0.51C0.093,-0.484 0.099,-0.459 0.114,-0.434C0.137,-0.396 0.17,-0.378 0.236,-0.346C0.291,-0.319 0.33,-0.299 0.349,-0.288C0.4,-0.257 0.414,-0.219 0.414,-0.183C0.414,-0.095 0.343,-0.029 0.253,-0.029C0.207,-0.029 0.158,-0.048 0.128,-0.086C0.118,-0.098 0.101,-0.124 0.092,-0.15L0.054,-0.132C0.06,-0.115 0.071,-0.089 0.097,-0.059C0.122,-0.03 0.166,0.011 0.252,0.011C0.366,0.011 0.46,-0.072 0.46,-0.184C0.46,-0.258 0.418,-0.293 0.389,-0.313C0.355,-0.337 0.322,-0.351 0.256,-0.383C0.189,-0.416 0.139,-0.44 0.139,-0.512C0.139,-0.579 0.184,-0.636 0.263,-0.636C0.281,-0.636 0.353,-0.634 0.394,-0.554L0.426,-0.581Z" style="fill:rgb(202,69,42);fill-rule:nonzero;"/></g><g transform="matrix(60,0,0,60,1662.28,904.993)"><rect x="0.09" y="-0.667" width="0.044" height="0.667" style="fill:rgb(202,69,42);fill-rule:nonzero;"/></g><g transform="matrix(60,0,0,60,1675.72,904.993)"><path d="M0.624,-0.589C0.604,-0.608 0.527,-0.676 0.4,-0.676C0.208,-0.676 0.054,-0.524 0.054,-0.332C0.054,-0.146 0.202,0.011 0.402,0.011C0.474,0.011 0.556,-0.012 0.624,-0.072L0.624,-0.13C0.556,-0.056 0.467,-0.029 0.4,-0.029C0.265,-0.029 0.1,-0.132 0.1,-0.33C0.1,-0.499 0.228,-0.636 0.399,-0.636C0.485,-0.636 0.567,-0.598 0.624,-0.531L0.624,-0.589Z" style="fill:rgb(202,69,42);fill-rule:nonzero;"/></g><g transform="matrix(60,0,0,60,1716.4,904.993)"><path d="M0.134,-0.667L0.09,-0.667L0.09,-0L0.134,-0L0.134,-0.344L0.538,-0.344L0.538,-0L0.582,-0L0.582,-0.667L0.538,-0.667L0.538,-0.384L0.134,-0.384L0.134,-0.667Z" style="fill:rgb(202,69,42);fill-rule:nonzero;"/></g><g transform="matrix(60,0,0,60,1756.72,904.993)"><path d="M0.404,-0.627L0.404,-0.667L0.014,-0.667L0.014,-0.627L0.187,-0.627L0.187,-0L0.231,-0L0.231,-0.627L0.404,-0.627Z" style="fill:rgb(202,69,42);fill-rule:nonzero;"/></g></g><g transform="matrix(1.08042,0,0,1.08042,-663.884,-391.396)"><g transform="matrix(60,0,0,60,1723,1068.71)"><path d="M0.134,-0.667L0.09,-0.667L0.09,-0L0.134,-0L0.134,-0.301L0.152,-0.318L0.466,-0L0.526,-0L0.184,-0.348L0.507,-0.667L0.449,-0.667L0.134,-0.353L0.134,-0.667Z" style="fill:rgb(202,69,42);fill-rule:nonzero;"/></g><g transform="matrix(60,0,0,60,1753.54,1068.71)"><path d="M0.09,-0.667L0.09,-0.25C0.09,-0.177 0.094,-0.129 0.128,-0.079C0.178,-0.006 0.257,0.011 0.317,0.011C0.377,0.011 0.456,-0.006 0.506,-0.079C0.54,-0.129 0.544,-0.177 0.544,-0.25L0.544,-0.667L0.5,-0.667L0.5,-0.25C0.5,-0.187 0.497,-0.146 0.472,-0.106C0.433,-0.043 0.36,-0.029 0.317,-0.029C0.274,-0.029 0.201,-0.043 0.162,-0.106C0.137,-0.146 0.134,-0.187 0.134,-0.25L0.134,-0.667L0.09,-0.667Z" style="fill:rgb(202,69,42);fill-rule:nonzero;"/></g><g transform="matrix(60,0,0,60,1791.58,1068.71)"><path d="M0.42,-0L0.202,-0.315C0.217,-0.315 0.249,-0.316 0.284,-0.328C0.367,-0.356 0.396,-0.424 0.396,-0.49C0.396,-0.542 0.379,-0.597 0.327,-0.633C0.283,-0.663 0.237,-0.667 0.186,-0.667L0.09,-0.667L0.09,-0L0.134,-0L0.134,-0.315L0.154,-0.315L0.37,-0L0.42,-0ZM0.134,-0.627L0.189,-0.627C0.215,-0.627 0.263,-0.623 0.291,-0.607C0.317,-0.593 0.35,-0.558 0.35,-0.491C0.35,-0.405 0.293,-0.355 0.198,-0.355L0.134,-0.355L0.134,-0.627Z" style="fill:rgb(202,69,42);fill-rule:nonzero;"/></g><g transform="matrix(60,0,0,60,1819.66,1068.71)"><path d="M0.426,-0.581C0.392,-0.644 0.331,-0.676 0.264,-0.676C0.145,-0.676 0.093,-0.587 0.093,-0.51C0.093,-0.484 0.099,-0.459 0.114,-0.434C0.137,-0.396 0.17,-0.378 0.236,-0.346C0.291,-0.319 0.33,-0.299 0.349,-0.288C0.4,-0.257 0.414,-0.219 0.414,-0.183C0.414,-0.095 0.343,-0.029 0.253,-0.029C0.207,-0.029 0.158,-0.048 0.128,-0.086C0.118,-0.098 0.101,-0.124 0.092,-0.15L0.054,-0.132C0.06,-0.115 0.071,-0.089 0.097,-0.059C0.122,-0.03 0.166,0.011 0.252,0.011C0.366,0.011 0.46,-0.072 0.46,-0.184C0.46,-0.258 0.418,-0.293 0.389,-0.313C0.355,-0.337 0.322,-0.351 0.256,-0.383C0.189,-0.416 0.139,-0.44 0.139,-0.512C0.139,-0.579 0.184,-0.636 0.263,-0.636C0.281,-0.636 0.353,-0.634 0.394,-0.554L0.426,-0.581Z" style="fill:rgb(202,69,42);fill-rule:nonzero;"/></g><g transform="matrix(60,0,0,60,1850.5,1068.71)"><path d="M0.41,-0.667L0.09,-0.667L0.09,-0L0.41,-0L0.41,-0.04L0.134,-0.04L0.134,-0.345L0.404,-0.345L0.404,-0.385L0.134,-0.385L0.134,-0.627L0.41,-0.627L0.41,-0.667Z" style="fill:rgb(202,69,42);fill-rule:nonzero;"/></g></g><g transform="matrix(1,0,0,1,309.204,113.078)"><g transform="matrix(60,0,0,60,1539.98,434.454)"><path d="M0.127,-0L0.186,-0.536L0.448,0.024C0.449,0.024 0.71,-0.536 0.71,-0.536L0.769,-0L0.813,-0L0.737,-0.69L0.448,-0.073L0.159,-0.69L0.083,-0L0.127,-0Z" style="fill:rgb(202,69,42);fill-rule:nonzero;"/></g><g transform="matrix(60,0,0,60,1593.14,434.454)"><path d="M0.524,-0L0.572,-0L0.295,-0.687L0.014,-0L0.062,-0L0.151,-0.219L0.435,-0.219L0.524,-0ZM0.167,-0.259L0.294,-0.575L0.419,-0.259L0.167,-0.259Z" style="fill:rgb(202,69,42);fill-rule:nonzero;"/></g><g transform="matrix(60,0,0,60,1626.44,434.454)"><path d="M0.426,-0.581C0.392,-0.644 0.331,-0.676 0.264,-0.676C0.145,-0.676 0.093,-0.587 0.093,-0.51C0.093,-0.484 0.099,-0.459 0.114,-0.434C0.137,-0.396 0.17,-0.378 0.236,-0.346C0.291,-0.319 0.33,-0.299 0.349,-0.288C0.4,-0.257 0.414,-0.219 0.414,-0.183C0.414,-0.095 0.343,-0.029 0.253,-0.029C0.207,-0.029 0.158,-0.048 0.128,-0.086C0.118,-0.098 0.101,-0.124 0.092,-0.15L0.054,-0.132C0.06,-0.115 0.071,-0.089 0.097,-0.059C0.122,-0.03 0.166,0.011 0.252,0.011C0.366,0.011 0.46,-0.072 0.46,-0.184C0.46,-0.258 0.418,-0.293 0.389,-0.313C0.355,-0.337 0.322,-0.351 0.256,-0.383C0.189,-0.416 0.139,-0.44 0.139,-0.512C0.139,-0.579 0.184,-0.636 0.263,-0.636C0.281,-0.636 0.353,-0.634 0.394,-0.554L0.426,-0.581Z" style="fill:rgb(202,69,42);fill-rule:nonzero;"/></g><g transform="matrix(60,0,0,60,1657.28,434.454)"><path d="M0.624,-0.589C0.604,-0.608 0.527,-0.676 0.4,-0.676C0.208,-0.676 0.054,-0.524 0.054,-0.332C0.054,-0.146 0.202,0.011 0.402,0.011C0.474,0.011 0.556,-0.012 0.624,-0.072L0.624,-0.13C0.556,-0.056 0.467,-0.029 0.4,-0.029C0.265,-0.029 0.1,-0.132 0.1,-0.33C0.1,-0.499 0.228,-0.636 0.399,-0.636C0.485,-0.636 0.567,-0.598 0.624,-0.531L0.624,-0.589Z" style="fill:rgb(202,69,42);fill-rule:nonzero;"/></g><g transform="matrix(60,0,0,60,1697.96,434.454)"><path d="M0.134,-0.667L0.09,-0.667L0.09,-0L0.134,-0L0.134,-0.344L0.538,-0.344L0.538,-0L0.582,-0L0.582,-0.667L0.538,-0.667L0.538,-0.384L0.134,-0.384L0.134,-0.667Z" style="fill:rgb(202,69,42);fill-rule:nonzero;"/></g><g transform="matrix(60,0,0,60,1738.28,434.454)"><rect x="0.09" y="-0.667" width="0.044" height="0.667" style="fill:rgb(202,69,42);fill-rule:nonzero;"/></g><g transform="matrix(60,0,0,60,1751.72,434.454)"><path d="M0.134,-0L0.134,-0.569L0.694,0.017L0.694,-0.667L0.65,-0.667L0.65,-0.088L0.09,-0.674L0.09,-0L0.134,-0Z" style="fill:rgb(202,69,42);fill-rule:nonzero;"/></g><g transform="matrix(60,0,0,60,1798.76,434.454)"><path d="M0.41,-0.667L0.09,-0.667L0.09,-0L0.41,-0L0.41,-0.04L0.134,-0.04L0.134,-0.345L0.404,-0.345L0.404,-0.385L0.134,-0.385L0.134,-0.627L0.41,-0.627L0.41,-0.667Z" style="fill:rgb(202,69,42);fill-rule:nonzero;"/></g><g transform="matrix(60,0,0,60,1826.6,434.454)"><path d="M0.134,-0L0.134,-0.569L0.694,0.017L0.694,-0.667L0.65,-0.667L0.65,-0.088L0.09,-0.674L0.09,-0L0.134,-0Z" style="fill:rgb(202,69,42);fill-rule:nonzero;"/></g><g transform="matrix(60,0,0,60,1873.64,434.454)"><path d="M0.36,-0.667L0.09,-0.667L0.09,-0L0.134,-0L0.134,-0.345L0.354,-0.345L0.354,-0.385L0.134,-0.385L0.134,-0.627L0.36,-0.627L0.36,-0.667Z" style="fill:rgb(202,69,42);fill-rule:nonzero;"/></g><g transform="matrix(60,0,0,60,1898,434.454)"><path d="M0.42,-0L0.202,-0.315C0.217,-0.315 0.249,-0.316 0.284,-0.328C0.367,-0.356 0.396,-0.424 0.396,-0.49C0.396,-0.542 0.379,-0.597 0.327,-0.633C0.283,-0.663 0.237,-0.667 0.186,-0.667L0.09,-0.667L0.09,-0L0.134,-0L0.134,-0.315L0.154,-0.315L0.37,-0L0.42,-0ZM0.134,-0.627L0.189,-0.627C0.215,-0.627 0.263,-0.623 0.291,-0.607C0.317,-0.593 0.35,-0.558 0.35,-0.491C0.35,-0.405 0.293,-0.355 0.198,-0.355L0.134,-0.355L0.134,-0.627Z" style="fill:rgb(202,69,42);fill-rule:nonzero;"/></g><g transform="matrix(60,0,0,60,1926.08,434.454)"><path d="M0.41,-0.667L0.09,-0.667L0.09,-0L0.41,-0L0.41,-0.04L0.134,-0.04L0.134,-0.345L0.404,-0.345L0.404,-0.385L0.134,-0.385L0.134,-0.627L0.41,-0.627L0.41,-0.667Z" style="fill:rgb(202,69,42);fill-rule:nonzero;"/></g><g transform="matrix(60,0,0,60,1953.92,434.454)"><rect x="0.09" y="-0.667" width="0.044" height="0.667" style="fill:rgb(202,69,42);fill-rule:nonzero;"/></g><g transform="matrix(60,0,0,60,1967.36,434.454)"><path d="M0.438,-0.28L0.674,-0.28C0.672,-0.237 0.656,-0.182 0.63,-0.142C0.594,-0.087 0.512,-0.029 0.398,-0.029C0.226,-0.029 0.1,-0.163 0.1,-0.33C0.1,-0.5 0.23,-0.636 0.401,-0.636C0.484,-0.636 0.55,-0.601 0.592,-0.566C0.61,-0.551 0.637,-0.524 0.656,-0.492L0.691,-0.52C0.664,-0.558 0.639,-0.582 0.611,-0.604C0.559,-0.644 0.496,-0.676 0.402,-0.676C0.208,-0.676 0.054,-0.53 0.054,-0.332C0.054,-0.133 0.203,0.011 0.399,0.011C0.501,0.011 0.591,-0.026 0.65,-0.101C0.705,-0.171 0.718,-0.259 0.718,-0.32L0.438,-0.32L0.438,-0.28Z" style="fill:rgb(202,69,42);fill-rule:nonzero;"/></g><g transform="matrix(60,0,0,60,2012.42,434.454)"><path d="M0.524,-0L0.572,-0L0.295,-0.687L0.014,-0L0.062,-0L0.151,-0.219L0.435,-0.219L0.524,-0ZM0.167,-0.259L0.294,-0.575L0.419,-0.259L0.167,-0.259Z" style="fill:rgb(202,69,42);fill-rule:nonzero;"/></g><g transform="matrix(60,0,0,60,2047.58,434.454)"><path d="M0.09,-0L0.273,-0C0.394,-0 0.48,-0.07 0.48,-0.187C0.48,-0.273 0.429,-0.34 0.342,-0.354C0.386,-0.381 0.42,-0.428 0.42,-0.5C0.42,-0.6 0.352,-0.667 0.236,-0.667L0.09,-0.667L0.09,-0ZM0.134,-0.627L0.219,-0.627C0.254,-0.627 0.297,-0.625 0.33,-0.599C0.352,-0.581 0.375,-0.548 0.375,-0.495C0.375,-0.449 0.358,-0.415 0.331,-0.393C0.302,-0.369 0.274,-0.365 0.24,-0.365L0.134,-0.365L0.134,-0.627ZM0.134,-0.325L0.238,-0.325C0.312,-0.325 0.345,-0.314 0.363,-0.306C0.413,-0.283 0.434,-0.242 0.434,-0.182C0.434,-0.151 0.427,-0.112 0.391,-0.08C0.346,-0.04 0.291,-0.04 0.246,-0.04L0.134,-0.04L0.134,-0.325Z" style="fill:rgb(202,69,42);fill-rule:nonzero;"/></g><g transform="matrix(60,0,0,60,2079.62,434.454)"><path d="M0.41,-0.667L0.09,-0.667L0.09,-0L0.41,-0L0.41,-0.04L0.134,-0.04L0.134,-0.345L0.404,-0.345L0.404,-0.385L0.134,-0.385L0.134,-0.627L0.41,-0.627L0.41,-0.667Z" style="fill:rgb(202,69,42);fill-rule:nonzero;"/></g></g><g transform="matrix(1.0577,0,0,1.0577,40.0581,-86.1711)"><g transform="matrix(60,0,0,60,1021.9,886.802)"><path d="M0.09,-0L0.273,-0C0.394,-0 0.48,-0.07 0.48,-0.187C0.48,-0.273 0.429,-0.34 0.342,-0.354C0.386,-0.381 0.42,-0.428 0.42,-0.5C0.42,-0.6 0.352,-0.667 0.236,-0.667L0.09,-0.667L0.09,-0ZM0.134,-0.627L0.219,-0.627C0.254,-0.627 0.297,-0.625 0.33,-0.599C0.352,-0.581 0.375,-0.548 0.375,-0.495C0.375,-0.449 0.358,-0.415 0.331,-0.393C0.302,-0.369 0.274,-0.365 0.24,-0.365L0.134,-0.365L0.134,-0.627ZM0.134,-0.325L0.238,-0.325C0.312,-0.325 0.345,-0.314 0.363,-0.306C0.413,-0.283 0.434,-0.242 0.434,-0.182C0.434,-0.151 0.427,-0.112 0.391,-0.08C0.346,-0.04 0.291,-0.04 0.246,-0.04L0.134,-0.04L0.134,-0.325Z" style="fill:rgb(202,69,42);fill-rule:nonzero;"/></g><g transform="matrix(60,0,0,60,1053.94,886.802)"><path d="M0.41,-0.667L0.09,-0.667L0.09,-0L0.41,-0L0.41,-0.04L0.134,-0.04L0.134,-0.345L0.404,-0.345L0.404,-0.385L0.134,-0.385L0.134,-0.627L0.41,-0.627L0.41,-0.667Z" style="fill:rgb(202,69,42);fill-rule:nonzero;"/></g><g transform="matrix(60,0,0,60,1081.78,886.802)"><path d="M0.42,-0L0.202,-0.315C0.217,-0.315 0.249,-0.316 0.284,-0.328C0.367,-0.356 0.396,-0.424 0.396,-0.49C0.396,-0.542 0.379,-0.597 0.327,-0.633C0.283,-0.663 0.237,-0.667 0.186,-0.667L0.09,-0.667L0.09,-0L0.134,-0L0.134,-0.315L0.154,-0.315L0.37,-0L0.42,-0ZM0.134,-0.627L0.189,-0.627C0.215,-0.627 0.263,-0.623 0.291,-0.607C0.317,-0.593 0.35,-0.558 0.35,-0.491C0.35,-0.405 0.293,-0.355 0.198,-0.355L0.134,-0.355L0.134,-0.627Z" style="fill:rgb(202,69,42);fill-rule:nonzero;"/></g><g transform="matrix(60,0,0,60,1109.86,886.802)"><path d="M0.41,-0.667L0.09,-0.667L0.09,-0L0.41,-0L0.41,-0.04L0.134,-0.04L0.134,-0.345L0.404,-0.345L0.404,-0.385L0.134,-0.385L0.134,-0.627L0.41,-0.627L0.41,-0.667Z" style="fill:rgb(202,69,42);fill-rule:nonzero;"/></g><g transform="matrix(60,0,0,60,1137.7,886.802)"><path d="M0.624,-0.589C0.604,-0.608 0.527,-0.676 0.4,-0.676C0.208,-0.676 0.054,-0.524 0.054,-0.332C0.054,-0.146 0.202,0.011 0.402,0.011C0.474,0.011 0.556,-0.012 0.624,-0.072L0.624,-0.13C0.556,-0.056 0.467,-0.029 0.4,-0.029C0.265,-0.029 0.1,-0.132 0.1,-0.33C0.1,-0.499 0.228,-0.636 0.399,-0.636C0.485,-0.636 0.567,-0.598 0.624,-0.531L0.624,-0.589Z" style="fill:rgb(202,69,42);fill-rule:nonzero;"/></g><g transform="matrix(60,0,0,60,1178.38,886.802)"><path d="M0.134,-0.667L0.09,-0.667L0.09,-0L0.134,-0L0.134,-0.344L0.538,-0.344L0.538,-0L0.582,-0L0.582,-0.667L0.538,-0.667L0.538,-0.384L0.134,-0.384L0.134,-0.667Z" style="fill:rgb(202,69,42);fill-rule:nonzero;"/></g><g transform="matrix(60,0,0,60,1218.7,886.802)"><path d="M0.404,-0.627L0.404,-0.667L0.014,-0.667L0.014,-0.627L0.187,-0.627L0.187,-0L0.231,-0L0.231,-0.627L0.404,-0.627Z" style="fill:rgb(202,69,42);fill-rule:nonzero;"/></g><g transform="matrix(60,0,0,60,1243.78,886.802)"><rect x="0.09" y="-0.667" width="0.044" height="0.667" style="fill:rgb(202,69,42);fill-rule:nonzero;"/></g><g transform="matrix(60,0,0,60,1257.22,886.802)"><path d="M0.438,-0.28L0.674,-0.28C0.672,-0.237 0.656,-0.182 0.63,-0.142C0.594,-0.087 0.512,-0.029 0.398,-0.029C0.226,-0.029 0.1,-0.163 0.1,-0.33C0.1,-0.5 0.23,-0.636 0.401,-0.636C0.484,-0.636 0.55,-0.601 0.592,-0.566C0.61,-0.551 0.637,-0.524 0.656,-0.492L0.691,-0.52C0.664,-0.558 0.639,-0.582 0.611,-0.604C0.559,-0.644 0.496,-0.676 0.402,-0.676C0.208,-0.676 0.054,-0.53 0.054,-0.332C0.054,-0.133 0.203,0.011 0.399,0.011C0.501,0.011 0.591,-0.026 0.65,-0.101C0.705,-0.171 0.718,-0.259 0.718,-0.32L0.438,-0.32L0.438,-0.28Z" style="fill:rgb(202,69,42);fill-rule:nonzero;"/></g><g transform="matrix(60,0,0,60,1303.54,886.802)"><path d="M0.09,-0.667L0.09,-0.25C0.09,-0.177 0.094,-0.129 0.128,-0.079C0.178,-0.006 0.257,0.011 0.317,0.011C0.377,0.011 0.456,-0.006 0.506,-0.079C0.54,-0.129 0.544,-0.177 0.544,-0.25L0.544,-0.667L0.5,-0.667L0.5,-0.25C0.5,-0.187 0.497,-0.146 0.472,-0.106C0.433,-0.043 0.36,-0.029 0.317,-0.029C0.274,-0.029 0.201,-0.043 0.162,-0.106C0.137,-0.146 0.134,-0.187 0.134,-0.25L0.134,-0.667L0.09,-0.667Z" style="fill:rgb(202,69,42);fill-rule:nonzero;"/></g><g transform="matrix(60,0,0,60,1341.58,886.802)"><path d="M0.134,-0L0.134,-0.569L0.694,0.017L0.694,-0.667L0.65,-0.667L0.65,-0.088L0.09,-0.674L0.09,-0L0.134,-0Z" style="fill:rgb(202,69,42);fill-rule:nonzero;"/></g><g transform="matrix(60,0,0,60,1388.62,886.802)"><path d="M0.438,-0.28L0.674,-0.28C0.672,-0.237 0.656,-0.182 0.63,-0.142C0.594,-0.087 0.512,-0.029 0.398,-0.029C0.226,-0.029 0.1,-0.163 0.1,-0.33C0.1,-0.5 0.23,-0.636 0.401,-0.636C0.484,-0.636 0.55,-0.601 0.592,-0.566C0.61,-0.551 0.637,-0.524 0.656,-0.492L0.691,-0.52C0.664,-0.558 0.639,-0.582 0.611,-0.604C0.559,-0.644 0.496,-0.676 0.402,-0.676C0.208,-0.676 0.054,-0.53 0.054,-0.332C0.054,-0.133 0.203,0.011 0.399,0.011C0.501,0.011 0.591,-0.026 0.65,-0.101C0.705,-0.171 0.718,-0.259 0.718,-0.32L0.438,-0.32L0.438,-0.28Z" style="fill:rgb(202,69,42);fill-rule:nonzero;"/></g><g transform="matrix(60,0,0,60,1434.94,886.802)"><path d="M0.41,-0.667L0.09,-0.667L0.09,-0L0.41,-0L0.41,-0.04L0.134,-0.04L0.134,-0.345L0.404,-0.345L0.404,-0.385L0.134,-0.385L0.134,-0.627L0.41,-0.627L0.41,-0.667Z" style="fill:rgb(202,69,42);fill-rule:nonzero;"/></g><g transform="matrix(60,0,0,60,1462.78,886.802)"><path d="M0.134,-0L0.134,-0.569L0.694,0.017L0.694,-0.667L0.65,-0.667L0.65,-0.088L0.09,-0.674L0.09,-0L0.134,-0Z" style="fill:rgb(202,69,42);fill-rule:nonzero;"/></g></g><g transform="matrix(1.40059,0,0,1.40059,-170.481,-926.815)"><g transform="matrix(60,0,0,60,1283.35,1008.08)"><path d="M0.517,-0.667L0.076,-0.667L0.076,-0.627L0.443,-0.627L0.037,-0L0.506,-0L0.506,-0.04L0.111,-0.04L0.517,-0.667Z" style="fill:rgb(202,69,42);fill-rule:nonzero;"/></g><g transform="matrix(60,0,0,60,1316.59,1008.08)"><path d="M0.41,-0.667L0.09,-0.667L0.09,-0L0.41,-0L0.41,-0.04L0.134,-0.04L0.134,-0.345L0.404,-0.345L0.404,-0.385L0.134,-0.385L0.134,-0.627L0.41,-0.627L0.41,-0.667Z" style="fill:rgb(202,69,42);fill-rule:nonzero;"/></g><g transform="matrix(60,0,0,60,1344.43,1008.08)"><path d="M0.42,-0L0.202,-0.315C0.217,-0.315 0.249,-0.316 0.284,-0.328C0.367,-0.356 0.396,-0.424 0.396,-0.49C0.396,-0.542 0.379,-0.597 0.327,-0.633C0.283,-0.663 0.237,-0.667 0.186,-0.667L0.09,-0.667L0.09,-0L0.134,-0L0.134,-0.315L0.154,-0.315L0.37,-0L0.42,-0ZM0.134,-0.627L0.189,-0.627C0.215,-0.627 0.263,-0.623 0.291,-0.607C0.317,-0.593 0.35,-0.558 0.35,-0.491C0.35,-0.405 0.293,-0.355 0.198,-0.355L0.134,-0.355L0.134,-0.627Z" style="fill:rgb(202,69,42);fill-rule:nonzero;"/></g><g transform="matrix(60,0,0,60,1372.51,1008.08)"><path d="M0.426,-0.581C0.392,-0.644 0.331,-0.676 0.264,-0.676C0.145,-0.676 0.093,-0.587 0.093,-0.51C0.093,-0.484 0.099,-0.459 0.114,-0.434C0.137,-0.396 0.17,-0.378 0.236,-0.346C0.291,-0.319 0.33,-0.299 0.349,-0.288C0.4,-0.257 0.414,-0.219 0.414,-0.183C0.414,-0.095 0.343,-0.029 0.253,-0.029C0.207,-0.029 0.158,-0.048 0.128,-0.086C0.118,-0.098 0.101,-0.124 0.092,-0.15L0.054,-0.132C0.06,-0.115 0.071,-0.089 0.097,-0.059C0.122,-0.03 0.166,0.011 0.252,0.011C0.366,0.011 0.46,-0.072 0.46,-0.184C0.46,-0.258 0.418,-0.293 0.389,-0.313C0.355,-0.337 0.322,-0.351 0.256,-0.383C0.189,-0.416 0.139,-0.44 0.139,-0.512C0.139,-0.579 0.184,-0.636 0.263,-0.636C0.281,-0.636 0.353,-0.634 0.394,-0.554L0.426,-0.581Z" style="fill:rgb(202,69,42);fill-rule:nonzero;"/></g><g transform="matrix(60,0,0,60,1400.89,1008.08)"><path d="M0.404,-0.627L0.404,-0.667L0.014,-0.667L0.014,-0.627L0.187,-0.627L0.187,-0L0.231,-0L0.231,-0.627L0.404,-0.627Z" style="fill:rgb(202,69,42);fill-rule:nonzero;"/></g><g transform="matrix(60,0,0,60,1424.11,1008.08)"><path d="M0.4,-0.676C0.205,-0.676 0.054,-0.524 0.054,-0.332C0.054,-0.14 0.204,0.011 0.4,0.011C0.595,0.011 0.746,-0.14 0.746,-0.332C0.746,-0.524 0.595,-0.676 0.4,-0.676ZM0.4,-0.029C0.228,-0.029 0.1,-0.162 0.1,-0.332C0.1,-0.503 0.228,-0.636 0.4,-0.636C0.572,-0.636 0.7,-0.503 0.7,-0.332C0.7,-0.162 0.572,-0.029 0.4,-0.029ZM0.269,-0.78C0.269,-0.759 0.286,-0.742 0.307,-0.742C0.328,-0.742 0.345,-0.759 0.345,-0.78C0.345,-0.801 0.328,-0.818 0.307,-0.818C0.286,-0.818 0.269,-0.801 0.269,-0.78ZM0.455,-0.78C0.455,-0.759 0.472,-0.742 0.493,-0.742C0.514,-0.742 0.531,-0.759 0.531,-0.78C0.531,-0.801 0.514,-0.818 0.493,-0.818C0.472,-0.818 0.455,-0.801 0.455,-0.78Z" style="fill:rgb(202,69,42);fill-rule:nonzero;"/></g><g transform="matrix(60,0,0,60,1472.11,1008.08)"><path d="M0.42,-0L0.202,-0.315C0.217,-0.315 0.249,-0.316 0.284,-0.328C0.367,-0.356 0.396,-0.424 0.396,-0.49C0.396,-0.542 0.379,-0.597 0.327,-0.633C0.283,-0.663 0.237,-0.667 0.186,-0.667L0.09,-0.667L0.09,-0L0.134,-0L0.134,-0.315L0.154,-0.315L0.37,-0L0.42,-0ZM0.134,-0.627L0.189,-0.627C0.215,-0.627 0.263,-0.623 0.291,-0.607C0.317,-0.593 0.35,-0.558 0.35,-0.491C0.35,-0.405 0.293,-0.355 0.198,-0.355L0.134,-0.355L0.134,-0.627Z" style="fill:rgb(202,69,42);fill-rule:nonzero;"/></g><g transform="matrix(60,0,0,60,1500.19,1008.08)"><path d="M0.09,-0.667L0.09,-0.25C0.09,-0.177 0.094,-0.129 0.128,-0.079C0.178,-0.006 0.257,0.011 0.317,0.011C0.377,0.011 0.456,-0.006 0.506,-0.079C0.54,-0.129 0.544,-0.177 0.544,-0.25L0.544,-0.667L0.5,-0.667L0.5,-0.25C0.5,-0.187 0.497,-0.146 0.472,-0.106C0.433,-0.043 0.36,-0.029 0.317,-0.029C0.274,-0.029 0.201,-0.043 0.162,-0.106C0.137,-0.146 0.134,-0.187 0.134,-0.25L0.134,-0.667L0.09,-0.667Z" style="fill:rgb(202,69,42);fill-rule:nonzero;"/></g><g transform="matrix(60,0,0,60,1538.23,1008.08)"><path d="M0.134,-0L0.134,-0.569L0.694,0.017L0.694,-0.667L0.65,-0.667L0.65,-0.088L0.09,-0.674L0.09,-0L0.134,-0Z" style="fill:rgb(202,69,42);fill-rule:nonzero;"/></g><g transform="matrix(60,0,0,60,1585.27,1008.08)"><path d="M0.438,-0.28L0.674,-0.28C0.672,-0.237 0.656,-0.182 0.63,-0.142C0.594,-0.087 0.512,-0.029 0.398,-0.029C0.226,-0.029 0.1,-0.163 0.1,-0.33C0.1,-0.5 0.23,-0.636 0.401,-0.636C0.484,-0.636 0.55,-0.601 0.592,-0.566C0.61,-0.551 0.637,-0.524 0.656,-0.492L0.691,-0.52C0.664,-0.558 0.639,-0.582 0.611,-0.604C0.559,-0.644 0.496,-0.676 0.402,-0.676C0.208,-0.676 0.054,-0.53 0.054,-0.332C0.054,-0.133 0.203,0.011 0.399,0.011C0.501,0.011 0.591,-0.026 0.65,-0.101C0.705,-0.171 0.718,-0.259 0.718,-0.32L0.438,-0.32L0.438,-0.28Z" style="fill:rgb(202,69,42);fill-rule:nonzero;"/></g></g><g transform="matrix(1.48129,0,0,1.48129,112.167,-769.185)"><g transform="matrix(60,0,0,60,1037.15,1107.52)"><path d="M0.014,-0.667L0.258,0.027L0.496,-0.667L0.448,-0.667L0.258,-0.099L0.062,-0.667L0.014,-0.667Z" style="fill:rgb(202,69,42);fill-rule:nonzero;"/></g><g transform="matrix(60,0,0,60,1067.75,1107.52)"><path d="M0.41,-0.667L0.09,-0.667L0.09,-0L0.41,-0L0.41,-0.04L0.134,-0.04L0.134,-0.345L0.404,-0.345L0.404,-0.385L0.134,-0.385L0.134,-0.627L0.41,-0.627L0.41,-0.667Z" style="fill:rgb(202,69,42);fill-rule:nonzero;"/></g><g transform="matrix(60,0,0,60,1095.59,1107.52)"><path d="M0.42,-0L0.202,-0.315C0.217,-0.315 0.249,-0.316 0.284,-0.328C0.367,-0.356 0.396,-0.424 0.396,-0.49C0.396,-0.542 0.379,-0.597 0.327,-0.633C0.283,-0.663 0.237,-0.667 0.186,-0.667L0.09,-0.667L0.09,-0L0.134,-0L0.134,-0.315L0.154,-0.315L0.37,-0L0.42,-0ZM0.134,-0.627L0.189,-0.627C0.215,-0.627 0.263,-0.623 0.291,-0.607C0.317,-0.593 0.35,-0.558 0.35,-0.491C0.35,-0.405 0.293,-0.355 0.198,-0.355L0.134,-0.355L0.134,-0.627Z" style="fill:rgb(202,69,42);fill-rule:nonzero;"/></g><g transform="matrix(60,0,0,60,1121.81,1107.52)"><path d="M0.524,-0L0.572,-0L0.295,-0.687L0.014,-0L0.062,-0L0.151,-0.219L0.435,-0.219L0.524,-0ZM0.167,-0.259L0.294,-0.575L0.419,-0.259L0.167,-0.259Z" style="fill:rgb(202,69,42);fill-rule:nonzero;"/></g><g transform="matrix(60,0,0,60,1156.97,1107.52)"><path d="M0.134,-0L0.134,-0.569L0.694,0.017L0.694,-0.667L0.65,-0.667L0.65,-0.088L0.09,-0.674L0.09,-0L0.134,-0Z" style="fill:rgb(202,69,42);fill-rule:nonzero;"/></g><g transform="matrix(60,0,0,60,1204.01,1107.52)"><path d="M0.404,-0.627L0.404,-0.667L0.014,-0.667L0.014,-0.627L0.187,-0.627L0.187,-0L0.231,-0L0.231,-0.627L0.404,-0.627Z" style="fill:rgb(202,69,42);fill-rule:nonzero;"/></g><g transform="matrix(60,0,0,60,1229.09,1107.52)"><path d="M0.014,-0.667L0.239,0.025L0.487,-0.581L0.713,0.025L0.97,-0.667L0.922,-0.667L0.713,-0.101L0.487,-0.703L0.246,-0.101L0.062,-0.667L0.014,-0.667Z" style="fill:rgb(202,69,42);fill-rule:nonzero;"/></g><g transform="matrix(60,0,0,60,1288.13,1107.52)"><path d="M0.4,-0.676C0.205,-0.676 0.054,-0.524 0.054,-0.332C0.054,-0.14 0.204,0.011 0.4,0.011C0.595,0.011 0.746,-0.14 0.746,-0.332C0.746,-0.524 0.595,-0.676 0.4,-0.676ZM0.4,-0.029C0.228,-0.029 0.1,-0.162 0.1,-0.332C0.1,-0.503 0.228,-0.636 0.4,-0.636C0.572,-0.636 0.7,-0.503 0.7,-0.332C0.7,-0.162 0.572,-0.029 0.4,-0.029Z" style="fill:rgb(202,69,42);fill-rule:nonzero;"/></g><g transform="matrix(60,0,0,60,1336.13,1107.52)"><path d="M0.42,-0L0.202,-0.315C0.217,-0.315 0.249,-0.316 0.284,-0.328C0.367,-0.356 0.396,-0.424 0.396,-0.49C0.396,-0.542 0.379,-0.597 0.327,-0.633C0.283,-0.663 0.237,-0.667 0.186,-0.667L0.09,-0.667L0.09,-0L0.134,-0L0.134,-0.315L0.154,-0.315L0.37,-0L0.42,-0ZM0.134,-0.627L0.189,-0.627C0.215,-0.627 0.263,-0.623 0.291,-0.607C0.317,-0.593 0.35,-0.558 0.35,-0.491C0.35,-0.405 0.293,-0.355 0.198,-0.355L0.134,-0.355L0.134,-0.627Z" style="fill:rgb(202,69,42);fill-rule:nonzero;"/></g><g transform="matrix(60,0,0,60,1362.35,1107.52)"><path d="M0.404,-0.627L0.404,-0.667L0.014,-0.667L0.014,-0.627L0.187,-0.627L0.187,-0L0.231,-0L0.231,-0.627L0.404,-0.627Z" style="fill:rgb(202,69,42);fill-rule:nonzero;"/></g><g transform="matrix(60,0,0,60,1387.43,1107.52)"><path d="M0.09,-0.667L0.09,-0.25C0.09,-0.177 0.094,-0.129 0.128,-0.079C0.178,-0.006 0.257,0.011 0.317,0.011C0.377,0.011 0.456,-0.006 0.506,-0.079C0.54,-0.129 0.544,-0.177 0.544,-0.25L0.544,-0.667L0.5,-0.667L0.5,-0.25C0.5,-0.187 0.497,-0.146 0.472,-0.106C0.433,-0.043 0.36,-0.029 0.317,-0.029C0.274,-0.029 0.201,-0.043 0.162,-0.106C0.137,-0.146 0.134,-0.187 0.134,-0.25L0.134,-0.667L0.09,-0.667Z" style="fill:rgb(202,69,42);fill-rule:nonzero;"/></g><g transform="matrix(60,0,0,60,1425.47,1107.52)"><path d="M0.134,-0L0.134,-0.569L0.694,0.017L0.694,-0.667L0.65,-0.667L0.65,-0.088L0.09,-0.674L0.09,-0L0.134,-0Z" style="fill:rgb(202,69,42);fill-rule:nonzero;"/></g><g transform="matrix(60,0,0,60,1472.51,1107.52)"><path d="M0.438,-0.28L0.674,-0.28C0.672,-0.237 0.656,-0.182 0.63,-0.142C0.594,-0.087 0.512,-0.029 0.398,-0.029C0.226,-0.029 0.1,-0.163 0.1,-0.33C0.1,-0.5 0.23,-0.636 0.401,-0.636C0.484,-0.636 0.55,-0.601 0.592,-0.566C0.61,-0.551 0.637,-0.524 0.656,-0.492L0.691,-0.52C0.664,-0.558 0.639,-0.582 0.611,-0.604C0.559,-0.644 0.496,-0.676 0.402,-0.676C0.208,-0.676 0.054,-0.53 0.054,-0.332C0.054,-0.133 0.203,0.011 0.399,0.011C0.501,0.011 0.591,-0.026 0.65,-0.101C0.705,-0.171 0.718,-0.259 0.718,-0.32L0.438,-0.32L0.438,-0.28Z" style="fill:rgb(202,69,42);fill-rule:nonzero;"/></g></g><g transform="matrix(1.24447,0,0,1.24447,215.819,-739.178)"><g transform="matrix(60,0,0,60,1491.5,1191.2)"><path d="M0.41,-0.667L0.09,-0.667L0.09,-0L0.41,-0L0.41,-0.04L0.134,-0.04L0.134,-0.345L0.404,-0.345L0.404,-0.385L0.134,-0.385L0.134,-0.627L0.41,-0.627L0.41,-0.667Z" style="fill:rgb(202,69,42);fill-rule:nonzero;"/></g><g transform="matrix(60,0,0,60,1519.34,1191.2)"><path d="M0.134,-0L0.134,-0.569L0.694,0.017L0.694,-0.667L0.65,-0.667L0.65,-0.088L0.09,-0.674L0.09,-0L0.134,-0Z" style="fill:rgb(202,69,42);fill-rule:nonzero;"/></g><g transform="matrix(60,0,0,60,1566.38,1191.2)"><path d="M0.404,-0.627L0.404,-0.667L0.014,-0.667L0.014,-0.627L0.187,-0.627L0.187,-0L0.231,-0L0.231,-0.627L0.404,-0.627Z" style="fill:rgb(202,69,42);fill-rule:nonzero;"/></g><g transform="matrix(60,0,0,60,1591.46,1191.2)"><path d="M0.09,-0.667L0.09,-0L0.32,-0L0.32,-0.04L0.134,-0.04L0.134,-0.667L0.09,-0.667Z" style="fill:rgb(202,69,42);fill-rule:nonzero;"/></g><g transform="matrix(60,0,0,60,1612.76,1191.2)"><path d="M0.524,-0L0.572,-0L0.295,-0.687L0.014,-0L0.062,-0L0.151,-0.219L0.435,-0.219L0.524,-0ZM0.167,-0.259L0.294,-0.575L0.419,-0.259L0.167,-0.259Z" style="fill:rgb(202,69,42);fill-rule:nonzero;"/></g><g transform="matrix(60,0,0,60,1646.06,1191.2)"><path d="M0.426,-0.581C0.392,-0.644 0.331,-0.676 0.264,-0.676C0.145,-0.676 0.093,-0.587 0.093,-0.51C0.093,-0.484 0.099,-0.459 0.114,-0.434C0.137,-0.396 0.17,-0.378 0.236,-0.346C0.291,-0.319 0.33,-0.299 0.349,-0.288C0.4,-0.257 0.414,-0.219 0.414,-0.183C0.414,-0.095 0.343,-0.029 0.253,-0.029C0.207,-0.029 0.158,-0.048 0.128,-0.086C0.118,-0.098 0.101,-0.124 0.092,-0.15L0.054,-0.132C0.06,-0.115 0.071,-0.089 0.097,-0.059C0.122,-0.03 0.166,0.011 0.252,0.011C0.366,0.011 0.46,-0.072 0.46,-0.184C0.46,-0.258 0.418,-0.293 0.389,-0.313C0.355,-0.337 0.322,-0.351 0.256,-0.383C0.189,-0.416 0.139,-0.44 0.139,-0.512C0.139,-0.579 0.184,-0.636 0.263,-0.636C0.281,-0.636 0.353,-0.634 0.394,-0.554L0.426,-0.581Z" style="fill:rgb(202,69,42);fill-rule:nonzero;"/></g><g transform="matrix(60,0,0,60,1674.44,1191.2)"><path d="M0.404,-0.627L0.404,-0.667L0.014,-0.667L0.014,-0.627L0.187,-0.627L0.187,-0L0.231,-0L0.231,-0.627L0.404,-0.627Z" style="fill:rgb(202,69,42);fill-rule:nonzero;"/></g><g transform="matrix(60,0,0,60,1699.52,1191.2)"><path d="M0.09,-0.667L0.09,-0.25C0.09,-0.177 0.094,-0.129 0.128,-0.079C0.178,-0.006 0.257,0.011 0.317,0.011C0.377,0.011 0.456,-0.006 0.506,-0.079C0.54,-0.129 0.544,-0.177 0.544,-0.25L0.544,-0.667L0.5,-0.667L0.5,-0.25C0.5,-0.187 0.497,-0.146 0.472,-0.106C0.433,-0.043 0.36,-0.029 0.317,-0.029C0.274,-0.029 0.201,-0.043 0.162,-0.106C0.137,-0.146 0.134,-0.187 0.134,-0.25L0.134,-0.667L0.09,-0.667Z" style="fill:rgb(202,69,42);fill-rule:nonzero;"/></g><g transform="matrix(60,0,0,60,1737.56,1191.2)"><path d="M0.134,-0L0.134,-0.569L0.694,0.017L0.694,-0.667L0.65,-0.667L0.65,-0.088L0.09,-0.674L0.09,-0L0.134,-0Z" style="fill:rgb(202,69,42);fill-rule:nonzero;"/></g><g transform="matrix(60,0,0,60,1784.6,1191.2)"><path d="M0.438,-0.28L0.674,-0.28C0.672,-0.237 0.656,-0.182 0.63,-0.142C0.594,-0.087 0.512,-0.029 0.398,-0.029C0.226,-0.029 0.1,-0.163 0.1,-0.33C0.1,-0.5 0.23,-0.636 0.401,-0.636C0.484,-0.636 0.55,-0.601 0.592,-0.566C0.61,-0.551 0.637,-0.524 0.656,-0.492L0.691,-0.52C0.664,-0.558 0.639,-0.582 0.611,-0.604C0.559,-0.644 0.496,-0.676 0.402,-0.676C0.208,-0.676 0.054,-0.53 0.054,-0.332C0.054,-0.133 0.203,0.011 0.399,0.011C0.501,0.011 0.591,-0.026 0.65,-0.101C0.705,-0.171 0.718,-0.259 0.718,-0.32L0.438,-0.32L0.438,-0.28Z" style="fill:rgb(202,69,42);fill-rule:nonzero;"/></g></g></g></g></svg>