<?xml version="1.0" encoding="UTF-8" standalone="no"?>
<!DOCTYPE svg PUBLIC "-//W3C//DTD SVG 1.1//EN" "http://www.w3.org/Graphics/SVG/1.1/DTD/svg11.dtd">
<svg width="100%" height="100%" viewBox="0 0 1750 1750" version="1.1" xmlns="http://www.w3.org/2000/svg" xmlns:xlink="http://www.w3.org/1999/xlink" xml:space="preserve" xmlns:serif="http://www.serif.com/" style="fill-rule:evenodd;clip-rule:evenodd;stroke-linejoin:round;stroke-miterlimit:2;">
    <g transform="matrix(1,0,0,1,-125,-125)">
        <path d="M1791.83,627.237C1789.3,621.875 1784.62,617.838 1778.94,616.132C1773.26,614.416 1767.13,615.199 1762.06,618.28C1739.19,632.163 1712.84,639.5 1685.86,639.5C1634.08,639.5 1587.05,613.092 1560.06,568.859C1556.62,563.218 1550.72,559.535 1544.13,558.925C1537.61,558.343 1531.08,560.856 1526.65,565.768C1498.75,596.799 1458.82,614.593 1417.1,614.593C1335.88,614.593 1269.8,548.515 1269.8,467.29C1269.8,451.637 1272.22,436.294 1277,421.689C1278.86,415.966 1278.18,409.716 1275.11,404.535C1272.05,399.357 1266.9,395.748 1260.98,394.635C1191.56,381.579 1141.17,320.726 1141.17,249.943C1141.17,221.401 1149.34,193.737 1164.79,169.944C1168.61,164.051 1169.23,156.626 1166.42,150.185C1163.6,143.744 1157.74,139.145 1150.82,137.947C1101.32,129.354 1050.58,125 1000,125C766.268,125 546.534,216.015 381.269,381.283C216.012,546.544 125,766.278 125,1000C125,1233.72 216.012,1453.45 381.269,1618.72C546.534,1783.98 766.268,1875 1000,1875C1233.72,1875 1453.45,1783.98 1618.72,1618.72C1783.98,1453.45 1875,1233.72 1875,1000C1875,869.654 1847.02,744.241 1791.83,627.237Z"
              style="fill:rgb(221,221,221);"/>
    </g>
</svg>
