<?xml version="1.0" encoding="UTF-8" standalone="no"?><!DOCTYPE svg PUBLIC "-//W3C//DTD SVG 1.1//EN" "http://www.w3.org/Graphics/SVG/1.1/DTD/svg11.dtd"><svg width="100%" height="100%" viewBox="0 0 1064 242" version="1.1" xmlns="http://www.w3.org/2000/svg" xmlns:xlink="http://www.w3.org/1999/xlink" xml:space="preserve" xmlns:serif="http://www.serif.com/" style="fill-rule:evenodd;clip-rule:evenodd;stroke-linejoin:round;stroke-miterlimit:2;"><g transform="matrix(1,0,0,1,-1830.4,-174.642)"><g transform="matrix(1,0,0,1,1777.56,51.2182)"><g transform="matrix(1.13201,0,0,1.13201,-154.986,-56.3107)"><g transform="matrix(1.59102,0,0,1.59102,583.831,-907.597)"><path d="M-27.455,789.712C-27.455,790.76 -26.655,791.559 -25.609,791.559C-24.562,791.559 -23.762,790.76 -23.762,789.712C-23.762,788.663 -24.562,787.865 -25.609,787.865C-26.655,787.865 -27.455,788.663 -27.455,789.712Z" style="fill:rgb(251,250,244);fill-rule:nonzero;"/><path d="M47.343,762.159C45.644,759.01 42.593,757.415 39.241,757.415C33.289,757.415 30.695,761.859 30.695,765.71C30.695,767.01 30.994,768.261 31.742,769.511C32.889,771.411 34.539,772.311 37.841,773.912C40.592,775.262 42.543,776.262 43.493,776.812C46.044,778.363 46.745,780.263 46.745,782.063C46.745,786.464 43.193,789.765 38.691,789.765C36.39,789.765 33.939,788.815 32.44,786.914C31.941,786.314 31.094,785.014 30.645,783.714L28.745,784.614C29.045,785.464 29.595,786.764 30.894,788.264C32.141,789.715 34.339,791.759 38.641,791.759C44.344,791.759 49.038,787.614 49.038,782.013C49.038,778.313 46.944,776.562 45.494,775.562C43.793,774.362 42.143,773.662 38.841,772.061C35.49,770.411 32.988,769.211 32.988,765.61C32.988,762.259 35.24,759.409 39.191,759.409C40.092,759.409 43.693,759.509 45.744,763.51L47.343,762.159Z" style="fill:rgb(251,250,244);fill-rule:nonzero;"/><path d="M109.341,775.359C115.094,775.359 119.038,772.114 119.038,766.562C119.038,760.859 114.744,757.865 109.291,757.865L102.845,757.865L102.845,791.209L105.038,791.209L105.038,775.359L109.341,775.359ZM105.038,759.859L109.091,759.859C113.943,759.859 116.745,762.46 116.745,766.612C116.745,770.814 113.793,773.365 109.441,773.365L105.038,773.365L105.038,759.859Z" style="fill:rgb(251,250,244);fill-rule:nonzero;"/><path d="M189.295,791.209L191.688,791.209L177.842,756.865L163.795,791.209L166.188,791.209L170.64,780.259L184.844,780.259L189.295,791.209ZM171.44,778.265L177.792,762.465L184.043,778.265L171.44,778.265Z" style="fill:rgb(251,250,244);fill-rule:nonzero;"/><path d="M269.188,761.759C268.188,760.809 264.338,757.415 257.988,757.415C248.388,757.415 240.695,765.01 240.695,774.612C240.695,783.914 248.088,791.759 258.088,791.759C261.688,791.759 265.788,790.612 269.188,787.614L269.188,784.714C265.788,788.415 261.338,789.765 257.988,789.765C251.238,789.765 242.988,784.614 242.988,774.712C242.988,766.26 249.388,759.409 257.938,759.409C262.238,759.409 266.338,761.309 269.188,764.66L269.188,761.759Z" style="fill:rgb(251,250,244);fill-rule:nonzero;"/><path d="M338.988,757.865L322.995,757.865L322.995,791.209L338.988,791.209L338.988,789.215L325.188,789.215L325.188,773.959L338.688,773.959L338.688,771.965L325.188,771.965L325.188,759.859L338.988,759.859L338.988,757.865Z" style="fill:rgb(251,250,244);fill-rule:nonzero;"/></g><g transform="matrix(1.34012,0,0,1.34012,545.653,183.383)"><path d="M0,62.629L5.506,12.224L29.957,64.886C30.05,64.886 54.407,12.224 54.407,12.224L59.915,62.629C62.508,62.577 64.019,62.571 64.02,62.629L56.928,-2.257L29.957,55.764L2.987,-2.257L-4.107,62.629L0,62.629Z" style="fill:rgb(251,250,244);fill-rule:nonzero;"/></g><g transform="matrix(1.34012,0,0,1.34012,717.895,235.94)"><path d="M0,-15.891L11.852,13.824L23.517,-15.891L0,-15.891ZM33.317,-40.247L37.796,-40.247L11.946,24.356L-14.28,-40.247L-9.8,-40.247L-1.493,-19.653L25.011,-19.653L33.317,-40.247Z" style="fill:rgb(251,250,244);fill-rule:nonzero;"/></g><g transform="matrix(1.34012,0,0,1.34012,846.021,262.272)"><path d="M0,-55.2L5.133,-55.2C7.559,-55.2 12.038,-54.822 14.652,-53.319C17.079,-52.003 20.159,-48.711 20.159,-42.411C20.159,-34.323 14.839,-29.621 5.973,-29.621L0,-29.621L0,-55.2ZM26.691,3.762L6.346,-25.859C7.746,-25.859 10.732,-25.954 13.999,-27.082C21.746,-29.715 24.451,-36.11 24.451,-42.317C24.451,-47.207 22.865,-52.379 18.011,-55.764C13.906,-58.586 9.613,-58.962 4.853,-58.962L-4.106,-58.962L-4.106,3.762L0,3.762L0,-25.859L1.867,-25.859L22.026,3.762L26.691,3.762Z" style="fill:rgb(251,250,244);fill-rule:nonzero;"/></g><g transform="matrix(1.34012,0,0,1.34012,949.576,262.272)"><path d="M0,-55.2L8.119,-55.2C24.451,-55.2 35.837,-43.633 35.837,-27.552C35.837,-11.284 24.544,0.002 8.119,0.002L0,0.002L0,-55.2ZM8.211,3.762C13.719,3.762 23.332,2.916 31.17,-4.984C37.797,-11.66 40.129,-20.688 40.129,-27.552C40.129,-34.418 37.797,-43.539 31.17,-50.216C23.332,-58.116 13.719,-58.962 8.211,-58.962L-4.106,-58.962L-4.106,3.762L8.211,3.762Z" style="fill:rgb(251,250,244);fill-rule:nonzero;"/></g><g transform="matrix(1.34012,0,0,1.34012,1066.39,268.7)"><path d="M0,-63.759L0,-24.545C0,-17.68 0.373,-13.165 3.546,-8.464C8.211,-1.598 15.586,0 21.185,0C26.784,0 34.156,-1.598 38.823,-8.464C41.996,-13.165 42.369,-17.68 42.369,-24.545L42.369,-63.759L38.263,-63.759L38.263,-24.545C38.263,-18.62 37.983,-14.764 35.649,-11.002C32.01,-5.079 25.197,-3.762 21.185,-3.762C17.171,-3.762 10.359,-5.079 6.718,-11.002C4.386,-14.764 4.107,-18.62 4.107,-24.545L4.107,-63.759L0,-63.759Z" style="fill:rgb(251,250,244);fill-rule:nonzero;"/></g></g><g transform="matrix(1.13201,0,0,1.13201,-154.986,-56.3107)"><g transform="matrix(1.34012,0,0,1.34012,407.3,249.902)"><path d="M0,-67.598L-80.732,-20.989C-81.658,-20.455 -82.227,-19.467 -82.227,-18.399C-82.227,-17.331 -81.658,-16.343 -80.732,-15.809L-53.093,0.133C-52.638,0.397 -52.124,0.534 -51.599,0.534L-50.824,0.534C-50.299,0.534 -49.784,0.395 -49.329,0.133L2.583,-29.844C3.033,-30.104 3.407,-30.478 3.67,-30.926L4.076,-31.622C4.343,-32.078 4.484,-32.599 4.484,-33.128L4.484,-65.01C4.484,-66.076 3.914,-67.064 2.99,-67.598C2.065,-68.132 0.926,-68.132 0,-67.598" style="fill:rgb(141,105,191);"/></g><g transform="matrix(1.34012,0,0,1.34012,458.686,350.809)"><path d="M0,-81.292C0.925,-80.758 1.495,-79.772 1.495,-78.704L1.495,-78.702C1.495,-77.634 0.925,-76.646 0,-76.112L-49.724,-47.398C-50.648,-46.865 -51.218,-45.877 -51.218,-44.808L-51.218,12.605C-51.218,14.907 -53.708,16.343 -55.701,15.193L-83.312,-0.747C-83.772,-1.014 -84.154,-1.396 -84.417,-1.859L-84.807,-2.544C-85.063,-2.995 -85.196,-3.504 -85.196,-4.022C-85.196,-4.022 -85.279,-53.613 -85.196,-63.892C-85.191,-64.515 -85.002,-65.149 -84.698,-65.693C-84.384,-66.256 -83.907,-66.9 -83.312,-67.266C-79.873,-69.38 -64.067,-78.375 -64.067,-78.375L-31.404,-97.235C-30.95,-97.498 -30.433,-97.635 -29.908,-97.635L-29.115,-97.635C-28.59,-97.635 -28.075,-97.498 -27.621,-97.235L0,-81.292Z" style="fill:rgb(141,105,191);"/></g><g transform="matrix(1.34012,0,0,1.34012,332.187,329.197)"><path d="M0,-49.881C-0.264,-50.34 -0.643,-50.723 -1.102,-50.986L-24.166,-64.292L-24.166,-64.302C-24.166,-64.302 -48.623,-78.641 -53.996,-81.508C-54.704,-81.886 -55.696,-81.886 -56.404,-81.508C-61.778,-78.641 -86.241,-64.302 -86.241,-64.302L-86.241,-64.275L-108.99,-51.138C-109.449,-50.873 -109.829,-50.491 -110.092,-50.031L-110.484,-49.344C-110.742,-48.891 -110.879,-48.38 -110.879,-47.861L-110.879,-15.966C-110.879,-14.898 -110.307,-13.91 -109.382,-13.376C-108.458,-12.842 -107.319,-12.842 -106.393,-13.376L-56.698,-42.067C-55.772,-42.601 -54.633,-42.601 -53.707,-42.067L-34.723,-31.106C-33.799,-30.572 -33.228,-29.586 -33.228,-28.518L-33.228,28.877C-33.228,29.947 -32.656,30.935 -31.729,31.469L-31.724,31.472C-30.8,32.005 -29.662,32.003 -28.738,31.471L-1.102,15.53C-0.643,15.264 -0.264,14.882 0,14.422L0.391,13.735C0.65,13.283 0.786,12.773 0.786,12.253L0.786,-47.711C0.786,-48.233 0.65,-48.744 0.391,-49.196L0,-49.881Z" style="fill:rgb(141,105,191);"/></g></g></g></g></svg>