<?xml version="1.0" encoding="UTF-8" standalone="no"?><!DOCTYPE svg PUBLIC "-//W3C//DTD SVG 1.1//EN" "http://www.w3.org/Graphics/SVG/1.1/DTD/svg11.dtd"><svg width="100%" height="100%" viewBox="0 0 537 267" version="1.1" xmlns="http://www.w3.org/2000/svg" xmlns:xlink="http://www.w3.org/1999/xlink" xml:space="preserve" xmlns:serif="http://www.serif.com/" style="fill-rule:evenodd;clip-rule:evenodd;stroke-linejoin:round;stroke-miterlimit:2;"><g transform="matrix(1,0,0,1,-271.538,-149.903)"><g transform="matrix(1,0,0,1,170,0)"><g transform="matrix(4.16667,0,0,4.16667,-1.69538,-289.363)"><path d="M46.109,113.766C47.183,115.469 48.024,115.44 49.295,115.44C48.245,114.637 47.552,113.602 47.22,113.073L45.255,109.931C45.063,108.963 44.562,108.057 43.811,107.38C44.062,107.287 44.275,107.184 44.398,107.089C43.118,107.089 41.847,106.437 41.145,106.437C40.699,106.437 40.407,106.708 40.407,107.061C40.437,107.459 40.846,107.86 41.597,107.86C41.769,107.86 41.986,107.84 42.225,107.799C42.634,108.365 42.963,108.877 42.963,109.611C42.963,110.99 41.318,112.06 39.656,112.06C39.563,112.06 39.473,112.057 39.382,112.048C39.23,111.708 38.73,111.138 38.73,110.485C38.73,109.39 39.443,108.5 39.443,107.418C39.443,106.745 39.116,106.327 38.989,106.154C39.193,105.966 39.415,105.731 39.468,105.572C39.349,105.625 39.21,105.629 39.004,105.629C38.208,105.629 37.556,105.424 36.925,105.424C36.564,105.424 36.47,105.535 36.47,105.641C36.47,105.678 36.474,105.719 36.486,105.74C36.351,105.686 36.224,105.654 36.072,105.625C35.888,105.588 35.686,105.572 35.473,105.572C34.703,105.572 34.432,105.891 34.432,106.17C34.432,106.405 34.616,106.827 34.825,107.155C35.125,107.003 35.482,106.9 35.645,106.9C36.056,106.9 36.416,107.29 36.609,107.75C36.334,107.782 36.281,107.795 36.007,107.795C35.256,107.795 34.748,107.528 34.645,107.528C34.632,107.528 34.612,107.532 34.612,107.549C34.612,107.655 34.825,107.93 35.243,108.081C35.793,108.287 36.622,108.369 36.757,108.393C36.757,108.418 36.618,108.677 36.461,108.726C36.429,108.738 36.405,108.738 36.364,108.73C35.789,108.615 35.629,108.57 34.899,108.291C34.875,108.283 34.862,108.296 34.862,108.32C34.862,108.606 35.609,109.247 36.281,109.488C35.719,110.207 35.022,110.936 34.694,112.048C34.6,112.057 34.509,112.06 34.415,112.06C32.754,112.06 31.109,110.99 31.109,109.611C31.109,108.877 31.437,108.365 31.848,107.799C32.085,107.84 32.302,107.86 32.475,107.86C33.225,107.86 33.636,107.459 33.664,107.061C33.664,106.708 33.377,106.437 32.926,106.437C32.224,106.437 30.957,107.089 29.674,107.089C29.801,107.184 30.01,107.287 30.26,107.38C29.509,108.057 29.009,108.963 28.816,109.931L26.856,113.073C26.524,113.602 25.826,114.637 24.776,115.44C26.043,115.44 26.888,115.469 27.964,113.766L28.968,112.159C29.046,112.367 29.136,112.569 29.243,112.77L27.241,115.973C26.909,116.507 26.216,117.527 25.162,118.34C26.434,118.34 27.274,118.368 28.349,116.666L30.071,113.91C30.202,114.045 30.338,114.181 30.482,114.308L28.05,118.2C27.713,118.734 27.028,119.755 25.97,120.563C27.241,120.563 28.082,120.595 29.156,118.893L31.527,115.1C31.684,115.198 31.843,115.293 32.011,115.383L29.115,120.018C28.784,120.547 28.095,121.563 27.036,122.38C28.308,122.38 29.149,122.409 30.227,120.711L33.205,115.941C33.382,116.006 33.562,116.072 33.743,116.129L30.375,121.518C30.047,122.043 29.341,123.082 28.3,123.881C29.567,123.881 30.412,123.91 31.482,122.211L35.071,116.47C35.108,116.474 35.145,116.477 35.182,116.486C35.28,116.797 35.346,117.089 35.346,117.376C35.346,119.181 34.165,120.776 32.741,122.006C32.831,122.043 32.992,122.06 33.135,122.06C33.431,122.06 33.619,122.043 33.754,122.019C33.423,122.77 32.717,123.738 32.36,124.234C31.893,124.152 31.215,124.087 30.772,124.087C30.309,124.087 30.256,124.356 30.256,124.599C30.256,125.021 30.453,125.358 30.682,125.542C30.768,125.329 30.941,125.042 31.798,125.042C31.815,125.042 31.848,125.042 31.884,125.046C31.634,125.324 30.851,125.957 30.851,126.469C30.851,126.805 31.22,127.314 31.712,127.314C31.684,127.203 31.684,127.105 31.684,127.027C31.684,126.617 32.052,126.133 32.36,125.793C32.352,125.895 32.356,125.883 32.356,126.002C32.356,126.977 32.446,127.429 33.066,127.429C33.369,127.429 33.578,127.261 33.653,127.211C33.25,126.839 33.229,126.547 33.229,126.002C33.229,125.858 33.229,125.718 33.234,125.526C33.234,125.399 33.229,125.234 33.214,125.111C33.435,125.083 33.525,125.083 33.693,125.083C33.693,125.083 34.575,125.013 34.789,125.473C35.026,125.251 35.375,124.943 35.375,124.603C35.375,124.377 35.268,124.119 34.813,124.119C34.641,124.119 34.099,124.225 33.648,124.225C33.771,123.955 34.313,123.164 34.78,122.589C34.85,122.811 34.961,123.052 35.207,123.25C35.243,122.88 35.456,121.711 36.035,121.027C36.105,121.49 36.195,121.961 36.195,122.962C36.195,125.391 35.609,127.187 34.37,127.527C34.53,127.81 34.875,128.061 35.228,128.061C35.678,128.061 35.929,127.547 36.179,127.064C36.31,127.42 36.671,128.298 37.036,128.298C37.401,128.298 37.762,127.42 37.893,127.064C38.143,127.547 38.393,128.061 38.845,128.061C39.202,128.061 39.542,127.81 39.702,127.527C38.464,127.187 37.877,125.391 37.877,122.962C37.877,121.961 37.967,121.49 38.036,121.027C38.615,121.711 38.832,122.88 38.865,123.25C39.111,123.052 39.222,122.811 39.292,122.589C39.759,123.164 40.301,123.955 40.424,124.225C39.972,124.225 39.431,124.119 39.258,124.119C38.804,124.119 38.697,124.377 38.697,124.603C38.697,124.943 39.045,125.251 39.284,125.473C39.497,125.013 40.379,125.083 40.379,125.083C40.551,125.083 40.641,125.083 40.863,125.111C40.842,125.234 40.838,125.399 40.842,125.526L40.842,126.002C40.842,126.547 40.822,126.839 40.42,127.211C40.493,127.261 40.702,127.429 41.006,127.429C41.625,127.429 41.715,126.977 41.715,126.002C41.715,125.883 41.72,125.895 41.711,125.793C42.019,126.133 42.389,126.617 42.389,127.027C42.389,127.105 42.393,127.203 42.36,127.314C42.852,127.314 43.221,126.805 43.221,126.469C43.221,125.957 42.438,125.324 42.188,125.046C42.229,125.042 42.257,125.042 42.274,125.042C43.131,125.042 43.303,125.329 43.389,125.542C43.619,125.358 43.815,125.021 43.815,124.599C43.815,124.356 43.763,124.087 43.299,124.087C42.856,124.087 42.18,124.152 41.711,124.234C41.355,123.738 40.65,122.77 40.317,122.019C40.452,122.043 40.641,122.06 40.936,122.06C41.084,122.06 41.24,122.043 41.33,122.006C39.912,120.776 38.726,119.181 38.726,117.376C38.726,117.089 38.791,116.797 38.89,116.486C38.927,116.477 38.963,116.474 39,116.47L42.589,122.211C43.664,123.91 44.505,123.881 45.776,123.881C44.73,123.082 44.025,122.043 43.697,121.518L40.329,116.129C40.514,116.072 40.691,116.006 40.867,115.941L43.849,120.711C44.923,122.409 45.764,122.38 47.036,122.38C45.977,121.563 45.293,120.547 44.956,120.018L42.064,115.383C42.229,115.293 42.389,115.198 42.544,115.1L44.915,118.893C45.99,120.595 46.83,120.563 48.102,120.563C47.043,119.755 46.359,118.734 46.023,118.2L43.59,114.308C43.734,114.181 43.869,114.045 43.996,113.91L45.723,116.666C46.797,118.368 47.639,118.34 48.91,118.34C47.856,117.527 47.167,116.507 46.83,115.973L44.829,112.77C44.936,112.569 45.03,112.367 45.104,112.159L46.109,113.766ZM30.038,110.08C30.038,108.881 30.908,107.939 31.215,107.672C31.29,107.688 31.364,107.704 31.437,107.721C31.109,108.119 30.535,108.783 30.535,109.665C30.535,111.416 32.405,112.938 34.526,112.938C34.514,113.09 34.505,113.245 34.505,113.41C34.505,113.668 34.518,113.906 34.542,114.131C32.147,114.119 30.038,112.175 30.038,110.08ZM33.287,124.439L33.27,124.48L33.311,124.48C33.984,124.48 34.313,124.431 34.53,124.397C34.645,124.386 34.727,124.369 34.813,124.369C34.985,124.369 35.12,124.39 35.12,124.603C35.12,124.747 34.952,124.972 34.789,125.103C34.542,124.874 34.197,124.825 33.693,124.825C33.459,124.825 33.147,124.87 32.984,124.89L32.958,124.894L32.93,124.898L32.939,124.976C32.958,125.116 32.984,125.288 32.984,125.526L32.979,125.735L32.975,126.002C32.975,126.572 33.053,126.895 33.255,127.142C33.205,127.162 33.119,127.179 33.066,127.179C32.709,127.179 32.606,127.022 32.606,126.002C32.606,125.797 32.598,125.604 32.59,125.477L32.577,125.284L32.536,125.32C32.007,125.722 31.466,126.441 31.433,126.977C31.273,126.875 31.101,126.645 31.101,126.469C31.101,126.174 31.544,125.735 32.052,125.227L32.343,124.931L32.385,124.894L32.286,124.87C32.175,124.84 31.975,124.791 31.798,124.791C31.228,124.791 30.871,124.898 30.65,125.14C30.568,125.025 30.503,124.754 30.503,124.599C30.503,124.496 30.522,124.427 30.563,124.386C30.613,124.336 30.69,124.336 30.761,124.336L30.772,124.336C31.404,124.336 32.159,124.451 32.45,124.496L32.471,124.5L32.479,124.488C32.532,124.418 33.734,122.819 34.046,121.97C34.116,121.941 34.178,121.92 34.305,121.92C34.542,121.92 34.608,122.08 34.673,122.327C33.922,123.241 33.455,123.951 33.287,124.439ZM39.768,121.92C39.895,121.92 39.956,121.941 40.03,121.97C40.342,122.819 41.543,124.418 41.593,124.488L41.605,124.5L41.621,124.496C41.917,124.451 42.668,124.336 43.299,124.336L43.316,124.336C43.381,124.336 43.458,124.336 43.508,124.386C43.549,124.427 43.57,124.496 43.57,124.599C43.57,124.754 43.504,125.025 43.422,125.14C43.204,124.898 42.843,124.791 42.274,124.791C42.101,124.791 41.896,124.84 41.786,124.87L41.741,124.881L41.691,124.894L42.019,125.227C42.532,125.735 42.971,126.174 42.971,126.469C42.971,126.645 42.799,126.875 42.643,126.977C42.606,126.441 42.064,125.722 41.535,125.32L41.49,125.284L41.482,125.477C41.478,125.604 41.466,125.797 41.466,126.002C41.466,127.022 41.358,127.179 41.006,127.179C40.953,127.179 40.871,127.162 40.818,127.142C41.018,126.895 41.096,126.572 41.096,126.002L41.093,125.735L41.089,125.526C41.089,125.288 41.113,125.116 41.134,124.976L41.141,124.898L41.089,124.89C40.92,124.87 40.613,124.825 40.379,124.825C39.874,124.825 39.529,124.874 39.284,125.103C39.12,124.972 38.951,124.747 38.951,124.603C38.951,124.39 39.082,124.369 39.258,124.369C39.345,124.369 39.428,124.386 39.542,124.397C39.759,124.431 40.088,124.48 40.76,124.48L40.801,124.48L40.788,124.439C40.616,123.951 40.149,123.241 39.398,122.327C39.464,122.08 39.529,121.92 39.768,121.92ZM36.986,107.959C36.909,107.647 36.753,107.327 36.547,107.085C36.364,106.868 36.06,106.609 35.645,106.609C35.456,106.609 35.145,106.695 34.944,106.781C34.871,106.646 34.722,106.318 34.722,106.17C34.722,106.019 34.981,105.863 35.473,105.863C36.556,105.863 37.204,106.351 37.204,107.171C37.204,107.463 37.089,107.725 36.986,107.959ZM37.47,106.889C37.434,106.659 37.343,106.45 37.208,106.269C37.216,106.056 37.302,105.85 37.647,106.019C37.463,106.207 37.602,106.544 37.602,106.544C37.602,106.544 37.984,106.368 37.901,106.117C38.464,106.252 38.061,107.003 37.47,106.889ZM39.579,114.131C39.607,113.897 39.624,113.656 39.624,113.41C39.624,113.275 39.624,113.114 39.607,112.938C41.704,112.905 43.537,111.4 43.537,109.665C43.537,108.783 42.963,108.119 42.638,107.721C42.709,107.704 42.782,107.688 42.856,107.672C43.163,107.939 44.033,108.881 44.033,110.08C44.033,112.159 41.954,114.091 39.579,114.131Z" style="fill:rgb(35,31,32);"/></g><g transform="matrix(4.16667,0,0,4.16667,-1.69538,-289.363)"><rect x="55.673" y="106.474" width="3.675" height="21" style="fill:rgb(35,31,32);"/></g><g transform="matrix(4.16667,0,0,4.16667,-1.69538,-289.363)"><rect x="55.673" y="127.474" width="3.675" height="21" style="fill:rgb(237,28,36);"/></g><g transform="matrix(4.16667,0,0,4.16667,-1.69538,-289.363)"><rect x="55.673" y="148.474" width="3.675" height="21" style="fill:rgb(244,207,0);"/></g><g transform="matrix(4.16667,0,0,4.16667,-1.69538,-289.363)"><path d="M148.484,109.57C149.115,109.57 149.39,109.985 149.39,110.969L149.39,114.861L150.412,114.861L150.412,110.805C150.412,110.575 150.399,110.362 150.363,110.174C150.588,109.911 150.965,109.57 151.523,109.57C152.2,109.57 152.569,109.985 152.569,110.969L152.569,114.861L153.586,114.861L153.586,110.805C153.586,109.365 152.959,108.66 151.749,108.66C150.965,108.66 150.412,109.127 150.149,109.468C149.87,108.927 149.366,108.66 148.685,108.66C147.856,108.66 147.34,109.217 147.176,109.492L147.151,109.492L147.151,108.812L146.216,108.812L146.216,114.861L147.237,114.861L147.237,110.198C147.413,109.985 147.803,109.57 148.484,109.57ZM143.697,114.181L143.722,114.181L143.722,114.861L144.653,114.861L144.653,108.812L143.636,108.812L143.636,113.438C143.43,113.688 143.029,114.107 142.414,114.107C141.733,114.107 141.405,113.701 141.405,112.709L141.405,108.812L140.383,108.812L140.383,112.782C140.383,114.419 141.052,115.013 142.122,115.013C143.041,115.013 143.583,114.394 143.697,114.181ZM138.858,108.812L137.836,108.812L137.836,114.861L138.858,114.861L138.858,108.812ZM138.353,107.352C138.759,107.352 139.034,107.048 139.034,106.622C139.034,106.203 138.759,105.904 138.353,105.904C137.939,105.904 137.66,106.203 137.66,106.622C137.66,107.048 137.939,107.352 138.353,107.352ZM136.954,108.799C136.856,108.763 136.692,108.701 136.401,108.701C135.634,108.701 135.306,109.152 135.129,109.632L135.105,109.632L135.105,108.812L134.169,108.812L134.169,114.861L135.191,114.861L135.191,110.428C135.342,110.022 135.683,109.608 136.327,109.608C136.601,109.608 136.778,109.681 136.831,109.706L136.954,108.799ZM132.935,114.295L132.558,113.578C132.418,113.713 132.004,114.107 131.286,114.107C130.265,114.107 129.711,113.438 129.649,112.027L132.734,112.027C132.771,111.736 132.812,111.371 132.812,110.854C132.812,109.406 132.106,108.66 130.957,108.66C129.699,108.66 128.653,109.62 128.653,111.76C128.653,114.041 129.608,115.013 131.134,115.013C132.283,115.013 132.771,114.472 132.935,114.295ZM130.897,109.492C131.536,109.492 131.876,109.985 131.876,110.818C131.876,111.007 131.865,111.17 131.852,111.256L129.662,111.256C129.711,110.125 130.177,109.492 130.897,109.492ZM128.022,114.747L127.886,113.931C127.783,113.992 127.558,114.107 127.254,114.107C126.738,114.107 126.537,113.852 126.537,112.995L126.537,109.645L127.857,109.645L127.984,108.812L126.537,108.812L126.537,107.126L125.63,107.126L125.515,108.812L124.786,108.963L124.786,109.645L125.515,109.645L125.515,113.135C125.515,114.472 126.045,115.013 127.078,115.013C127.62,115.013 127.936,114.813 128.022,114.747ZM123.915,109.303C123.715,109.103 123.308,108.66 122.378,108.66C121.393,108.66 120.627,109.329 120.627,110.222C120.627,111.055 121.081,111.547 121.836,112.027L122.213,112.266C122.792,112.63 123.095,112.831 123.095,113.414C123.095,113.804 122.768,114.107 122.164,114.107C121.508,114.107 121.131,113.713 120.942,113.512L120.45,114.32C120.687,114.57 121.18,115.013 122.152,115.013C123.387,115.013 124.08,114.271 124.08,113.311C124.08,112.417 123.575,111.925 122.755,111.433L122.378,111.207C121.836,110.878 121.586,110.629 121.586,110.174C121.586,109.821 121.873,109.529 122.415,109.529C122.985,109.529 123.338,109.882 123.473,110.034L123.915,109.303ZM119.306,108.812L118.284,108.812L118.284,114.861L119.306,114.861L119.306,108.812ZM118.801,107.352C119.203,107.352 119.482,107.048 119.482,106.622C119.482,106.203 119.203,105.904 118.801,105.904C118.383,105.904 118.108,106.203 118.108,106.622C118.108,107.048 118.383,107.352 118.801,107.352ZM114.691,109.529C115.397,109.529 115.737,109.948 115.737,110.969L115.737,114.861L116.758,114.861L116.758,110.891C116.758,109.255 116.078,108.66 114.994,108.66C114.047,108.66 113.505,109.279 113.395,109.492L113.37,109.492L113.37,108.812L112.436,108.812L112.436,114.861L113.456,114.861L113.456,110.198C113.658,109.948 114.076,109.529 114.691,109.529ZM110.873,108.812L109.856,108.812L109.856,114.861L110.873,114.861L110.873,108.812ZM110.368,107.352C110.774,107.352 111.05,107.048 111.05,106.622C111.05,106.203 110.774,105.904 110.368,105.904C109.954,105.904 109.679,106.203 109.679,106.622C109.679,107.048 109.954,107.352 110.368,107.352ZM103.227,109.57C103.855,109.57 104.134,109.985 104.134,110.969L104.134,114.861L105.155,114.861L105.155,110.805C105.155,110.575 105.143,110.362 105.101,110.174C105.331,109.911 105.709,109.57 106.263,109.57C106.943,109.57 107.308,109.985 107.308,110.969L107.308,114.861L108.33,114.861L108.33,110.805C108.33,109.365 107.698,108.66 106.488,108.66C105.709,108.66 105.155,109.127 104.888,109.468C104.614,108.927 104.109,108.66 103.429,108.66C102.596,108.66 102.079,109.217 101.915,109.492L101.89,109.492L101.89,108.812L100.959,108.812L100.959,114.861L101.981,114.861L101.981,110.198C102.157,109.985 102.547,109.57 103.227,109.57ZM99.597,109.303C99.396,109.103 98.99,108.66 98.058,108.66C97.079,108.66 96.307,109.329 96.307,110.222C96.307,111.055 96.763,111.547 97.518,112.027L97.895,112.266C98.477,112.63 98.777,112.831 98.777,113.414C98.777,113.804 98.449,114.107 97.845,114.107C97.189,114.107 96.812,113.713 96.623,113.512L96.131,114.32C96.369,114.57 96.861,115.013 97.834,115.013C99.068,115.013 99.762,114.271 99.762,113.311C99.762,112.417 99.257,111.925 98.436,111.433L98.058,111.207C97.518,110.878 97.268,110.629 97.268,110.174C97.268,109.821 97.554,109.529 98.096,109.529C98.666,109.529 99.018,109.882 99.154,110.034L99.597,109.303ZM95.311,114.295L94.934,113.578C94.794,113.713 94.38,114.107 93.662,114.107C92.64,114.107 92.087,113.438 92.025,112.027L95.11,112.027C95.151,111.736 95.188,111.371 95.188,110.854C95.188,109.406 94.482,108.66 93.333,108.66C92.075,108.66 91.029,109.62 91.029,111.76C91.029,114.041 91.984,115.013 93.51,115.013C94.659,115.013 95.151,114.472 95.311,114.295ZM93.273,109.492C93.912,109.492 94.252,109.985 94.252,110.818C94.252,111.007 94.241,111.17 94.228,111.256L92.038,111.256C92.087,110.125 92.554,109.492 93.273,109.492ZM88.785,114.217L88.81,114.217L88.81,114.861L89.745,114.861L89.745,105.838L88.724,105.953L88.724,108.853C88.535,108.775 88.256,108.701 87.866,108.701C86.583,108.701 85.196,109.48 85.196,111.925C85.196,114.131 86.164,115.013 87.313,115.013C88.268,115.013 88.67,114.406 88.785,114.217ZM87.588,114.107C86.882,114.107 86.254,113.549 86.254,111.888C86.254,110.174 86.997,109.57 87.941,109.57C88.305,109.57 88.548,109.669 88.724,109.784L88.724,113.512C88.584,113.713 88.232,114.107 87.588,114.107ZM81.882,109.529C82.588,109.529 82.928,109.948 82.928,110.969L82.928,114.861L83.95,114.861L83.95,110.891C83.95,109.255 83.268,108.66 82.181,108.66C81.239,108.66 80.697,109.279 80.582,109.492L80.557,109.492L80.557,108.812L79.627,108.812L79.627,114.861L80.647,114.861L80.647,110.198C80.849,109.948 81.263,109.529 81.882,109.529ZM77.104,114.181L77.133,114.181L77.133,114.861L78.063,114.861L78.063,108.812L77.043,108.812L77.043,113.438C76.841,113.688 76.44,114.107 75.821,114.107C75.139,114.107 74.811,113.701 74.811,112.709L74.811,108.812L73.79,108.812L73.79,112.782C73.79,114.419 74.459,115.013 75.529,115.013C76.452,115.013 76.993,114.394 77.104,114.181ZM71.309,112.429C71.309,113.426 70.755,113.955 69.471,113.955L68.79,113.955L68.79,110.904L69.532,110.904C70.668,110.904 71.309,111.498 71.309,112.429ZM71.145,108.423C71.145,109.419 70.53,110.034 69.356,110.034L68.79,110.034L68.79,107.035L69.368,107.035C70.59,107.035 71.145,107.631 71.145,108.423ZM72.256,108.385C72.256,107.035 71.436,106.166 69.368,106.166L67.695,106.166L67.695,114.861L69.471,114.861C71.55,114.861 72.482,113.865 72.482,112.503C72.482,111.347 71.739,110.588 70.845,110.411L70.845,110.387C71.6,110.185 72.256,109.595 72.256,108.385Z" style="fill:rgb(35,31,32);"/></g><g transform="matrix(4.16667,0,0,4.16667,-1.69538,-289.363)"><path d="M128.968,127.347L128.828,126.531C128.726,126.592 128.502,126.707 128.198,126.707C127.68,126.707 127.48,126.452 127.48,125.595L127.48,122.245L128.804,122.245L128.932,121.412L127.48,121.412L127.48,119.726L126.574,119.726L126.458,121.412L125.729,121.563L125.729,122.245L126.458,122.245L126.458,125.735C126.458,127.072 126.987,127.613 128.022,127.613C128.562,127.613 128.879,127.413 128.968,127.347ZM125.212,122.245L125.339,121.412L123.977,121.412L123.977,120.328C123.977,119.538 124.244,119.271 124.719,119.271C124.986,119.271 125.175,119.373 125.277,119.435L125.49,118.59C125.388,118.529 125.06,118.364 124.633,118.364C123.739,118.364 122.955,118.893 122.955,120.214L122.955,121.424L122.226,121.563L122.226,122.245L122.955,122.245L122.955,127.461L123.977,127.461L123.977,122.245L125.212,122.245ZM120.122,124.816L120.122,126.149C119.994,126.338 119.708,126.744 119.112,126.744C118.613,126.744 118.309,126.428 118.309,125.808C118.309,125.144 118.826,124.866 119.794,124.829L120.122,124.816ZM120.122,124.057L119.805,124.057C118.436,124.057 117.288,124.525 117.288,125.924C117.288,126.908 117.981,127.613 118.899,127.613C119.67,127.613 120.035,127.097 120.171,126.793L120.199,126.793C120.212,127.097 120.224,127.285 120.237,127.461L121.204,127.461C121.18,127.297 121.131,126.719 121.131,126.202L121.131,123.442C121.131,121.916 120.474,121.26 119.24,121.26C118.271,121.26 117.69,121.727 117.427,121.994L117.854,122.675C118.083,122.47 118.486,122.129 119.088,122.129C119.745,122.129 120.122,122.458 120.122,123.478L120.122,124.057ZM114.047,122.129C114.757,122.129 115.093,122.548 115.093,123.569L115.093,127.461L116.115,127.461L116.115,123.491C116.115,121.892 115.446,121.26 114.387,121.26C113.419,121.26 112.965,121.843 112.842,122.032L112.812,122.032L112.812,118.438L111.795,118.553L111.795,127.461L112.812,127.461L112.812,122.798C113.018,122.548 113.432,122.129 114.047,122.129ZM110.721,121.867C110.532,121.654 110.106,121.26 109.187,121.26C107.989,121.26 106.652,122.105 106.652,124.427C106.652,126.793 107.723,127.613 109.072,127.613C110.015,127.613 110.483,127.17 110.647,126.981L110.233,126.277C110.106,126.415 109.79,126.707 109.174,126.707C108.305,126.707 107.711,126.124 107.711,124.349C107.711,122.749 108.391,122.129 109.26,122.129C109.868,122.129 110.179,122.47 110.295,122.585L110.721,121.867ZM105.57,121.903C105.368,121.703 104.967,121.26 104.031,121.26C103.051,121.26 102.28,121.929 102.28,122.822C102.28,123.655 102.736,124.147 103.49,124.627L103.868,124.866C104.449,125.23 104.75,125.431 104.75,126.014C104.75,126.404 104.421,126.707 103.818,126.707C103.162,126.707 102.784,126.313 102.596,126.112L102.104,126.92C102.345,127.17 102.833,127.613 103.806,127.613C105.04,127.613 105.733,126.871 105.733,125.911C105.733,125.017 105.229,124.525 104.408,124.033L104.031,123.807C103.49,123.478 103.24,123.229 103.24,122.774C103.24,122.421 103.526,122.129 104.068,122.129C104.638,122.129 104.991,122.482 105.131,122.634L105.57,121.903ZM101.525,127.347L101.385,126.531C101.288,126.592 101.058,126.707 100.758,126.707C100.242,126.707 100.036,126.452 100.036,125.595L100.036,122.245L101.361,122.245L101.488,121.412L100.036,121.412L100.036,119.726L99.129,119.726L99.018,121.412L98.284,121.563L98.284,122.245L99.018,122.245L99.018,125.735C99.018,127.072 99.547,127.613 100.582,127.613C101.123,127.613 101.435,127.413 101.525,127.347ZM97.895,121.399C97.796,121.363 97.632,121.301 97.341,121.301C96.574,121.301 96.246,121.752 96.07,122.232L96.045,122.232L96.045,121.412L95.11,121.412L95.11,127.461L96.131,127.461L96.131,123.028C96.283,122.622 96.623,122.208 97.268,122.208C97.542,122.208 97.718,122.281 97.768,122.306L97.895,121.399ZM93.548,121.412L92.53,121.412L92.53,127.461L93.548,127.461L93.548,121.412ZM93.043,119.952C93.449,119.952 93.724,119.648 93.724,119.222C93.724,118.803 93.449,118.504 93.043,118.504C92.629,118.504 92.354,118.803 92.354,119.222C92.354,119.648 92.629,119.952 93.043,119.952ZM90.475,118.766L89.38,124.008C89.216,124.804 89.052,125.649 89.04,126.026L89.011,126.026C88.999,125.649 88.823,124.853 88.634,124.057L87.375,118.766L86.329,118.766L85.045,124.033C84.856,124.816 84.668,125.649 84.655,126.026L84.626,126.026C84.614,125.649 84.462,124.853 84.302,124.057L83.216,118.766L82.046,118.766L84.109,127.461L85.094,127.461L86.443,121.965C86.62,121.223 86.784,120.53 86.784,120.152L86.809,120.152C86.82,120.53 86.985,121.247 87.162,121.994L88.481,127.461L89.466,127.461L91.582,118.766L90.475,118.766ZM79.614,121.399C79.511,121.363 79.347,121.301 79.061,121.301C78.289,121.301 77.961,121.752 77.785,122.232L77.76,122.232L77.76,121.412L76.83,121.412L76.83,127.461L77.85,127.461L77.85,123.028C78.002,122.622 78.338,122.208 78.982,122.208C79.261,122.208 79.438,122.281 79.487,122.306L79.614,121.399ZM74.306,126.781L74.336,126.781L74.336,127.461L75.266,127.461L75.266,121.412L74.246,121.412L74.246,126.038C74.044,126.288 73.643,126.707 73.023,126.707C72.342,126.707 72.014,126.301 72.014,125.309L72.014,121.412L70.993,121.412L70.993,125.382C70.993,127.019 71.661,127.613 72.731,127.613C73.654,127.613 74.196,126.994 74.306,126.781ZM72.761,119.672C72.761,119.283 72.494,119.033 72.154,119.033C71.813,119.033 71.55,119.283 71.55,119.672C71.55,120.066 71.813,120.317 72.154,120.317C72.494,120.317 72.761,120.066 72.761,119.672ZM74.7,119.672C74.7,119.283 74.433,119.033 74.093,119.033C73.753,119.033 73.491,119.283 73.491,119.672C73.491,120.066 73.753,120.317 74.093,120.317C74.433,120.317 74.7,120.066 74.7,119.672ZM70.025,122.245L70.152,121.412L68.79,121.412L68.79,120.328C68.79,119.538 69.052,119.271 69.532,119.271C69.799,119.271 69.988,119.373 70.086,119.435L70.304,118.59C70.201,118.529 69.873,118.364 69.446,118.364C68.552,118.364 67.769,118.893 67.769,120.214L67.769,121.424L67.038,121.563L67.038,122.245L67.769,122.245L67.769,127.461L68.79,127.461L68.79,122.245L70.025,122.245Z" style="fill:rgb(35,31,32);"/></g><g transform="matrix(4.16667,0,0,4.16667,-1.69538,-289.363)"><path d="M120.335,139.495L119.958,138.778C119.818,138.913 119.404,139.307 118.686,139.307C117.665,139.307 117.111,138.638 117.049,137.227L120.134,137.227C120.171,136.936 120.212,136.571 120.212,136.054C120.212,134.606 119.506,133.86 118.358,133.86C117.099,133.86 116.053,134.82 116.053,136.96C116.053,139.241 117.008,140.213 118.534,140.213C119.683,140.213 120.171,139.672 120.335,139.495ZM118.297,134.692C118.936,134.692 119.276,135.185 119.276,136.018C119.276,136.207 119.265,136.37 119.252,136.456L117.062,136.456C117.111,135.325 117.578,134.692 118.297,134.692ZM114.769,134.012L113.748,134.012L113.748,140.061L114.769,140.061L114.769,134.012ZM114.265,132.552C114.667,132.552 114.945,132.248 114.945,131.822C114.945,131.403 114.667,131.105 114.265,131.105C113.847,131.105 113.572,131.403 113.572,131.822C113.572,132.248 113.847,132.552 114.265,132.552ZM109.765,141.862C109.047,141.862 108.694,141.534 108.694,140.894C108.694,140.287 109.023,140 109.31,139.836C109.449,139.861 109.613,139.873 109.778,139.873L110.544,139.873C111.164,139.873 111.566,140.099 111.566,140.676C111.566,141.296 111,141.862 109.765,141.862ZM112.612,140.529C112.612,139.381 111.754,138.925 110.611,138.925L109.839,138.925C109.4,138.925 109.224,138.749 109.224,138.499C109.224,138.183 109.515,138.019 109.716,137.933C109.815,137.945 109.917,137.945 110.032,137.945C111.213,137.945 112.119,137.174 112.119,135.891C112.119,135.488 112.021,135.111 111.833,134.808L112.587,134.808L112.726,134.012L110.885,134.012C110.635,133.913 110.368,133.86 110.081,133.86C108.945,133.86 108.027,134.529 108.027,135.891C108.027,136.85 108.44,137.453 109.06,137.744L109.06,137.769C108.908,137.842 108.33,138.097 108.33,138.749C108.33,139.131 108.469,139.405 108.72,139.594L108.72,139.619C108.44,139.77 107.711,140.201 107.711,141.095C107.711,142.141 108.404,142.731 109.692,142.731C111.48,142.731 112.612,141.825 112.612,140.529ZM111.127,135.891C111.127,136.76 110.647,137.1 110.069,137.1C109.515,137.1 109.023,136.76 109.023,135.891C109.023,135.021 109.515,134.68 110.093,134.68C110.647,134.68 111.127,135.021 111.127,135.891ZM107.472,133.999C107.37,133.963 107.205,133.901 106.919,133.901C106.148,133.901 105.819,134.352 105.643,134.832L105.619,134.832L105.619,134.012L104.688,134.012L104.688,140.061L105.709,140.061L105.709,135.628C105.86,135.222 106.201,134.808 106.841,134.808C107.119,134.808 107.296,134.881 107.345,134.906L107.472,133.999ZM103.453,139.495L103.076,138.778C102.936,138.913 102.521,139.307 101.804,139.307C100.783,139.307 100.229,138.638 100.163,137.227L103.252,137.227C103.289,136.936 103.326,136.571 103.326,136.054C103.326,134.606 102.62,133.86 101.476,133.86C100.212,133.86 99.166,134.82 99.166,136.96C99.166,139.241 100.126,140.213 101.652,140.213C102.797,140.213 103.289,139.672 103.453,139.495ZM101.411,134.692C102.054,134.692 102.394,135.185 102.394,136.018C102.394,136.207 102.383,136.37 102.37,136.456L100.176,136.456C100.229,135.325 100.692,134.692 101.411,134.692ZM95.857,134.729C96.562,134.729 96.902,135.148 96.902,136.169L96.902,140.061L97.92,140.061L97.92,136.091C97.92,134.455 97.238,133.86 96.156,133.86C95.213,133.86 94.671,134.479 94.556,134.692L94.532,134.692L94.532,134.012L93.6,134.012L93.6,140.061L94.618,140.061L94.618,135.398C94.822,135.148 95.237,134.729 95.857,134.729ZM92.111,131.366L87.842,131.366L87.842,140.061L92.288,140.061L92.354,139.155L88.937,139.155L88.937,136.104L91.784,136.104L91.784,135.234L88.937,135.234L88.937,132.235L92.038,132.235L92.111,131.366ZM82.437,139.417L82.461,139.417L82.461,140.061L83.392,140.061L83.392,131.038L82.37,131.153L82.37,134.053C82.181,133.975 81.907,133.901 81.518,133.901C80.229,133.901 78.843,134.68 78.843,137.125C78.843,139.331 79.815,140.213 80.959,140.213C81.919,140.213 82.321,139.606 82.437,139.417ZM81.239,139.307C80.533,139.307 79.901,138.749 79.901,137.088C79.901,135.374 80.647,134.77 81.591,134.77C81.956,134.77 82.194,134.869 82.37,134.984L82.37,138.712C82.235,138.913 81.882,139.307 81.239,139.307ZM75.529,134.729C76.234,134.729 76.575,135.148 76.575,136.169L76.575,140.061L77.596,140.061L77.596,136.091C77.596,134.455 76.916,133.86 75.832,133.86C74.889,133.86 74.347,134.479 74.233,134.692L74.209,134.692L74.209,134.012L73.277,134.012L73.277,140.061L74.295,140.061L74.295,135.398C74.5,135.148 74.913,134.729 75.529,134.729ZM70.755,139.381L70.779,139.381L70.779,140.061L71.715,140.061L71.715,134.012L70.693,134.012L70.693,138.638C70.493,138.888 70.086,139.307 69.471,139.307C68.79,139.307 68.462,138.901 68.462,137.909L68.462,134.012L67.44,134.012L67.44,137.982C67.44,139.619 68.109,140.213 69.18,140.213C70.099,140.213 70.64,139.594 70.755,139.381Z" style="fill:rgb(35,31,32);"/></g></g></g></svg>