<?xml version="1.0" encoding="UTF-8" standalone="no"?><!DOCTYPE svg PUBLIC "-//W3C//DTD SVG 1.1//EN" "http://www.w3.org/Graphics/SVG/1.1/DTD/svg11.dtd"><svg width="100%" height="100%" viewBox="0 0 301 274" version="1.1" xmlns="http://www.w3.org/2000/svg" xmlns:xlink="http://www.w3.org/1999/xlink" xml:space="preserve" xmlns:serif="http://www.serif.com/" style="fill-rule:evenodd;clip-rule:evenodd;stroke-linejoin:round;stroke-miterlimit:2;"><g transform="matrix(1,0,0,1,-1129.52,-149.766)"><g transform="matrix(1,0,0,1,281.429,0)"><g transform="matrix(4.16667,0,0,4.16667,-1.69538,-289.363)"><rect x="206.904" y="105.391" width="65.378" height="44.409" style="fill:white;fill-rule:nonzero;"/></g><g transform="matrix(4.16667,0,0,4.16667,-1.69538,-289.363)"><rect x="208.161" y="106.608" width="62.864" height="41.91" style="fill:rgb(7,78,162);fill-rule:nonzero;"/></g><g transform="matrix(4.16667,0,0,4.16667,-1.69538,-289.363)"><path d="M238.253,115.74L239.58,114.772L240.906,115.74L240.402,114.174L241.749,113.206L240.088,113.206L239.58,111.622L239.072,113.208L237.412,113.206L238.758,114.174L238.253,115.74Z" style="fill:rgb(255,242,0);fill-rule:nonzero;"/></g><g transform="matrix(4.16667,0,0,4.16667,-1.69538,-289.363)"><path d="M231.389,117.584L232.715,116.616L234.041,117.584L233.537,116.019L234.883,115.051L233.223,115.051L232.715,113.464L232.206,115.052L230.546,115.051L231.893,116.019L231.389,117.584Z" style="fill:rgb(255,242,0);fill-rule:nonzero;"/></g><g transform="matrix(4.16667,0,0,4.16667,-1.69538,-289.363)"><path d="M227.692,118.499L227.184,120.087L225.524,120.085L226.871,121.053L226.366,122.618L227.692,121.65L229.019,122.618L228.514,121.053L229.861,120.085L228.201,120.085L227.692,118.499Z" style="fill:rgb(255,242,0);fill-rule:nonzero;"/></g><g transform="matrix(4.16667,0,0,4.16667,-1.69538,-289.363)"><path d="M225.85,128.506L227.176,129.474L226.672,127.909L228.018,126.941L226.358,126.941L225.85,125.354L225.342,126.944L223.681,126.941L225.028,127.909L224.523,129.474L225.85,128.506Z" style="fill:rgb(255,242,0);fill-rule:nonzero;"/></g><g transform="matrix(4.16667,0,0,4.16667,-1.69538,-289.363)"><path d="M228.201,133.817L227.692,132.231L227.184,133.819L225.524,133.817L226.871,134.786L226.366,136.351L227.692,135.381L229.019,136.351L228.514,134.786L229.861,133.817L228.201,133.817Z" style="fill:rgb(255,242,0);fill-rule:nonzero;"/></g><g transform="matrix(4.16667,0,0,4.16667,-1.69538,-289.363)"><path d="M233.233,138.85L232.725,137.265L232.217,138.852L230.557,138.85L231.903,139.818L231.399,141.383L232.726,140.415L234.051,141.383L233.547,139.818L234.894,138.85L233.233,138.85Z" style="fill:rgb(255,242,0);fill-rule:nonzero;"/></g><g transform="matrix(4.16667,0,0,4.16667,-1.69538,-289.363)"><path d="M240.089,140.673L239.581,139.087L239.073,140.675L237.413,140.673L238.759,141.641L238.255,143.207L239.582,142.239L240.907,143.207L240.403,141.641L241.75,140.673L240.089,140.673Z" style="fill:rgb(255,242,0);fill-rule:nonzero;"/></g><g transform="matrix(4.16667,0,0,4.16667,-1.69538,-289.363)"><path d="M246.945,138.85L246.438,137.265L245.929,138.852L244.27,138.85L245.615,139.818L245.111,141.383L246.438,140.415L247.764,141.383L247.258,139.818L248.606,138.85L246.945,138.85Z" style="fill:rgb(255,242,0);fill-rule:nonzero;"/></g><g transform="matrix(4.16667,0,0,4.16667,-1.69538,-289.363)"><path d="M251.979,133.817L251.47,132.231L250.961,133.819L249.302,133.817L250.649,134.786L250.144,136.351L251.47,135.381L252.797,136.351L252.291,134.786L253.638,133.817L251.979,133.817Z" style="fill:rgb(255,242,0);fill-rule:nonzero;"/></g><g transform="matrix(4.16667,0,0,4.16667,-1.69538,-289.363)"><path d="M255.462,126.922L253.801,126.922L253.292,125.335L252.784,126.923L251.124,126.922L252.471,127.89L251.967,129.456L253.292,128.485L254.618,129.456L254.114,127.89L255.462,126.922Z" style="fill:rgb(255,242,0);fill-rule:nonzero;"/></g><g transform="matrix(4.16667,0,0,4.16667,-1.69538,-289.363)"><path d="M250.144,122.598L251.47,121.63L252.797,122.598L252.291,121.032L253.638,120.066L251.979,120.066L251.47,118.48L250.961,120.067L249.302,120.066L250.649,121.032L250.144,122.598Z" style="fill:rgb(255,242,0);fill-rule:nonzero;"/></g><g transform="matrix(4.16667,0,0,4.16667,-1.69538,-289.363)"><path d="M246.457,113.466L245.949,115.054L244.289,115.051L245.634,116.02L245.13,117.586L246.458,116.616L247.783,117.586L247.279,116.02L248.627,115.051L246.964,115.051L246.457,113.466Z" style="fill:rgb(255,242,0);fill-rule:nonzero;"/></g><g transform="matrix(4.16667,0,0,4.16667,-1.69538,-289.363)"><path d="M204.173,160.485L204.173,155.119L205.257,155.119L205.257,157.502L207.446,155.119L208.902,155.119L206.882,157.209L209.012,160.485L207.61,160.485L206.135,157.967L205.257,158.863L205.257,160.485L204.173,160.485Z" style="fill:rgb(7,78,162);fill-rule:nonzero;"/></g><g transform="matrix(4.16667,0,0,4.16667,-1.69538,-289.363)"><path d="M210.381,158.541C210.381,158.927 210.473,159.222 210.656,159.427C210.839,159.632 211.064,159.735 211.333,159.735C211.601,159.735 211.826,159.632 212.008,159.427C212.19,159.222 212.281,158.925 212.281,158.534C212.281,158.154 212.19,157.861 212.008,157.656C211.826,157.451 211.601,157.348 211.333,157.348C211.064,157.348 210.839,157.451 210.656,157.656C210.473,157.861 210.381,158.156 210.381,158.541ZM209.327,158.487C209.327,158.145 209.411,157.814 209.58,157.495C209.748,157.175 209.986,156.931 210.295,156.763C210.604,156.594 210.949,156.51 211.329,156.51C211.917,156.51 212.399,156.701 212.775,157.083C213.151,157.465 213.339,157.947 213.339,158.53C213.339,159.119 213.149,159.606 212.769,159.993C212.39,160.379 211.912,160.573 211.337,160.573C210.98,160.573 210.64,160.492 210.317,160.331C209.994,160.17 209.748,159.934 209.58,159.623C209.411,159.312 209.327,158.933 209.327,158.487Z" style="fill:rgb(7,78,162);fill-rule:nonzero;"/></g><g transform="matrix(4.16667,0,0,4.16667,-1.69538,-289.363)"><path d="M216.607,160.485L216.607,156.598L217.636,156.598L217.636,160.485L216.607,160.485ZM216.607,156.071L216.607,155.119L217.636,155.119L217.636,156.071L216.607,156.071ZM213.719,156.598L214.29,156.598L214.29,156.305C214.29,155.978 214.325,155.734 214.395,155.573C214.464,155.412 214.592,155.281 214.779,155.179C214.966,155.078 215.202,155.027 215.487,155.027C215.78,155.027 216.067,155.071 216.347,155.159L216.208,155.877C216.045,155.838 215.888,155.818 215.736,155.818C215.587,155.818 215.481,155.853 215.416,155.923C215.351,155.992 215.319,156.125 215.319,156.323L215.319,156.598L216.088,156.598L216.088,157.407L215.319,157.407L215.319,160.485L214.29,160.485L214.29,157.407L213.719,157.407L213.719,156.598Z" style="fill:rgb(7,78,162);fill-rule:nonzero;"/></g><g transform="matrix(4.16667,0,0,4.16667,-1.69538,-289.363)"><path d="M222.259,160.485L221.23,160.485L221.23,158.501C221.23,158.081 221.208,157.81 221.164,157.687C221.12,157.563 221.049,157.468 220.95,157.399C220.851,157.331 220.733,157.297 220.593,157.297C220.415,157.297 220.255,157.346 220.114,157.443C219.972,157.541 219.875,157.67 219.823,157.831C219.77,157.993 219.744,158.29 219.744,158.725L219.744,160.485L218.716,160.485L218.716,156.598L219.671,156.598L219.671,157.169C220.01,156.73 220.437,156.51 220.952,156.51C221.179,156.51 221.386,156.551 221.574,156.633C221.762,156.714 221.904,156.819 222.001,156.945C222.097,157.073 222.164,157.217 222.202,157.378C222.24,157.539 222.259,157.769 222.259,158.069L222.259,160.485Z" style="fill:rgb(7,78,162);fill-rule:nonzero;"/></g><g transform="matrix(4.16667,0,0,4.16667,-1.69538,-289.363)"><path d="M225.447,158.618C225.315,158.662 225.107,158.715 224.821,158.776C224.536,158.837 224.349,158.896 224.261,158.955C224.127,159.05 224.06,159.171 224.06,159.317C224.06,159.462 224.113,159.586 224.221,159.691C224.328,159.796 224.465,159.848 224.631,159.848C224.816,159.848 224.993,159.787 225.161,159.665C225.286,159.572 225.368,159.459 225.407,159.325C225.434,159.237 225.447,159.07 225.447,158.823L225.447,158.618ZM224.071,157.784L223.137,157.615C223.242,157.24 223.423,156.961 223.679,156.781C223.935,156.6 224.316,156.51 224.821,156.51C225.28,156.51 225.621,156.564 225.846,156.673C226.07,156.782 226.228,156.919 226.32,157.087C226.411,157.254 226.457,157.56 226.457,158.007L226.446,159.208C226.446,159.549 226.463,159.801 226.496,159.964C226.528,160.126 226.59,160.3 226.68,160.485L225.663,160.485C225.636,160.417 225.603,160.316 225.564,160.181C225.547,160.12 225.535,160.08 225.527,160.06C225.352,160.231 225.164,160.36 224.964,160.445C224.764,160.53 224.55,160.573 224.323,160.573C223.923,160.573 223.608,160.464 223.377,160.247C223.146,160.03 223.031,159.755 223.031,159.424C223.031,159.204 223.084,159.008 223.189,158.836C223.293,158.664 223.44,158.532 223.63,158.441C223.819,158.349 224.091,158.269 224.448,158.201C224.928,158.111 225.262,158.027 225.447,157.949L225.447,157.846C225.447,157.648 225.398,157.507 225.301,157.423C225.203,157.339 225.019,157.297 224.748,157.297C224.565,157.297 224.422,157.333 224.32,157.405C224.217,157.477 224.134,157.603 224.071,157.784Z" style="fill:rgb(7,78,162);fill-rule:nonzero;"/></g><g transform="matrix(4.16667,0,0,4.16667,-1.69538,-289.363)"><path d="M231.007,160.485L229.978,160.485L229.978,158.501C229.978,158.081 229.957,157.81 229.913,157.687C229.869,157.563 229.797,157.468 229.699,157.399C229.6,157.331 229.48,157.297 229.342,157.297C229.163,157.297 229.004,157.346 228.862,157.443C228.72,157.541 228.623,157.67 228.571,157.831C228.518,157.993 228.492,158.29 228.492,158.725L228.492,160.485L227.464,160.485L227.464,156.598L228.419,156.598L228.419,157.169C228.758,156.73 229.186,156.51 229.7,156.51C229.927,156.51 230.134,156.551 230.323,156.633C230.51,156.714 230.652,156.819 230.749,156.945C230.846,157.073 230.912,157.217 230.95,157.378C230.988,157.539 231.007,157.769 231.007,158.069L231.007,160.485Z" style="fill:rgb(7,78,162);fill-rule:nonzero;"/></g><g transform="matrix(4.16667,0,0,4.16667,-1.69538,-289.363)"><path d="M231.636,160.485L231.636,159.683L233.093,158.011C233.332,157.737 233.509,157.544 233.624,157.429C233.504,157.436 233.347,157.441 233.152,157.443L231.779,157.451L231.779,156.598L234.993,156.598L234.993,157.326L233.507,159.039L232.983,159.607C233.269,159.589 233.446,159.581 233.514,159.581L235.106,159.581L235.106,160.485L231.636,160.485Z" style="fill:rgb(7,78,162);fill-rule:nonzero;"/></g><g transform="matrix(4.16667,0,0,4.16667,-1.69538,-289.363)"><path d="M235.798,160.485L235.798,156.598L236.827,156.598L236.827,160.485L235.798,160.485ZM235.798,156.071L235.798,155.119L236.827,155.119L236.827,156.071L235.798,156.071Z" style="fill:rgb(7,78,162);fill-rule:nonzero;"/></g><g transform="matrix(4.16667,0,0,4.16667,-1.69538,-289.363)"><path d="M240.19,158.208C240.183,157.911 240.106,157.684 239.96,157.529C239.813,157.374 239.635,157.297 239.425,157.297C239.201,157.297 239.015,157.379 238.869,157.542C238.722,157.706 238.651,157.928 238.653,158.208L240.19,158.208ZM240.132,159.248L241.157,159.42C241.025,159.796 240.817,160.082 240.533,160.278C240.248,160.475 239.893,160.573 239.466,160.573C238.79,160.573 238.289,160.352 237.965,159.911C237.709,159.557 237.58,159.11 237.58,158.571C237.58,157.926 237.749,157.422 238.086,157.057C238.423,156.692 238.848,156.51 239.363,156.51C239.941,156.51 240.398,156.701 240.732,157.083C241.066,157.465 241.226,158.05 241.211,158.838L238.635,158.838C238.642,159.143 238.725,159.38 238.883,159.55C239.042,159.72 239.24,159.804 239.477,159.804C239.638,159.804 239.773,159.76 239.883,159.672C239.993,159.585 240.076,159.443 240.132,159.248Z" style="fill:rgb(7,78,162);fill-rule:nonzero;"/></g><g transform="matrix(4.16667,0,0,4.16667,-1.69538,-289.363)"><path d="M243.034,160.485L242.006,160.485L242.006,156.598L242.961,156.598L242.961,157.15C243.125,156.89 243.272,156.717 243.402,156.634C243.533,156.551 243.681,156.51 243.847,156.51C244.081,156.51 244.307,156.575 244.524,156.704L244.206,157.601C244.032,157.488 243.871,157.432 243.723,157.432C243.579,157.432 243.457,157.472 243.357,157.551C243.256,157.631 243.178,157.774 243.121,157.981C243.063,158.189 243.034,158.623 243.034,159.284L243.034,160.485Z" style="fill:rgb(7,78,162);fill-rule:nonzero;"/></g><g transform="matrix(4.16667,0,0,4.16667,-1.69538,-289.363)"><path d="M246.749,156.598L246.749,157.418L246.047,157.418L246.047,158.984C246.047,159.302 246.053,159.486 246.067,159.539C246.08,159.591 246.111,159.635 246.158,159.669C246.206,159.703 246.264,159.72 246.332,159.72C246.427,159.72 246.565,159.687 246.746,159.621L246.833,160.419C246.594,160.522 246.323,160.573 246.021,160.573C245.835,160.573 245.668,160.542 245.52,160.479C245.371,160.417 245.262,160.337 245.192,160.238C245.123,160.139 245.074,160.005 245.047,159.837C245.026,159.718 245.014,159.476 245.014,159.112L245.014,157.418L244.542,157.418L244.542,156.598L245.014,156.598L245.014,155.826L246.047,155.225L246.047,156.598L246.749,156.598Z" style="fill:rgb(7,78,162);fill-rule:nonzero;"/></g><g transform="matrix(4.16667,0,0,4.16667,-1.69538,-289.363)"><path d="M250.615,160.485L249.048,156.598L250.128,156.598L250.86,158.582L251.072,159.244C251.129,159.076 251.164,158.965 251.178,158.911C251.213,158.801 251.249,158.692 251.289,158.582L252.028,156.598L253.086,156.598L251.541,160.485L250.615,160.485Z" style="fill:rgb(7,78,162);fill-rule:nonzero;"/></g><g transform="matrix(4.16667,0,0,4.16667,-1.69538,-289.363)"><path d="M254.532,158.541C254.532,158.927 254.623,159.222 254.806,159.427C254.989,159.632 255.215,159.735 255.483,159.735C255.752,159.735 255.977,159.632 256.157,159.427C256.34,159.222 256.431,158.925 256.431,158.534C256.431,158.154 256.34,157.861 256.157,157.656C255.977,157.451 255.752,157.348 255.483,157.348C255.215,157.348 254.989,157.451 254.806,157.656C254.623,157.861 254.532,158.156 254.532,158.541ZM253.477,158.487C253.477,158.145 253.561,157.814 253.73,157.495C253.898,157.175 254.137,156.931 254.445,156.763C254.754,156.594 255.099,156.51 255.479,156.51C256.066,156.51 256.549,156.701 256.924,157.083C257.301,157.465 257.489,157.947 257.489,158.53C257.489,159.119 257.299,159.606 256.92,159.993C256.54,160.379 256.062,160.573 255.487,160.573C255.13,160.573 254.791,160.492 254.467,160.331C254.144,160.17 253.898,159.934 253.73,159.623C253.561,159.312 253.477,158.933 253.477,158.487Z" style="fill:rgb(7,78,162);fill-rule:nonzero;"/></g><g transform="matrix(4.16667,0,0,4.16667,-1.69538,-289.363)"><path d="M261.829,160.485L260.801,160.485L260.801,158.501C260.801,158.081 260.778,157.81 260.736,157.687C260.691,157.563 260.62,157.468 260.522,157.399C260.423,157.331 260.303,157.297 260.165,157.297C259.986,157.297 259.825,157.346 259.685,157.443C259.543,157.541 259.446,157.67 259.394,157.831C259.341,157.993 259.315,158.29 259.315,158.725L259.315,160.485L258.286,160.485L258.286,156.598L259.242,156.598L259.242,157.169C259.581,156.73 260.008,156.51 260.523,156.51C260.75,156.51 260.958,156.551 261.146,156.633C261.333,156.714 261.476,156.819 261.571,156.945C261.668,157.073 261.734,157.217 261.773,157.378C261.811,157.539 261.829,157.769 261.829,158.069L261.829,160.485Z" style="fill:rgb(7,78,162);fill-rule:nonzero;"/></g><g transform="matrix(4.16667,0,0,4.16667,-1.69538,-289.363)"><path d="M265.776,158.457C265.776,158.872 265.833,159.172 265.948,159.358C266.114,159.626 266.346,159.76 266.643,159.76C266.88,159.76 267.081,159.66 267.247,159.458C267.413,159.257 267.496,158.956 267.496,158.556C267.496,158.11 267.416,157.788 267.255,157.592C267.094,157.395 266.887,157.297 266.636,157.297C266.392,157.297 266.188,157.394 266.023,157.588C265.858,157.782 265.776,158.072 265.776,158.457ZM268.521,160.485L267.566,160.485L267.566,159.914C267.407,160.136 267.22,160.301 267.004,160.41C266.788,160.518 266.57,160.573 266.35,160.573C265.904,160.573 265.521,160.393 265.203,160.033C264.885,159.673 264.725,159.171 264.725,158.527C264.725,157.868 264.88,157.367 265.19,157.024C265.5,156.681 265.892,156.51 266.365,156.51C266.799,156.51 267.175,156.691 267.492,157.052L267.492,155.119L268.521,155.119L268.521,160.485Z" style="fill:rgb(7,78,162);fill-rule:nonzero;"/></g><g transform="matrix(4.16667,0,0,4.16667,-1.69538,-289.363)"><path d="M271.844,158.208C271.837,157.911 271.76,157.684 271.614,157.529C271.467,157.374 271.289,157.297 271.079,157.297C270.855,157.297 270.669,157.379 270.523,157.542C270.376,157.706 270.305,157.928 270.307,158.208L271.844,158.208ZM271.786,159.248L272.811,159.42C272.679,159.796 272.471,160.082 272.187,160.278C271.902,160.475 271.547,160.573 271.12,160.573C270.444,160.573 269.943,160.352 269.619,159.911C269.363,159.557 269.234,159.11 269.234,158.571C269.234,157.926 269.403,157.422 269.74,157.057C270.077,156.692 270.502,156.51 271.017,156.51C271.595,156.51 272.052,156.701 272.386,157.083C272.72,157.465 272.88,158.05 272.865,158.838L270.289,158.838C270.296,159.143 270.379,159.38 270.537,159.55C270.696,159.72 270.894,159.804 271.131,159.804C271.292,159.804 271.427,159.76 271.537,159.672C271.647,159.585 271.73,159.443 271.786,159.248Z" style="fill:rgb(7,78,162);fill-rule:nonzero;"/></g><g transform="matrix(4.16667,0,0,4.16667,-1.69538,-289.363)"><path d="M274.689,160.485L273.66,160.485L273.66,156.598L274.615,156.598L274.615,157.15C274.779,156.89 274.926,156.717 275.056,156.634C275.187,156.551 275.335,156.51 275.501,156.51C275.735,156.51 275.961,156.575 276.178,156.704L275.86,157.601C275.687,157.488 275.526,157.432 275.377,157.432C275.233,157.432 275.111,157.472 275.011,157.551C274.911,157.631 274.832,157.774 274.775,157.981C274.717,158.189 274.689,158.623 274.689,159.284L274.689,160.485Z" style="fill:rgb(7,78,162);fill-rule:nonzero;"/></g><g transform="matrix(4.16667,0,0,4.16667,-1.69538,-289.363)"><path d="M203.95,169.481L203.95,164.115L207.929,164.115L207.929,165.022L205.034,165.022L205.034,166.212L207.728,166.212L207.728,167.116L205.034,167.116L205.034,168.576L208.032,168.576L208.032,169.481L203.95,169.481Z" style="fill:rgb(7,78,162);fill-rule:nonzero;"/></g><g transform="matrix(4.16667,0,0,4.16667,-1.69538,-289.363)"><path d="M211.501,169.481L211.501,168.898C211.36,169.106 211.174,169.27 210.943,169.389C210.713,169.509 210.469,169.568 210.213,169.568C209.952,169.568 209.718,169.511 209.51,169.396C209.303,169.282 209.153,169.121 209.06,168.913C208.967,168.706 208.921,168.419 208.921,168.053L208.921,165.593L209.949,165.593L209.949,167.38C209.949,167.926 209.968,168.261 210.006,168.384C210.044,168.508 210.113,168.605 210.213,168.677C210.313,168.749 210.44,168.785 210.594,168.785C210.769,168.785 210.927,168.737 211.066,168.64C211.205,168.544 211.3,168.425 211.351,168.282C211.403,168.139 211.428,167.79 211.428,167.233L211.428,165.593L212.457,165.593L212.457,169.481L211.501,169.481Z" style="fill:rgb(7,78,162);fill-rule:nonzero;"/></g><g transform="matrix(4.16667,0,0,4.16667,-1.69538,-289.363)"><path d="M214.507,169.481L213.478,169.481L213.478,165.593L214.433,165.593L214.433,166.146C214.597,165.885 214.744,165.713 214.874,165.63C215.005,165.547 215.153,165.506 215.319,165.506C215.553,165.506 215.779,165.57 215.996,165.7L215.678,166.596C215.505,166.484 215.344,166.428 215.195,166.428C215.051,166.428 214.929,166.468 214.829,166.547C214.729,166.626 214.65,166.77 214.593,166.977C214.535,167.184 214.507,167.619 214.507,168.28L214.507,169.481Z" style="fill:rgb(7,78,162);fill-rule:nonzero;"/></g><g transform="matrix(4.16667,0,0,4.16667,-1.69538,-289.363)"><path d="M217.255,167.537C217.255,167.923 217.347,168.218 217.53,168.423C217.713,168.628 217.939,168.73 218.207,168.73C218.476,168.73 218.701,168.628 218.882,168.423C219.064,168.218 219.155,167.92 219.155,167.53C219.155,167.149 219.064,166.856 218.882,166.651C218.701,166.446 218.476,166.344 218.207,166.344C217.939,166.344 217.713,166.446 217.53,166.651C217.347,166.856 217.255,167.152 217.255,167.537ZM216.201,167.482C216.201,167.14 216.285,166.81 216.454,166.49C216.622,166.171 216.861,165.926 217.169,165.758C217.478,165.59 217.823,165.506 218.203,165.506C218.792,165.506 219.273,165.697 219.649,166.078C220.025,166.46 220.213,166.943 220.213,167.526C220.213,168.114 220.023,168.601 219.644,168.988C219.264,169.375 218.787,169.568 218.211,169.568C217.854,169.568 217.515,169.488 217.191,169.327C216.868,169.166 216.622,168.93 216.454,168.619C216.285,168.308 216.201,167.929 216.201,167.482Z" style="fill:rgb(7,78,162);fill-rule:nonzero;"/></g><g transform="matrix(4.16667,0,0,4.16667,-1.69538,-289.363)"><path d="M222.006,167.471C222.006,167.908 222.093,168.231 222.266,168.439C222.44,168.648 222.651,168.752 222.9,168.752C223.139,168.752 223.338,168.657 223.496,168.465C223.655,168.273 223.734,167.959 223.734,167.522C223.734,167.115 223.652,166.812 223.489,166.614C223.325,166.417 223.123,166.318 222.881,166.318C222.63,166.318 222.421,166.415 222.255,166.609C222.089,166.803 222.006,167.091 222.006,167.471ZM220.989,165.593L221.948,165.593L221.948,166.164C222.072,165.969 222.241,165.811 222.453,165.689C222.665,165.567 222.901,165.506 223.159,165.506C223.611,165.506 223.994,165.683 224.309,166.036C224.624,166.39 224.781,166.883 224.781,167.515C224.781,168.164 224.622,168.669 224.305,169.028C223.988,169.389 223.604,169.568 223.152,169.568C222.937,169.568 222.743,169.526 222.568,169.44C222.394,169.355 222.21,169.209 222.017,169.001L222.017,170.959L220.989,170.959L220.989,165.593Z" style="fill:rgb(7,78,162);fill-rule:nonzero;"/></g><g transform="matrix(4.16667,0,0,4.16667,-1.69538,-289.363)"><path d="M227.497,164.905L227.497,164.023L228.383,164.023L228.383,164.905L227.497,164.905ZM227.742,167.614C227.61,167.658 227.402,167.71 227.116,167.771C226.831,167.832 226.644,167.892 226.556,167.951C226.422,168.046 226.355,168.166 226.355,168.313C226.355,168.457 226.409,168.582 226.516,168.687C226.623,168.791 226.76,168.844 226.926,168.844C227.111,168.844 227.288,168.783 227.457,168.661C227.581,168.568 227.663,168.455 227.702,168.32C227.729,168.233 227.742,168.065 227.742,167.819L227.742,167.614ZM225.923,164.905L225.923,164.023L226.805,164.023L226.805,164.905L225.923,164.905ZM226.366,166.779L225.432,166.611C225.537,166.235 225.718,165.957 225.974,165.776C226.23,165.596 226.611,165.506 227.116,165.506C227.575,165.506 227.917,165.56 228.141,165.668C228.366,165.777 228.524,165.915 228.615,166.082C228.707,166.249 228.752,166.556 228.752,167.003L228.741,168.203C228.741,168.545 228.758,168.797 228.791,168.959C228.824,169.121 228.885,169.295 228.976,169.481L227.958,169.481C227.931,169.412 227.898,169.311 227.859,169.177C227.842,169.116 227.83,169.076 227.823,169.056C227.647,169.227 227.459,169.355 227.259,169.44C227.059,169.526 226.845,169.568 226.618,169.568C226.218,169.568 225.903,169.46 225.672,169.243C225.442,169.026 225.326,168.751 225.326,168.419C225.326,168.2 225.379,168.004 225.484,167.832C225.589,167.66 225.736,167.528 225.925,167.436C226.114,167.345 226.387,167.265 226.743,167.197C227.224,167.106 227.557,167.022 227.742,166.944L227.742,166.842C227.742,166.644 227.693,166.503 227.596,166.419C227.498,166.335 227.314,166.292 227.043,166.292C226.86,166.292 226.717,166.329 226.615,166.4C226.512,166.473 226.429,166.599 226.366,166.779Z" style="fill:rgb(7,78,162);fill-rule:nonzero;"/></g><g transform="matrix(4.16667,0,0,4.16667,-1.69538,-289.363)"><path d="M229.766,169.481L229.766,165.593L230.795,165.593L230.795,169.481L229.766,169.481ZM229.766,165.066L229.766,164.115L230.795,164.115L230.795,165.066L229.766,165.066Z" style="fill:rgb(7,78,162);fill-rule:nonzero;"/></g><g transform="matrix(4.16667,0,0,4.16667,-1.69538,-289.363)"><path d="M231.487,168.371L232.519,168.214C232.563,168.414 232.652,168.566 232.786,168.67C232.92,168.774 233.108,168.825 233.35,168.825C233.615,168.825 233.816,168.777 233.95,168.679C234.04,168.611 234.085,168.519 234.085,168.404C234.085,168.326 234.061,168.262 234.012,168.21C233.961,168.162 233.846,168.117 233.668,168.075C232.838,167.892 232.312,167.725 232.09,167.574C231.783,167.364 231.63,167.072 231.63,166.699C231.63,166.362 231.762,166.079 232.028,165.85C232.294,165.62 232.707,165.506 233.265,165.506C233.797,165.506 234.193,165.592 234.451,165.765C234.71,165.939 234.888,166.195 234.986,166.534L234.016,166.713C233.974,166.562 233.896,166.446 233.78,166.366C233.664,166.285 233.498,166.245 233.284,166.245C233.013,166.245 232.819,166.283 232.702,166.359C232.624,166.412 232.585,166.482 232.585,166.567C232.585,166.64 232.619,166.702 232.687,166.754C232.78,166.822 233.1,166.918 233.648,167.043C234.196,167.167 234.578,167.32 234.795,167.501C235.01,167.683 235.118,167.938 235.118,168.265C235.118,168.622 234.969,168.928 234.671,169.184C234.373,169.44 233.933,169.568 233.35,169.568C232.82,169.568 232.401,169.461 232.092,169.246C231.784,169.032 231.582,168.74 231.487,168.371Z" style="fill:rgb(7,78,162);fill-rule:nonzero;"/></g><g transform="matrix(4.16667,0,0,4.16667,-1.69538,-289.363)"><path d="M239.407,166.743L238.393,166.926C238.359,166.723 238.282,166.571 238.161,166.468C238.04,166.366 237.883,166.315 237.691,166.315C237.434,166.315 237.23,166.403 237.077,166.58C236.925,166.757 236.849,167.053 236.849,167.467C236.849,167.929 236.926,168.254 237.081,168.445C237.236,168.635 237.444,168.73 237.705,168.73C237.9,168.73 238.06,168.675 238.185,168.564C238.309,168.453 238.397,168.262 238.448,167.991L239.459,168.163C239.353,168.627 239.152,168.977 238.855,169.214C238.557,169.45 238.158,169.568 237.658,169.568C237.089,169.568 236.636,169.389 236.298,169.03C235.96,168.672 235.791,168.175 235.791,167.541C235.791,166.899 235.961,166.399 236.3,166.042C236.639,165.684 237.098,165.506 237.676,165.506C238.149,165.506 238.526,165.607 238.805,165.811C239.085,166.015 239.285,166.325 239.407,166.743Z" style="fill:rgb(7,78,162);fill-rule:nonzero;"/></g><g transform="matrix(4.16667,0,0,4.16667,-1.69538,-289.363)"><path d="M241.212,164.115L241.212,166.087C241.543,165.7 241.94,165.506 242.401,165.506C242.638,165.506 242.852,165.549 243.042,165.637C243.232,165.725 243.376,165.837 243.472,165.974C243.568,166.111 243.634,166.262 243.67,166.428C243.705,166.594 243.723,166.851 243.723,167.2L243.723,169.481L242.694,169.481L242.694,167.427C242.694,167.02 242.675,166.761 242.636,166.651C242.597,166.541 242.528,166.454 242.429,166.39C242.33,166.325 242.206,166.292 242.057,166.292C241.887,166.292 241.734,166.334 241.6,166.417C241.465,166.5 241.367,166.625 241.305,166.792C241.243,166.959 241.212,167.206 241.212,167.533L241.212,169.481L240.183,169.481L240.183,164.115L241.212,164.115Z" style="fill:rgb(7,78,162);fill-rule:nonzero;"/></g><g transform="matrix(4.16667,0,0,4.16667,-1.69538,-289.363)"><path d="M247.076,167.204C247.068,166.906 246.992,166.68 246.845,166.525C246.699,166.37 246.52,166.292 246.311,166.292C246.086,166.292 245.901,166.374 245.754,166.538C245.608,166.701 245.536,166.923 245.538,167.204L247.076,167.204ZM247.017,168.243L248.042,168.415C247.91,168.791 247.702,169.077 247.418,169.274C247.134,169.47 246.778,169.568 246.351,169.568C245.675,169.568 245.175,169.348 244.85,168.906C244.594,168.552 244.466,168.106 244.466,167.566C244.466,166.922 244.635,166.417 244.971,166.053C245.308,165.688 245.734,165.506 246.249,165.506C246.827,165.506 247.283,165.697 247.617,166.078C247.952,166.46 248.111,167.045 248.097,167.833L245.52,167.833C245.528,168.139 245.61,168.376 245.769,168.545C245.927,168.715 246.125,168.8 246.362,168.8C246.523,168.8 246.658,168.756 246.768,168.668C246.878,168.58 246.961,168.439 247.017,168.243Z" style="fill:rgb(7,78,162);fill-rule:nonzero;"/></g><g transform="matrix(4.16667,0,0,4.16667,-1.69538,-289.363)"><path d="M252.471,169.481L251.442,169.481L251.442,167.497C251.442,167.077 251.42,166.805 251.376,166.682C251.332,166.559 251.261,166.463 251.162,166.395C251.063,166.327 250.944,166.292 250.805,166.292C250.627,166.292 250.467,166.341 250.326,166.439C250.184,166.537 250.087,166.666 250.035,166.827C249.982,166.988 249.956,167.286 249.956,167.72L249.956,169.481L248.927,169.481L248.927,165.593L249.883,165.593L249.883,166.164C250.222,165.725 250.649,165.506 251.164,165.506C251.391,165.506 251.598,165.546 251.786,165.628C251.974,165.71 252.116,165.814 252.213,165.941C252.309,166.068 252.376,166.212 252.414,166.373C252.452,166.534 252.471,166.765 252.471,167.065L252.471,169.481Z" style="fill:rgb(7,78,162);fill-rule:nonzero;"/></g><g transform="matrix(4.16667,0,0,4.16667,-1.69538,-289.363)"><path d="M255.597,164.115L256.68,164.115L256.68,167.021C256.68,167.482 256.694,167.781 256.72,167.917C256.767,168.137 256.877,168.314 257.052,168.447C257.226,168.579 257.465,168.646 257.767,168.646C258.075,168.646 258.307,168.583 258.463,168.457C258.618,168.332 258.713,168.178 258.745,167.995C258.776,167.812 258.792,167.508 258.792,167.083L258.792,164.115L259.876,164.115L259.876,166.933C259.876,167.577 259.846,168.033 259.788,168.298C259.729,168.565 259.621,168.789 259.463,168.972C259.306,169.155 259.096,169.301 258.833,169.409C258.569,169.518 258.225,169.572 257.799,169.572C257.288,169.572 256.898,169.513 256.634,169.395C256.37,169.276 256.16,169.123 256.006,168.933C255.853,168.744 255.752,168.546 255.703,168.339C255.632,168.031 255.597,167.577 255.597,166.977L255.597,164.115Z" style="fill:rgb(7,78,162);fill-rule:nonzero;"/></g><g transform="matrix(4.16667,0,0,4.16667,-1.69538,-289.363)"><path d="M264.546,169.481L263.517,169.481L263.517,167.497C263.517,167.077 263.495,166.805 263.451,166.682C263.408,166.559 263.336,166.463 263.237,166.395C263.138,166.327 263.02,166.292 262.88,166.292C262.702,166.292 262.542,166.341 262.401,166.439C262.259,166.537 262.162,166.666 262.109,166.827C262.057,166.988 262.031,167.286 262.031,167.72L262.031,169.481L261.002,169.481L261.002,165.593L261.958,165.593L261.958,166.164C262.297,165.725 262.724,165.506 263.239,165.506C263.466,165.506 263.674,165.546 263.861,165.628C264.049,165.71 264.192,165.814 264.288,165.941C264.384,166.068 264.451,166.212 264.489,166.373C264.527,166.534 264.546,166.765 264.546,167.065L264.546,169.481Z" style="fill:rgb(7,78,162);fill-rule:nonzero;"/></g><g transform="matrix(4.16667,0,0,4.16667,-1.69538,-289.363)"><path d="M265.589,169.481L265.589,165.593L266.618,165.593L266.618,169.481L265.589,169.481ZM265.589,165.066L265.589,164.115L266.618,164.115L266.618,165.066L265.589,165.066Z" style="fill:rgb(7,78,162);fill-rule:nonzero;"/></g><g transform="matrix(4.16667,0,0,4.16667,-1.69538,-289.363)"><path d="M268.488,167.537C268.488,167.923 268.58,168.218 268.762,168.423C268.946,168.628 269.171,168.73 269.44,168.73C269.708,168.73 269.933,168.628 270.115,168.423C270.297,168.218 270.388,167.92 270.388,167.53C270.388,167.149 270.297,166.856 270.115,166.651C269.933,166.446 269.708,166.344 269.44,166.344C269.171,166.344 268.946,166.446 268.762,166.651C268.58,166.856 268.488,167.152 268.488,167.537ZM267.434,167.482C267.434,167.14 267.518,166.81 267.687,166.49C267.855,166.171 268.093,165.926 268.402,165.758C268.711,165.59 269.055,165.506 269.436,165.506C270.024,165.506 270.506,165.697 270.882,166.078C271.258,166.46 271.446,166.943 271.446,167.526C271.446,168.114 271.256,168.601 270.876,168.988C270.497,169.375 270.019,169.568 269.444,169.568C269.087,169.568 268.747,169.488 268.424,169.327C268.101,169.166 267.855,168.93 267.687,168.619C267.518,168.308 267.434,167.929 267.434,167.482Z" style="fill:rgb(7,78,162);fill-rule:nonzero;"/></g><g transform="matrix(4.16667,0,0,4.16667,-1.69538,-289.363)"><path d="M275.787,169.481L274.758,169.481L274.758,167.497C274.758,167.077 274.736,166.805 274.692,166.682C274.648,166.559 274.577,166.463 274.478,166.395C274.379,166.327 274.26,166.292 274.121,166.292C273.943,166.292 273.783,166.341 273.642,166.439C273.5,166.537 273.403,166.666 273.351,166.827C273.298,166.988 273.272,167.286 273.272,167.72L273.272,169.481L272.243,169.481L272.243,165.593L273.199,165.593L273.199,166.164C273.538,165.725 273.965,165.506 274.48,165.506C274.707,165.506 274.914,165.546 275.102,165.628C275.29,165.71 275.432,165.814 275.529,165.941C275.625,166.068 275.692,166.212 275.73,166.373C275.768,166.534 275.787,166.765 275.787,167.065L275.787,169.481Z" style="fill:rgb(7,78,162);fill-rule:nonzero;"/></g></g></g></svg>