<?xml version="1.0" encoding="UTF-8" standalone="no"?><!DOCTYPE svg PUBLIC "-//W3C//DTD SVG 1.1//EN" "http://www.w3.org/Graphics/SVG/1.1/DTD/svg11.dtd"><svg width="100%" height="100%" viewBox="0 0 354 224" version="1.1" xmlns="http://www.w3.org/2000/svg" xmlns:xlink="http://www.w3.org/1999/xlink" xml:space="preserve" xmlns:serif="http://www.serif.com/" style="fill-rule:evenodd;clip-rule:evenodd;stroke-miterlimit:2;"><g transform="matrix(1,0,0,1,-1713.83,-140.203)"><g transform="matrix(1,0,0,1,460.17,0)"><g transform="matrix(4.16667,0,0,4.16667,-1.69538,-289.363)"><path d="M316.931,143.979L319.743,143.979L319.743,144.612L317.65,144.612L317.65,146.079L319.556,146.079L319.556,146.712L317.65,146.712L317.65,148.366L319.743,148.366L319.743,148.999L316.931,148.999L316.931,143.979Z" style="fill:rgb(35,31,32);fill-rule:nonzero;"/></g><g transform="matrix(4.16667,0,0,4.16667,-1.69538,-289.363)"><path d="M321.649,147.078L320.455,145.331L321.296,145.331L322.095,146.64L322.907,145.331L323.663,145.331L322.483,147.078L323.778,148.999L322.943,148.999L322.037,147.56L321.131,148.999L320.325,148.999L321.649,147.078Z" style="fill:rgb(35,31,32);fill-rule:nonzero;"/></g><g transform="matrix(4.16667,0,0,4.16667,-1.69538,-289.363)"><path d="M324.511,145.331L325.187,145.331L325.187,148.999L324.511,148.999L324.511,145.331ZM325.23,144.511L324.468,144.511L324.468,143.749L325.23,143.749L325.23,144.511Z" style="fill:rgb(35,31,32);fill-rule:nonzero;"/></g><g transform="matrix(4.16667,0,0,4.16667,-1.69538,-289.363)"><path d="M326.15,148.28C326.416,148.452 326.798,148.539 326.992,148.539C327.301,148.539 327.682,148.409 327.682,148.013C327.682,147.345 326.093,147.402 326.093,146.374C326.093,145.611 326.661,145.245 327.388,145.245C327.704,145.245 327.963,145.309 328.229,145.388L328.171,145.978C328.02,145.885 327.618,145.791 327.459,145.791C327.114,145.791 326.812,145.935 326.812,146.237C326.812,146.985 328.402,146.769 328.402,147.942C328.402,148.725 327.776,149.085 327.121,149.085C326.776,149.085 326.424,149.049 326.114,148.884L326.15,148.28Z" style="fill:rgb(35,31,32);fill-rule:nonzero;"/></g><g transform="matrix(4.16667,0,0,4.16667,-1.69538,-289.363)"><path d="M331.17,145.877L330.199,145.877L330.199,147.884C330.199,148.308 330.458,148.539 330.767,148.539C330.976,148.539 331.127,148.474 331.228,148.409L331.228,148.985C331.077,149.028 330.868,149.085 330.652,149.085C329.955,149.085 329.523,148.754 329.523,148.021L329.523,145.877L328.696,145.877L328.696,145.331L329.523,145.331L329.523,144.482L330.199,144.266L330.199,145.331L331.17,145.331L331.17,145.877Z" style="fill:rgb(35,31,32);fill-rule:nonzero;"/></g><g transform="matrix(4.16667,0,0,4.16667,-1.69538,-289.363)"><path d="M334.392,146.812C334.392,146.251 334.061,145.791 333.479,145.791C332.817,145.791 332.544,146.338 332.493,146.812L334.392,146.812ZM334.831,148.848C334.572,148.941 334.277,149.085 333.673,149.085C332.371,149.085 331.774,148.294 331.774,147.1C331.774,146.014 332.457,145.245 333.493,145.245C334.716,145.245 335.111,146.136 335.111,147.316L332.493,147.316C332.493,148.042 333.061,148.539 333.702,148.539C334.147,148.539 334.665,148.308 334.831,148.172L334.831,148.848Z" style="fill:rgb(35,31,32);fill-rule:nonzero;"/></g><g transform="matrix(4.16667,0,0,4.16667,-1.69538,-289.363)"><path d="M336.017,145.331L336.671,145.331L336.671,145.913L336.686,145.913C336.887,145.496 337.376,145.245 337.887,145.245C338.836,145.245 339.261,145.834 339.261,146.82L339.261,148.999L338.585,148.999L338.585,147.1C338.585,146.244 338.398,145.827 337.808,145.791C337.038,145.791 336.693,146.41 336.693,147.301L336.693,148.999L336.017,148.999L336.017,145.331Z" style="fill:rgb(35,31,32);fill-rule:nonzero;"/></g><g transform="matrix(4.16667,0,0,4.16667,-1.69538,-289.363)"><path d="M340.145,148.409L342.259,145.877L340.245,145.877L340.245,145.331L343.043,145.331L343.043,145.921L340.929,148.452L343.122,148.452L343.122,148.999L340.145,148.999L340.145,148.409Z" style="fill:rgb(35,31,32);fill-rule:nonzero;"/></g><g transform="matrix(4.16667,0,0,4.16667,-1.69538,-289.363)"><path d="M346.574,147.208C346.574,146.446 346.222,145.791 345.503,145.791C344.819,145.791 344.481,146.532 344.481,147.158C344.481,147.848 344.87,148.452 345.503,148.452C346.135,148.452 346.574,147.891 346.574,147.208ZM347.25,148.841C347.25,149.956 346.675,150.595 345.359,150.595C344.97,150.595 344.632,150.545 344.043,150.344L344.114,149.718C344.632,149.956 344.942,150.049 345.438,150.049C346.15,150.049 346.574,149.567 346.574,148.79L346.574,148.431L346.56,148.431C346.272,148.812 345.797,148.999 345.33,148.999C344.28,148.999 343.762,148.143 343.762,147.194C343.762,146.251 344.294,145.245 345.402,145.245C346.049,145.245 346.409,145.482 346.61,145.877L346.625,145.877L346.625,145.331L347.25,145.331L347.25,148.841Z" style="fill:rgb(35,31,32);fill-rule:nonzero;"/></g><g transform="matrix(4.16667,0,0,4.16667,-1.69538,-289.363)"><path d="M348.4,145.331L349.033,145.331L349.033,145.899L349.048,145.899C349.228,145.518 349.616,145.245 350.004,145.245C350.206,145.245 350.306,145.266 350.45,145.295L350.45,145.899C350.328,145.849 350.191,145.834 350.076,145.834C349.472,145.834 349.076,146.41 349.076,147.33L349.076,148.999L348.4,148.999L348.4,145.331Z" style="fill:rgb(35,31,32);fill-rule:nonzero;"/></g><g transform="matrix(4.16667,0,0,4.16667,-1.69538,-289.363)"><path d="M353.075,144.051L353.751,144.051L353.751,144.77L353.075,144.77L353.075,144.051ZM351.896,144.051L352.572,144.051L352.572,144.77L351.896,144.77L351.896,144.051ZM354.442,148.999L353.787,148.999L353.787,148.416L353.773,148.416C353.571,148.833 353.082,149.085 352.572,149.085C351.622,149.085 351.198,148.495 351.198,147.51L351.198,145.331L351.874,145.331L351.874,147.23C351.874,148.086 352.061,148.503 352.651,148.539C353.42,148.539 353.766,147.92 353.766,147.028L353.766,145.331L354.442,145.331L354.442,148.999Z" style="fill:rgb(35,31,32);fill-rule:nonzero;"/></g><g transform="matrix(4.16667,0,0,4.16667,-1.69538,-289.363)"><path d="M355.592,145.331L356.246,145.331L356.246,145.913L356.261,145.913C356.462,145.496 356.951,145.245 357.462,145.245C358.411,145.245 358.836,145.834 358.836,146.82L358.836,148.999L358.159,148.999L358.159,147.1C358.159,146.244 357.972,145.827 357.383,145.791C356.613,145.791 356.268,146.41 356.268,147.301L356.268,148.999L355.592,148.999L355.592,145.331Z" style="fill:rgb(35,31,32);fill-rule:nonzero;"/></g><g transform="matrix(4.16667,0,0,4.16667,-1.69538,-289.363)"><path d="M361.474,148.539C362.237,148.539 362.553,147.783 362.553,147.172C362.553,146.489 362.201,145.791 361.467,145.791C360.734,145.791 360.446,146.482 360.46,147.15C360.446,147.726 360.748,148.539 361.474,148.539ZM362.582,148.481L362.568,148.481C362.388,148.754 361.971,149.085 361.316,149.085C360.209,149.085 359.741,148.1 359.741,147.1C359.741,146.115 360.259,145.245 361.323,145.245C361.964,145.245 362.33,145.496 362.539,145.834L362.553,145.834L362.553,143.605L363.229,143.605L363.229,148.999L362.582,148.999L362.582,148.481Z" style="fill:rgb(35,31,32);fill-rule:nonzero;"/></g><g transform="matrix(4.16667,0,0,4.16667,-1.69538,-289.363)"><path d="M367.623,148.999L366.969,148.999L366.969,148.416L366.954,148.416C366.753,148.833 366.264,149.085 365.753,149.085C364.804,149.085 364.38,148.495 364.38,147.51L364.38,145.331L365.056,145.331L365.056,147.23C365.056,148.086 365.243,148.503 365.832,148.539C366.602,148.539 366.947,147.92 366.947,147.028L366.947,145.331L367.623,145.331L367.623,148.999Z" style="fill:rgb(35,31,32);fill-rule:nonzero;"/></g><g transform="matrix(4.16667,0,0,4.16667,-1.69538,-289.363)"><path d="M368.773,145.331L369.428,145.331L369.428,145.913L369.442,145.913C369.644,145.496 370.133,145.245 370.643,145.245C371.593,145.245 372.017,145.834 372.017,146.82L372.017,148.999L371.341,148.999L371.341,147.1C371.341,146.244 371.154,145.827 370.564,145.791C369.795,145.791 369.45,146.41 369.45,147.301L369.45,148.999L368.773,148.999L368.773,145.331Z" style="fill:rgb(35,31,32);fill-rule:nonzero;"/></g><g transform="matrix(4.16667,0,0,4.16667,-1.69538,-289.363)"><path d="M375.735,147.208C375.735,146.446 375.383,145.791 374.663,145.791C373.98,145.791 373.642,146.532 373.642,147.158C373.642,147.848 374.03,148.452 374.663,148.452C375.296,148.452 375.735,147.891 375.735,147.208ZM376.411,148.841C376.411,149.956 375.836,150.595 374.52,150.595C374.131,150.595 373.793,150.545 373.203,150.344L373.275,149.718C373.793,149.956 374.102,150.049 374.599,150.049C375.311,150.049 375.735,149.567 375.735,148.79L375.735,148.431L375.721,148.431C375.433,148.812 374.958,148.999 374.491,148.999C373.441,148.999 372.923,148.143 372.923,147.194C372.923,146.251 373.455,145.245 374.563,145.245C375.21,145.245 375.57,145.482 375.771,145.877L375.785,145.877L375.785,145.331L376.411,145.331L376.411,148.841Z" style="fill:rgb(35,31,32);fill-rule:nonzero;"/></g><g transform="matrix(4.16667,0,0,4.16667,-1.69538,-289.363)"><path d="M379.935,146.812C379.935,146.251 379.604,145.791 379.021,145.791C378.359,145.791 378.086,146.338 378.036,146.812L379.935,146.812ZM380.373,148.848C380.114,148.941 379.82,149.085 379.215,149.085C377.914,149.085 377.317,148.294 377.317,147.1C377.317,146.014 378,145.245 379.036,145.245C380.258,145.245 380.654,146.136 380.654,147.316L378.036,147.316C378.036,148.042 378.604,148.539 379.244,148.539C379.69,148.539 380.208,148.308 380.373,148.172L380.373,148.848Z" style="fill:rgb(35,31,32);fill-rule:nonzero;"/></g><g transform="matrix(4.16667,0,0,4.16667,-1.69538,-289.363)"><path d="M381.56,145.331L382.214,145.331L382.214,145.913L382.229,145.913C382.43,145.496 382.919,145.245 383.43,145.245C384.379,145.245 384.803,145.834 384.803,146.82L384.803,148.999L384.127,148.999L384.127,147.1C384.127,146.244 383.94,145.827 383.351,145.791C382.581,145.791 382.236,146.41 382.236,147.301L382.236,148.999L381.56,148.999L381.56,145.331Z" style="fill:rgb(35,31,32);fill-rule:nonzero;"/></g><g transform="matrix(4.16667,0,0,4.16667,-1.69538,-289.363)"><path d="M319.01,154.952C318.866,154.952 318.722,154.938 318.578,154.938C318.211,154.938 317.305,154.995 317.305,155.643C317.305,156.031 317.679,156.24 317.988,156.24C318.657,156.24 319.01,155.822 319.01,155.276L319.01,154.952ZM317.003,153.291C317.341,153.089 317.744,152.946 318.211,152.946C319.261,152.946 319.686,153.463 319.686,154.463L319.686,155.981C319.686,156.398 319.7,156.592 319.714,156.7L319.082,156.7L319.082,156.225L319.067,156.225C318.909,156.448 318.549,156.786 317.931,156.786C317.14,156.786 316.586,156.441 316.586,155.643C316.586,154.722 317.593,154.434 318.29,154.434C318.556,154.434 318.744,154.434 319.01,154.449C319.01,153.816 318.779,153.492 318.103,153.492C317.722,153.492 317.312,153.636 317.039,153.866L317.003,153.291Z" style="fill:rgb(35,31,32);fill-rule:nonzero;"/></g><g transform="matrix(4.16667,0,0,4.16667,-1.69538,-289.363)"><path d="M324.072,156.7L323.418,156.7L323.418,156.117L323.404,156.117C323.202,156.535 322.713,156.786 322.202,156.786C321.253,156.786 320.829,156.197 320.829,155.211L320.829,153.032L321.505,153.032L321.505,154.931C321.505,155.787 321.692,156.204 322.282,156.24C323.051,156.24 323.396,155.621 323.396,154.729L323.396,153.032L324.072,153.032L324.072,156.7Z" style="fill:rgb(35,31,32);fill-rule:nonzero;"/></g><g transform="matrix(4.16667,0,0,4.16667,-1.69538,-289.363)"><path d="M324.949,155.981C325.215,156.153 325.597,156.24 325.791,156.24C326.1,156.24 326.481,156.11 326.481,155.715C326.481,155.046 324.892,155.103 324.892,154.075C324.892,153.312 325.46,152.946 326.186,152.946C326.503,152.946 326.762,153.01 327.028,153.089L326.97,153.679C326.819,153.586 326.417,153.492 326.258,153.492C325.913,153.492 325.611,153.636 325.611,153.938C325.611,154.686 327.201,154.47 327.201,155.643C327.201,156.427 326.575,156.786 325.92,156.786C325.575,156.786 325.223,156.75 324.913,156.585L324.949,155.981Z" style="fill:rgb(35,31,32);fill-rule:nonzero;"/></g><g transform="matrix(4.16667,0,0,4.16667,-1.69538,-289.363)"><path d="M331.508,156.24C332.27,156.24 332.587,155.485 332.587,154.873C332.587,154.19 332.235,153.492 331.501,153.492C330.767,153.492 330.48,154.183 330.494,154.851C330.48,155.427 330.782,156.24 331.508,156.24ZM332.616,156.182L332.601,156.182C332.422,156.455 332.004,156.786 331.35,156.786C330.242,156.786 329.775,155.801 329.775,154.801C329.775,153.816 330.293,152.946 331.357,152.946C331.997,152.946 332.364,153.197 332.573,153.535L332.587,153.535L332.587,151.306L333.263,151.306L333.263,156.7L332.616,156.7L332.616,156.182Z" style="fill:rgb(35,31,32);fill-rule:nonzero;"/></g><g transform="matrix(4.16667,0,0,4.16667,-1.69538,-289.363)"><path d="M336.787,154.513C336.787,153.953 336.456,153.492 335.873,153.492C335.212,153.492 334.938,154.039 334.888,154.513L336.787,154.513ZM337.225,156.549C336.966,156.642 336.672,156.786 336.067,156.786C334.766,156.786 334.169,155.995 334.169,154.801C334.169,153.715 334.852,152.946 335.888,152.946C337.11,152.946 337.506,153.838 337.506,155.017L334.888,155.017C334.888,155.743 335.456,156.24 336.096,156.24C336.542,156.24 337.06,156.009 337.225,155.873L337.225,156.549Z" style="fill:rgb(35,31,32);fill-rule:nonzero;"/></g><g transform="matrix(4.16667,0,0,4.16667,-1.69538,-289.363)"><path d="M338.412,153.032L339.044,153.032L339.044,153.6L339.059,153.6C339.239,153.219 339.627,152.946 340.015,152.946C340.217,152.946 340.318,152.967 340.461,152.996L340.461,153.6C340.339,153.55 340.202,153.535 340.087,153.535C339.483,153.535 339.088,154.111 339.088,155.031L339.088,156.7L338.412,156.7L338.412,153.032Z" style="fill:rgb(35,31,32);fill-rule:nonzero;"/></g><g transform="matrix(4.16667,0,0,4.16667,-1.69538,-289.363)"><path d="M342.647,151.68L343.438,151.68L344.64,155.981L344.654,155.981L345.726,151.68L346.747,151.68L347.833,155.981L347.847,155.981L349.048,151.68L349.811,151.68L348.264,156.7L347.337,156.7L346.243,152.313L346.229,152.313L345.129,156.7L344.165,156.7L342.647,151.68Z" style="fill:rgb(35,31,32);fill-rule:nonzero;"/></g><g transform="matrix(4.16667,0,0,4.16667,-1.69538,-289.363)"><path d="M350.486,153.032L351.162,153.032L351.162,156.7L350.486,156.7L350.486,153.032ZM351.205,152.212L350.443,152.212L350.443,151.45L351.205,151.45L351.205,152.212Z" style="fill:rgb(35,31,32);fill-rule:nonzero;"/></g><g transform="matrix(4.16667,0,0,4.16667,-1.69538,-289.363)"><path d="M352.126,155.981C352.392,156.153 352.773,156.24 352.967,156.24C353.276,156.24 353.658,156.11 353.658,155.715C353.658,155.046 352.068,155.103 352.068,154.075C352.068,153.312 352.636,152.946 353.363,152.946C353.679,152.946 353.938,153.01 354.204,153.089L354.147,153.679C353.996,153.586 353.593,153.492 353.435,153.492C353.089,153.492 352.787,153.636 352.787,153.938C352.787,154.686 354.377,154.47 354.377,155.643C354.377,156.427 353.751,156.786 353.097,156.786C352.751,156.786 352.399,156.75 352.09,156.585L352.126,155.981Z" style="fill:rgb(35,31,32);fill-rule:nonzero;"/></g><g transform="matrix(4.16667,0,0,4.16667,-1.69538,-289.363)"><path d="M354.923,155.981C355.189,156.153 355.57,156.24 355.764,156.24C356.074,156.24 356.455,156.11 356.455,155.715C356.455,155.046 354.865,155.103 354.865,154.075C354.865,153.312 355.434,152.946 356.16,152.946C356.476,152.946 356.735,153.01 357.001,153.089L356.944,153.679C356.793,153.586 356.39,153.492 356.232,153.492C355.887,153.492 355.585,153.636 355.585,153.938C355.585,154.686 357.174,154.47 357.174,155.643C357.174,156.427 356.548,156.786 355.894,156.786C355.549,156.786 355.196,156.75 354.887,156.585L354.923,155.981Z" style="fill:rgb(35,31,32);fill-rule:nonzero;"/></g><g transform="matrix(4.16667,0,0,4.16667,-1.69538,-289.363)"><path d="M360.367,154.513C360.367,153.953 360.036,153.492 359.454,153.492C358.792,153.492 358.519,154.039 358.468,154.513L360.367,154.513ZM360.806,156.549C360.547,156.642 360.252,156.786 359.648,156.786C358.346,156.786 357.749,155.995 357.749,154.801C357.749,153.715 358.432,152.946 359.468,152.946C360.691,152.946 361.086,153.838 361.086,155.017L358.468,155.017C358.468,155.743 359.037,156.24 359.677,156.24C360.123,156.24 360.64,156.009 360.806,155.873L360.806,156.549Z" style="fill:rgb(35,31,32);fill-rule:nonzero;"/></g><g transform="matrix(4.16667,0,0,4.16667,-1.69538,-289.363)"><path d="M361.992,153.032L362.647,153.032L362.647,153.615L362.661,153.615C362.862,153.197 363.351,152.946 363.862,152.946C364.811,152.946 365.236,153.535 365.236,154.521L365.236,156.7L364.56,156.7L364.56,154.801C364.56,153.945 364.373,153.528 363.783,153.492C363.013,153.492 362.668,154.111 362.668,155.003L362.668,156.7L361.992,156.7L361.992,153.032Z" style="fill:rgb(35,31,32);fill-rule:nonzero;"/></g><g transform="matrix(4.16667,0,0,4.16667,-1.69538,-289.363)"><path d="M366.113,155.981C366.379,156.153 366.76,156.24 366.954,156.24C367.263,156.24 367.645,156.11 367.645,155.715C367.645,155.046 366.055,155.103 366.055,154.075C366.055,153.312 366.623,152.946 367.35,152.946C367.666,152.946 367.925,153.01 368.191,153.089L368.134,153.679C367.983,153.586 367.58,153.492 367.422,153.492C367.077,153.492 366.774,153.636 366.774,153.938C366.774,154.686 368.364,154.47 368.364,155.643C368.364,156.427 367.738,156.786 367.084,156.786C366.739,156.786 366.386,156.75 366.077,156.585L366.113,155.981Z" style="fill:rgb(35,31,32);fill-rule:nonzero;"/></g><g transform="matrix(4.16667,0,0,4.16667,-1.69538,-289.363)"><path d="M371.514,153.65C371.255,153.543 370.996,153.492 370.78,153.492C370.025,153.492 369.601,154.168 369.601,154.866C369.601,155.52 369.953,156.24 370.823,156.24C371.053,156.24 371.341,156.168 371.55,156.031L371.6,156.635C371.32,156.765 370.996,156.786 370.751,156.786C369.644,156.786 368.882,155.916 368.882,154.866C368.882,153.751 369.629,152.946 370.751,152.946C371.025,152.946 371.377,153.01 371.571,153.089L371.514,153.65Z" style="fill:rgb(35,31,32);fill-rule:nonzero;"/></g><g transform="matrix(4.16667,0,0,4.16667,-1.69538,-289.363)"><path d="M372.376,151.306L373.053,151.306L373.053,153.557L373.067,153.557C373.311,153.169 373.736,152.946 374.246,152.946C375.196,152.946 375.62,153.535 375.62,154.521L375.62,156.7L374.944,156.7L374.944,154.801C374.944,153.945 374.757,153.528 374.167,153.492C373.398,153.492 373.053,154.111 373.053,155.003L373.053,156.7L372.376,156.7L372.376,151.306Z" style="fill:rgb(35,31,32);fill-rule:nonzero;"/></g><g transform="matrix(4.16667,0,0,4.16667,-1.69538,-289.363)"><path d="M378.949,154.952C378.806,154.952 378.662,154.938 378.518,154.938C378.151,154.938 377.245,154.995 377.245,155.643C377.245,156.031 377.619,156.24 377.928,156.24C378.597,156.24 378.949,155.822 378.949,155.276L378.949,154.952ZM376.943,153.291C377.281,153.089 377.684,152.946 378.151,152.946C379.201,152.946 379.626,153.463 379.626,154.463L379.626,155.981C379.626,156.398 379.64,156.592 379.654,156.7L379.021,156.7L379.021,156.225L379.007,156.225C378.849,156.448 378.489,156.786 377.871,156.786C377.079,156.786 376.526,156.441 376.526,155.643C376.526,154.722 377.533,154.434 378.23,154.434C378.496,154.434 378.683,154.434 378.949,154.449C378.949,153.816 378.719,153.492 378.043,153.492C377.662,153.492 377.252,153.636 376.979,153.866L376.943,153.291Z" style="fill:rgb(35,31,32);fill-rule:nonzero;"/></g><g transform="matrix(4.16667,0,0,4.16667,-1.69538,-289.363)"><path d="M381.207,153.578L380.344,153.578L380.344,153.032L381.207,153.032L381.207,152.694C381.207,151.802 381.438,151.219 382.437,151.219C382.61,151.219 382.754,151.241 382.89,151.263L382.862,151.809C382.783,151.78 382.653,151.766 382.538,151.766C381.955,151.766 381.883,152.14 381.883,152.636L381.883,153.032L382.855,153.032L382.855,153.578L381.883,153.578L381.883,156.7L381.207,156.7L381.207,153.578Z" style="fill:rgb(35,31,32);fill-rule:nonzero;"/></g><g transform="matrix(4.16667,0,0,4.16667,-1.69538,-289.363)"><path d="M385.515,153.578L384.544,153.578L384.544,155.585C384.544,156.009 384.803,156.24 385.112,156.24C385.321,156.24 385.472,156.175 385.573,156.11L385.573,156.686C385.422,156.729 385.213,156.786 384.997,156.786C384.3,156.786 383.868,156.455 383.868,155.722L383.868,153.578L383.041,153.578L383.041,153.032L383.868,153.032L383.868,152.183L384.544,151.968L384.544,153.032L385.515,153.032L385.515,153.578Z" style="fill:rgb(35,31,32);fill-rule:nonzero;"/></g><g transform="matrix(4.16667,0,0,4.16667,-1.69538,-289.363)"><path d="M315.686,123.137C315.763,122.559 315.801,122.097 315.801,121.635C315.801,119.325 314.376,117.669 311.643,117.669C308.678,117.669 306.406,120.249 305.636,123.137L315.686,123.137ZM316.148,134.496C314.261,134.958 312.297,135.304 310.334,135.304C305.559,135.304 301.285,133.379 301.285,126.448C301.285,121.019 305.097,114.743 312.028,114.743C316.764,114.743 319.421,117.592 319.421,122.251C319.421,123.56 319.267,124.677 319.074,125.832L305.251,125.832C305.174,126.256 305.135,126.641 305.135,127.064C305.135,131.184 307.677,132.378 311.181,132.378C312.99,132.378 314.954,131.916 316.725,131.184L316.148,134.496Z" style="fill:rgb(35,31,32);fill-rule:nonzero;"/></g><g transform="matrix(4.16667,0,0,4.16667,-1.69538,-289.363)"><path d="M350.417,115.027L353.266,115.027L349.035,134.717L346.186,134.717L350.417,115.027Z" style="fill:rgb(35,31,32);fill-rule:nonzero;"/></g><g transform="matrix(4.16667,0,0,4.16667,-1.69538,-289.363)"><path d="M350.417,115.027L353.266,115.027L349.035,134.717L346.186,134.717L350.417,115.027Z" style="fill:none;stroke:rgb(35,31,32);stroke-width:0.23px;"/></g><g transform="matrix(4.16667,0,0,4.16667,-1.69538,-289.363)"><path d="M366.778,118.13C365.847,117.566 364.691,117.171 363.196,117.171C361.334,117.171 359.303,117.905 359.303,120.246C359.303,123.547 366.016,123.575 366.016,128.737C366.016,131.699 363.957,135.056 359.218,135.056C356.933,135.056 355.297,134.548 353.717,133.927L354.62,131.332C355.777,132.066 357.384,132.574 358.767,132.574C361.757,132.574 363.026,130.712 363.026,129.077C363.026,125.07 356.312,125.775 356.312,120.303C356.312,116.72 359.585,114.689 362.829,114.689C364.465,114.689 366.073,114.999 367.568,115.62L366.778,118.13Z" style="fill:rgb(35,31,32);fill-rule:nonzero;"/></g><g transform="matrix(4.16667,0,0,4.16667,-1.69538,-289.363)"><path d="M366.778,118.13C365.847,117.566 364.691,117.171 363.196,117.171C361.334,117.171 359.303,117.905 359.303,120.246C359.303,123.547 366.016,123.575 366.016,128.737C366.016,131.699 363.957,135.056 359.218,135.056C356.933,135.056 355.297,134.548 353.717,133.927L354.62,131.332C355.777,132.066 357.384,132.574 358.767,132.574C361.757,132.574 363.026,130.712 363.026,129.077C363.026,125.07 356.312,125.775 356.312,120.303C356.312,116.72 359.585,114.689 362.829,114.689C364.465,114.689 366.073,114.999 367.568,115.62L366.778,118.13Z" style="fill:none;stroke:rgb(35,31,32);stroke-width:0.23px;"/></g><g transform="matrix(4.16667,0,0,4.16667,-1.69538,-289.363)"><path d="M385.311,117.51L379.19,117.51L375.494,134.717L372.645,134.717L376.34,117.51L370.219,117.51L370.755,115.027L385.847,115.027L385.311,117.51Z" style="fill:rgb(35,31,32);fill-rule:nonzero;"/></g><g transform="matrix(4.16667,0,0,4.16667,-1.69538,-289.363)"><path d="M385.311,117.51L379.19,117.51L375.494,134.717L372.645,134.717L376.34,117.51L370.219,117.51L370.755,115.027L385.847,115.027L385.311,117.51Z" style="fill:none;stroke:rgb(35,31,32);stroke-width:0.23px;"/></g><g transform="matrix(4.16667,0,0,4.16667,-1.69538,-289.363)"><path d="M335.762,124.902L342.462,138.087L335.762,138.087L331.331,128.523L321.388,139.6L316.795,136.628L328.737,124.199L322.306,111.23L328.737,111.23L333.06,120.687L342.84,109.771L347.325,112.635L335.762,124.902Z" style="fill:rgb(237,28,36);fill-rule:nonzero;"/></g><g transform="matrix(4.16667,0,0,4.16667,-1.69538,-289.363)"><path d="M338.698,106.761C338.698,108.784 337.058,110.425 335.033,110.425C333.009,110.425 331.369,108.784 331.369,106.761C331.369,104.738 333.009,103.096 335.033,103.096C337.058,103.096 338.698,104.738 338.698,106.761Z" style="fill:rgb(187,189,192);fill-rule:nonzero;"/></g></g></g></svg>